G04 #@! TF.FileFunction,Soldermask,Bot*
%FSLAX46Y46*%
G04 Gerber Fmt 4.6, Leading zero omitted, Abs format (unit mm)*
G04 Created by KiCad (PCBNEW 4.0.2-stable) date 05/10/2017 12:24:37*
%MOMM*%
G01*
G04 APERTURE LIST*
%ADD10C,0.100000*%
%ADD11R,1.700000X1.700000*%
%ADD12O,1.700000X1.700000*%
%ADD13C,1.500000*%
%ADD14O,5.001260X2.999740*%
%ADD15O,2.999740X5.001260*%
%ADD16R,2.200000X2.200000*%
%ADD17O,2.200000X2.200000*%
%ADD18C,2.400000*%
%ADD19O,2.400000X2.400000*%
%ADD20C,2.200000*%
%ADD21C,2.000000*%
%ADD22R,2.000000X2.000000*%
%ADD23C,6.400000*%
%ADD24C,0.800000*%
G04 APERTURE END LIST*
D10*
D11*
X111340900Y-80581500D03*
D12*
X111340900Y-78041500D03*
D11*
X115417600Y-80556100D03*
D12*
X115417600Y-78016100D03*
D11*
X157429200Y-88209120D03*
D12*
X159969200Y-88209120D03*
D11*
X172394880Y-84957920D03*
D12*
X172394880Y-82417920D03*
D11*
X133332220Y-71688960D03*
D12*
X130792220Y-71688960D03*
D11*
X92316300Y-56438800D03*
D12*
X92316300Y-58978800D03*
X92316300Y-61518800D03*
X92316300Y-64058800D03*
X92316300Y-66598800D03*
X92316300Y-69138800D03*
X92316300Y-71678800D03*
X92316300Y-74218800D03*
D11*
X119672100Y-48920400D03*
D12*
X117132100Y-48920400D03*
X114592100Y-48920400D03*
X112052100Y-48920400D03*
D13*
X167528240Y-81081880D03*
X136408160Y-87111840D03*
X170611800Y-91897200D03*
X140108940Y-92834460D03*
X123733560Y-98877120D03*
D11*
X127099060Y-102260400D03*
D12*
X124559060Y-102260400D03*
D11*
X126095760Y-48920400D03*
D12*
X128635760Y-48920400D03*
X131175760Y-48920400D03*
X133715760Y-48920400D03*
D11*
X170750000Y-48700000D03*
X127109220Y-105918000D03*
X105752900Y-48933100D03*
D12*
X103212900Y-48933100D03*
X100672900Y-48933100D03*
X98132900Y-48933100D03*
D14*
X179825000Y-105268800D03*
X179825000Y-109231200D03*
X179650000Y-58418800D03*
X179650000Y-62381200D03*
X179847240Y-92720160D03*
X179847240Y-96682560D03*
X93325000Y-101831200D03*
X93325000Y-97868800D03*
D13*
X100360480Y-104729280D03*
D15*
X144792700Y-52694840D03*
X148752560Y-52694840D03*
X152712420Y-52694840D03*
D16*
X141244320Y-70591680D03*
D17*
X151404320Y-70591680D03*
D16*
X136822180Y-64988440D03*
D17*
X136822180Y-54828440D03*
D18*
X141236700Y-65938400D03*
D19*
X161556700Y-65938400D03*
D18*
X161577020Y-60601860D03*
D19*
X141257020Y-60601860D03*
D20*
X177860000Y-70710000D03*
X182940000Y-70710000D03*
X182940000Y-75790000D03*
X177860000Y-75790000D03*
D21*
X180400000Y-73250000D03*
D20*
X177885000Y-81160000D03*
X182965000Y-81160000D03*
X182965000Y-86240000D03*
X177885000Y-86240000D03*
D21*
X180425000Y-83700000D03*
D11*
X92350000Y-87400000D03*
D12*
X94890000Y-87400000D03*
X92350000Y-84860000D03*
X94890000Y-84860000D03*
X92350000Y-82320000D03*
X94890000Y-82320000D03*
X92350000Y-79780000D03*
X94890000Y-79780000D03*
D11*
X158000000Y-48800000D03*
D12*
X160540000Y-48800000D03*
X163080000Y-48800000D03*
X165620000Y-48800000D03*
D22*
X100660000Y-118870000D03*
X103200000Y-118870000D03*
X105740000Y-118870000D03*
X108280000Y-118870000D03*
X110820000Y-118870000D03*
X113360000Y-118870000D03*
X115900000Y-118870000D03*
X118440000Y-118870000D03*
X120980000Y-118870000D03*
X123520000Y-118870000D03*
X126060000Y-118870000D03*
X128600000Y-118870000D03*
X131140000Y-118870000D03*
X133680000Y-118870000D03*
X136220000Y-118870000D03*
X138760000Y-118870000D03*
X141300000Y-118870000D03*
X143840000Y-118870000D03*
X146380000Y-118870000D03*
X148920000Y-118870000D03*
X151460000Y-118870000D03*
X154000000Y-118870000D03*
X156540000Y-118870000D03*
X159080000Y-118870000D03*
X161620000Y-118870000D03*
X164160000Y-118870000D03*
X166700000Y-118870000D03*
X169240000Y-118870000D03*
X171780000Y-118870000D03*
X174320000Y-118870000D03*
X100660000Y-121410000D03*
X103200000Y-121410000D03*
X105740000Y-121410000D03*
X108280000Y-121410000D03*
X110820000Y-121410000D03*
X113360000Y-121410000D03*
X115900000Y-121410000D03*
X118440000Y-121410000D03*
X120980000Y-121410000D03*
X123520000Y-121410000D03*
X126060000Y-121410000D03*
X128600000Y-121410000D03*
X131140000Y-121410000D03*
X133680000Y-121410000D03*
X136220000Y-121410000D03*
X138760000Y-121410000D03*
X141300000Y-121410000D03*
X143840000Y-121410000D03*
X146380000Y-121410000D03*
X148920000Y-121410000D03*
X151460000Y-121410000D03*
X154000000Y-121410000D03*
X156540000Y-121410000D03*
X159080000Y-121410000D03*
X161620000Y-121410000D03*
X164160000Y-121410000D03*
X166700000Y-121410000D03*
X169240000Y-121410000D03*
X171780000Y-121410000D03*
X174320000Y-121410000D03*
X100660000Y-123950000D03*
X103200000Y-123950000D03*
X105740000Y-123950000D03*
X108280000Y-123950000D03*
X110820000Y-123950000D03*
X113360000Y-123950000D03*
X115900000Y-123950000D03*
X118440000Y-123950000D03*
X120980000Y-123950000D03*
X123520000Y-123950000D03*
X126060000Y-123950000D03*
X128600000Y-123950000D03*
X131140000Y-123950000D03*
X133680000Y-123950000D03*
X136220000Y-123950000D03*
X138760000Y-123950000D03*
X141300000Y-123950000D03*
X143840000Y-123950000D03*
X146380000Y-123950000D03*
X148920000Y-123950000D03*
X151460000Y-123950000D03*
X154000000Y-123950000D03*
X156540000Y-123950000D03*
X159080000Y-123950000D03*
X161620000Y-123950000D03*
X164160000Y-123950000D03*
X166700000Y-123950000D03*
X169240000Y-123950000D03*
X171780000Y-123950000D03*
X174320000Y-123950000D03*
X100660000Y-126490000D03*
X103200000Y-126490000D03*
X105740000Y-126490000D03*
X108280000Y-126490000D03*
X110820000Y-126490000D03*
X113360000Y-126490000D03*
X115900000Y-126490000D03*
X118440000Y-126490000D03*
X120980000Y-126490000D03*
X123520000Y-126490000D03*
X126060000Y-126490000D03*
X128600000Y-126490000D03*
X131140000Y-126490000D03*
X133680000Y-126490000D03*
X136220000Y-126490000D03*
X138760000Y-126490000D03*
X141300000Y-126490000D03*
X143840000Y-126490000D03*
X146380000Y-126490000D03*
X148920000Y-126490000D03*
X151460000Y-126490000D03*
X154000000Y-126490000D03*
X156540000Y-126490000D03*
X159080000Y-126490000D03*
X161620000Y-126490000D03*
X164160000Y-126490000D03*
X166700000Y-126490000D03*
X169240000Y-126490000D03*
X171780000Y-126490000D03*
X174320000Y-126490000D03*
X100660000Y-129030000D03*
X103200000Y-129030000D03*
X105740000Y-129030000D03*
X108280000Y-129030000D03*
X110820000Y-129030000D03*
X113360000Y-129030000D03*
X115900000Y-129030000D03*
X118440000Y-129030000D03*
X120980000Y-129030000D03*
X123520000Y-129030000D03*
X126060000Y-129030000D03*
X128600000Y-129030000D03*
X131140000Y-129030000D03*
X133680000Y-129030000D03*
X136220000Y-129030000D03*
X138760000Y-129030000D03*
X141300000Y-129030000D03*
X143840000Y-129030000D03*
X146380000Y-129030000D03*
X148920000Y-129030000D03*
X151460000Y-129030000D03*
X154000000Y-129030000D03*
X156540000Y-129030000D03*
X159080000Y-129030000D03*
X161620000Y-129030000D03*
X164160000Y-129030000D03*
X166700000Y-129030000D03*
X169240000Y-129030000D03*
X171780000Y-129030000D03*
X174320000Y-129030000D03*
X100660000Y-131570000D03*
X103200000Y-131570000D03*
X105740000Y-131570000D03*
X108280000Y-131570000D03*
X110820000Y-131570000D03*
X113360000Y-131570000D03*
X115900000Y-131570000D03*
X118440000Y-131570000D03*
X120980000Y-131570000D03*
X123520000Y-131570000D03*
X126060000Y-131570000D03*
X128600000Y-131570000D03*
X131140000Y-131570000D03*
X133680000Y-131570000D03*
X136220000Y-131570000D03*
X138760000Y-131570000D03*
X141300000Y-131570000D03*
X143840000Y-131570000D03*
X146380000Y-131570000D03*
X148920000Y-131570000D03*
X151460000Y-131570000D03*
X154000000Y-131570000D03*
X156540000Y-131570000D03*
X159080000Y-131570000D03*
X161620000Y-131570000D03*
X164160000Y-131570000D03*
X166700000Y-131570000D03*
X169240000Y-131570000D03*
X171780000Y-131570000D03*
X174320000Y-131570000D03*
X100660000Y-134110000D03*
X103200000Y-134110000D03*
X105740000Y-134110000D03*
X108280000Y-134110000D03*
X110820000Y-134110000D03*
X113360000Y-134110000D03*
X115900000Y-134110000D03*
X118440000Y-134110000D03*
X120980000Y-134110000D03*
X123520000Y-134110000D03*
X126060000Y-134110000D03*
X128600000Y-134110000D03*
X131140000Y-134110000D03*
X133680000Y-134110000D03*
X136220000Y-134110000D03*
X138760000Y-134110000D03*
X141300000Y-134110000D03*
X143840000Y-134110000D03*
X146380000Y-134110000D03*
X148920000Y-134110000D03*
X151460000Y-134110000D03*
X154000000Y-134110000D03*
X156540000Y-134110000D03*
X159080000Y-134110000D03*
X161620000Y-134110000D03*
X164160000Y-134110000D03*
X166700000Y-134110000D03*
X169240000Y-134110000D03*
X171780000Y-134110000D03*
X174320000Y-134110000D03*
X100660000Y-136650000D03*
X103200000Y-136650000D03*
X105740000Y-136650000D03*
X108280000Y-136650000D03*
X110820000Y-136650000D03*
X113360000Y-136650000D03*
X115900000Y-136650000D03*
X118440000Y-136650000D03*
X120980000Y-136650000D03*
X123520000Y-136650000D03*
X126060000Y-136650000D03*
X128600000Y-136650000D03*
X131140000Y-136650000D03*
X133680000Y-136650000D03*
X136220000Y-136650000D03*
X138760000Y-136650000D03*
X141300000Y-136650000D03*
X143840000Y-136650000D03*
X146380000Y-136650000D03*
X148920000Y-136650000D03*
X151460000Y-136650000D03*
X154000000Y-136650000D03*
X156540000Y-136650000D03*
X159080000Y-136650000D03*
X161620000Y-136650000D03*
X164160000Y-136650000D03*
X166700000Y-136650000D03*
X169240000Y-136650000D03*
X171780000Y-136650000D03*
X174320000Y-136650000D03*
X100660000Y-139190000D03*
X103200000Y-139190000D03*
X105740000Y-139190000D03*
X108280000Y-139190000D03*
X110820000Y-139190000D03*
X113360000Y-139190000D03*
X115900000Y-139190000D03*
X118440000Y-139190000D03*
X120980000Y-139190000D03*
X123520000Y-139190000D03*
X126060000Y-139190000D03*
X128600000Y-139190000D03*
X131140000Y-139190000D03*
X133680000Y-139190000D03*
X136220000Y-139190000D03*
X138760000Y-139190000D03*
X141300000Y-139190000D03*
X143840000Y-139190000D03*
X146380000Y-139190000D03*
X148920000Y-139190000D03*
X151460000Y-139190000D03*
X154000000Y-139190000D03*
X156540000Y-139190000D03*
X159080000Y-139190000D03*
X161620000Y-139190000D03*
X164160000Y-139190000D03*
X166700000Y-139190000D03*
X169240000Y-139190000D03*
X171780000Y-139190000D03*
X174320000Y-139190000D03*
X100660000Y-141730000D03*
X103200000Y-141730000D03*
X105740000Y-141730000D03*
X108280000Y-141730000D03*
X110820000Y-141730000D03*
X113360000Y-141730000D03*
X115900000Y-141730000D03*
X118440000Y-141730000D03*
X120980000Y-141730000D03*
X123520000Y-141730000D03*
X126060000Y-141730000D03*
X128600000Y-141730000D03*
X131140000Y-141730000D03*
X133680000Y-141730000D03*
X136220000Y-141730000D03*
X138760000Y-141730000D03*
X141300000Y-141730000D03*
X143840000Y-141730000D03*
X146380000Y-141730000D03*
X148920000Y-141730000D03*
X151460000Y-141730000D03*
X154000000Y-141730000D03*
X156540000Y-141730000D03*
X159080000Y-141730000D03*
X161620000Y-141730000D03*
X164160000Y-141730000D03*
X166700000Y-141730000D03*
X169240000Y-141730000D03*
X171780000Y-141730000D03*
X174320000Y-141730000D03*
D23*
X91563200Y-50212000D03*
D24*
X93963200Y-50212000D03*
X93260256Y-51909056D03*
X91563200Y-52612000D03*
X89866144Y-51909056D03*
X89163200Y-50212000D03*
X89866144Y-48514944D03*
X91563200Y-47812000D03*
X93260256Y-48514944D03*
D23*
X181563200Y-50212000D03*
D24*
X183963200Y-50212000D03*
X183260256Y-51909056D03*
X181563200Y-52612000D03*
X179866144Y-51909056D03*
X179163200Y-50212000D03*
X179866144Y-48514944D03*
X181563200Y-47812000D03*
X183260256Y-48514944D03*
D23*
X91563200Y-140212000D03*
D24*
X93963200Y-140212000D03*
X93260256Y-141909056D03*
X91563200Y-142612000D03*
X89866144Y-141909056D03*
X89163200Y-140212000D03*
X89866144Y-138514944D03*
X91563200Y-137812000D03*
X93260256Y-138514944D03*
D23*
X181563200Y-140212000D03*
D24*
X183963200Y-140212000D03*
X183260256Y-141909056D03*
X181563200Y-142612000D03*
X179866144Y-141909056D03*
X179163200Y-140212000D03*
X179866144Y-138514944D03*
X181563200Y-137812000D03*
X183260256Y-138514944D03*
M02*
