G04 #@! TF.FileFunction,Other,User*
%FSLAX46Y46*%
G04 Gerber Fmt 4.6, Leading zero omitted, Abs format (unit mm)*
G04 Created by KiCad (PCBNEW 4.0.2-stable) date 04/10/2017 17:30:47*
%MOMM*%
G01*
G04 APERTURE LIST*
%ADD10C,0.100000*%
%ADD11C,0.050000*%
G04 APERTURE END LIST*
D10*
D11*
X133555520Y-95103360D02*
X133555520Y-88203360D01*
X124955520Y-95103360D02*
X124955520Y-88203360D01*
X133555520Y-95103360D02*
X124955520Y-95103360D01*
X133555520Y-88203360D02*
X124955520Y-88203360D01*
X135412920Y-89798000D02*
X139912920Y-89798000D01*
X135412920Y-89798000D02*
X135412920Y-91548000D01*
X139912920Y-91548000D02*
X139912920Y-89798000D01*
X139912920Y-91548000D02*
X135412920Y-91548000D01*
X155442480Y-86574520D02*
X150942480Y-86574520D01*
X155442480Y-86574520D02*
X155442480Y-84824520D01*
X150942480Y-84824520D02*
X150942480Y-86574520D01*
X150942480Y-84824520D02*
X155442480Y-84824520D01*
X155442480Y-88499840D02*
X150942480Y-88499840D01*
X155442480Y-88499840D02*
X155442480Y-86749840D01*
X150942480Y-86749840D02*
X150942480Y-88499840D01*
X150942480Y-86749840D02*
X155442480Y-86749840D01*
X162354150Y-80189510D02*
X162354150Y-84689510D01*
X162354150Y-80189510D02*
X160604150Y-80189510D01*
X160604150Y-84689510D02*
X162354150Y-84689510D01*
X160604150Y-84689510D02*
X160604150Y-80189510D01*
X123700000Y-59495000D02*
X128200000Y-59495000D01*
X123700000Y-59495000D02*
X123700000Y-61245000D01*
X128200000Y-61245000D02*
X128200000Y-59495000D01*
X128200000Y-61245000D02*
X123700000Y-61245000D01*
X123600000Y-61255000D02*
X119100000Y-61255000D01*
X123600000Y-61255000D02*
X123600000Y-59505000D01*
X119100000Y-59505000D02*
X119100000Y-61255000D01*
X119100000Y-59505000D02*
X123600000Y-59505000D01*
X126049600Y-69587000D02*
X121549600Y-69587000D01*
X126049600Y-69587000D02*
X126049600Y-67837000D01*
X121549600Y-67837000D02*
X121549600Y-69587000D01*
X121549600Y-67837000D02*
X126049600Y-67837000D01*
X121549600Y-65861040D02*
X126049600Y-65861040D01*
X121549600Y-65861040D02*
X121549600Y-67611040D01*
X126049600Y-67611040D02*
X126049600Y-65861040D01*
X126049600Y-67611040D02*
X121549600Y-67611040D01*
X106263000Y-67466100D02*
X101763000Y-67466100D01*
X106263000Y-67466100D02*
X106263000Y-65716100D01*
X101763000Y-65716100D02*
X101763000Y-67466100D01*
X101763000Y-65716100D02*
X106263000Y-65716100D01*
X102032240Y-93750240D02*
X106532240Y-93750240D01*
X102032240Y-93750240D02*
X102032240Y-95500240D01*
X106532240Y-95500240D02*
X106532240Y-93750240D01*
X106532240Y-95500240D02*
X102032240Y-95500240D01*
X115488280Y-96013160D02*
X110988280Y-96013160D01*
X115488280Y-96013160D02*
X115488280Y-94263160D01*
X110988280Y-94263160D02*
X110988280Y-96013160D01*
X110988280Y-94263160D02*
X115488280Y-94263160D01*
X123257200Y-86533160D02*
X123257200Y-91033160D01*
X123257200Y-86533160D02*
X121507200Y-86533160D01*
X121507200Y-91033160D02*
X123257200Y-91033160D01*
X121507200Y-91033160D02*
X121507200Y-86533160D01*
X104699520Y-108170080D02*
X104699520Y-106470080D01*
X104699520Y-106470080D02*
X108599520Y-106470080D01*
X108599520Y-106470080D02*
X108599520Y-108170080D01*
X108599520Y-108170080D02*
X104699520Y-108170080D01*
X118911920Y-106459920D02*
X118911920Y-108159920D01*
X118911920Y-108159920D02*
X115011920Y-108159920D01*
X115011920Y-108159920D02*
X115011920Y-106459920D01*
X115011920Y-106459920D02*
X118911920Y-106459920D01*
X113140900Y-82381500D02*
X113140900Y-76231500D01*
X113140900Y-76231500D02*
X109540900Y-76231500D01*
X109540900Y-76231500D02*
X109540900Y-82381500D01*
X109540900Y-82381500D02*
X113140900Y-82381500D01*
X117217600Y-82356100D02*
X117217600Y-76206100D01*
X117217600Y-76206100D02*
X113617600Y-76206100D01*
X113617600Y-76206100D02*
X113617600Y-82356100D01*
X113617600Y-82356100D02*
X117217600Y-82356100D01*
X155629200Y-90009120D02*
X161779200Y-90009120D01*
X161779200Y-90009120D02*
X161779200Y-86409120D01*
X161779200Y-86409120D02*
X155629200Y-86409120D01*
X155629200Y-86409120D02*
X155629200Y-90009120D01*
X174194880Y-86757920D02*
X174194880Y-80607920D01*
X174194880Y-80607920D02*
X170594880Y-80607920D01*
X170594880Y-80607920D02*
X170594880Y-86757920D01*
X170594880Y-86757920D02*
X174194880Y-86757920D01*
X135132220Y-69888960D02*
X128982220Y-69888960D01*
X128982220Y-69888960D02*
X128982220Y-73488960D01*
X128982220Y-73488960D02*
X135132220Y-73488960D01*
X135132220Y-73488960D02*
X135132220Y-69888960D01*
X90516300Y-54638800D02*
X90516300Y-75988800D01*
X90516300Y-75988800D02*
X94116300Y-75988800D01*
X94116300Y-75988800D02*
X94116300Y-54638800D01*
X94116300Y-54638800D02*
X90516300Y-54638800D01*
X121472100Y-47120400D02*
X110272100Y-47120400D01*
X110272100Y-47120400D02*
X110272100Y-50720400D01*
X110272100Y-50720400D02*
X121472100Y-50720400D01*
X121472100Y-50720400D02*
X121472100Y-47120400D01*
X107141440Y-81740240D02*
X107141440Y-77040240D01*
X107141440Y-81740240D02*
X108941440Y-81740240D01*
X108941440Y-77040240D02*
X107141440Y-77040240D01*
X108941440Y-77040240D02*
X108941440Y-81740240D01*
X162896120Y-92666320D02*
X162896120Y-97366320D01*
X162896120Y-92666320D02*
X161096120Y-92666320D01*
X161096120Y-97366320D02*
X162896120Y-97366320D01*
X161096120Y-97366320D02*
X161096120Y-92666320D01*
X162898660Y-97388180D02*
X162898660Y-102088180D01*
X162898660Y-97388180D02*
X161098660Y-97388180D01*
X161098660Y-102088180D02*
X162898660Y-102088180D01*
X161098660Y-102088180D02*
X161098660Y-97388180D01*
X117530040Y-81719920D02*
X117530040Y-77019920D01*
X117530040Y-81719920D02*
X119330040Y-81719920D01*
X119330040Y-77019920D02*
X117530040Y-77019920D01*
X119330040Y-77019920D02*
X119330040Y-81719920D01*
X141136800Y-96411280D02*
X141136800Y-91711280D01*
X141136800Y-96411280D02*
X142936800Y-96411280D01*
X142936800Y-91711280D02*
X141136800Y-91711280D01*
X142936800Y-91711280D02*
X142936800Y-96411280D01*
X141136800Y-89665040D02*
X141136800Y-84965040D01*
X141136800Y-89665040D02*
X142936800Y-89665040D01*
X142936800Y-84965040D02*
X141136800Y-84965040D01*
X142936800Y-84965040D02*
X142936800Y-89665040D01*
X158161560Y-90233000D02*
X158161560Y-94933000D01*
X158161560Y-90233000D02*
X156361560Y-90233000D01*
X156361560Y-94933000D02*
X158161560Y-94933000D01*
X156361560Y-94933000D02*
X156361560Y-90233000D01*
X137265840Y-96533200D02*
X137265840Y-91833200D01*
X137265840Y-96533200D02*
X139065840Y-96533200D01*
X139065840Y-91833200D02*
X137265840Y-91833200D01*
X139065840Y-91833200D02*
X139065840Y-96533200D01*
X136800160Y-93743280D02*
X136800160Y-98443280D01*
X136800160Y-93743280D02*
X135000160Y-93743280D01*
X135000160Y-98443280D02*
X136800160Y-98443280D01*
X135000160Y-98443280D02*
X135000160Y-93743280D01*
X171615600Y-89170080D02*
X166915600Y-89170080D01*
X171615600Y-89170080D02*
X171615600Y-87370080D01*
X166915600Y-87370080D02*
X166915600Y-89170080D01*
X166915600Y-87370080D02*
X171615600Y-87370080D01*
X121561020Y-81727540D02*
X121561020Y-77027540D01*
X121561020Y-81727540D02*
X123361020Y-81727540D01*
X123361020Y-77027540D02*
X121561020Y-77027540D01*
X123361020Y-77027540D02*
X123361020Y-81727540D01*
X106452240Y-99148400D02*
X106452240Y-103848400D01*
X106452240Y-99148400D02*
X104652240Y-99148400D01*
X104652240Y-103848400D02*
X106452240Y-103848400D01*
X104652240Y-103848400D02*
X104652240Y-99148400D01*
X118959200Y-101261680D02*
X118959200Y-105961680D01*
X118959200Y-101261680D02*
X117159200Y-101261680D01*
X117159200Y-105961680D02*
X118959200Y-105961680D01*
X117159200Y-105961680D02*
X117159200Y-101261680D01*
X124260220Y-76295180D02*
X133260220Y-76295180D01*
X133260220Y-76295180D02*
X133260220Y-82795180D01*
X133260220Y-82795180D02*
X124260220Y-82795180D01*
X124260220Y-82795180D02*
X124260220Y-76295180D01*
X145256240Y-89166720D02*
X145256240Y-94566720D01*
X152716240Y-89166720D02*
X152716240Y-94566720D01*
X145256240Y-89166720D02*
X152716240Y-89166720D01*
X145256240Y-94566720D02*
X152716240Y-94566720D01*
X166402630Y-81723630D02*
X162702630Y-81723630D01*
X166402630Y-88123630D02*
X162702630Y-88123630D01*
X166402630Y-81723630D02*
X166402630Y-88123630D01*
X162702630Y-81723630D02*
X162702630Y-88123630D01*
X119625400Y-72292500D02*
X119625400Y-61692500D01*
X109025400Y-72292500D02*
X109025400Y-61692500D01*
X119625400Y-72292500D02*
X109025400Y-72292500D01*
X119625400Y-61692500D02*
X109025400Y-61692500D01*
X168528240Y-81081880D02*
G75*
G03X168528240Y-81081880I-1000000J0D01*
G01*
X137408160Y-87111840D02*
G75*
G03X137408160Y-87111840I-1000000J0D01*
G01*
X171611800Y-91897200D02*
G75*
G03X171611800Y-91897200I-1000000J0D01*
G01*
X141108940Y-92834460D02*
G75*
G03X141108940Y-92834460I-1000000J0D01*
G01*
X124733560Y-98877120D02*
G75*
G03X124733560Y-98877120I-1000000J0D01*
G01*
X128899060Y-100460400D02*
X122749060Y-100460400D01*
X122749060Y-100460400D02*
X122749060Y-104060400D01*
X122749060Y-104060400D02*
X128899060Y-104060400D01*
X128899060Y-104060400D02*
X128899060Y-100460400D01*
X124295760Y-50720400D02*
X135495760Y-50720400D01*
X135495760Y-50720400D02*
X135495760Y-47120400D01*
X135495760Y-47120400D02*
X124295760Y-47120400D01*
X124295760Y-47120400D02*
X124295760Y-50720400D01*
X168950000Y-46900000D02*
X168950000Y-50500000D01*
X168950000Y-50500000D02*
X172550000Y-50500000D01*
X172550000Y-50500000D02*
X172550000Y-46900000D01*
X172550000Y-46900000D02*
X168950000Y-46900000D01*
X125309220Y-107718000D02*
X128909220Y-107718000D01*
X128909220Y-107718000D02*
X128909220Y-104118000D01*
X128909220Y-104118000D02*
X125309220Y-104118000D01*
X125309220Y-104118000D02*
X125309220Y-107718000D01*
X107552900Y-47133100D02*
X96352900Y-47133100D01*
X96352900Y-47133100D02*
X96352900Y-50733100D01*
X96352900Y-50733100D02*
X107552900Y-50733100D01*
X107552900Y-50733100D02*
X107552900Y-47133100D01*
X119013080Y-91038240D02*
X119013080Y-86538240D01*
X119013080Y-91038240D02*
X120763080Y-91038240D01*
X120763080Y-86538240D02*
X119013080Y-86538240D01*
X120763080Y-86538240D02*
X120763080Y-91038240D01*
X115598760Y-106248920D02*
X115598760Y-97448920D01*
X108398760Y-106248920D02*
X115598760Y-106248920D01*
X108398760Y-97448920D02*
X108398760Y-106248920D01*
X115598760Y-97448920D02*
X108398760Y-97448920D01*
X101360480Y-104729280D02*
G75*
G03X101360480Y-104729280I-1000000J0D01*
G01*
X140243060Y-72602520D02*
X144943060Y-72602520D01*
X140243060Y-72602520D02*
X140243060Y-74402520D01*
X144943060Y-74402520D02*
X144943060Y-72602520D01*
X144943060Y-74402520D02*
X140243060Y-74402520D01*
X134752920Y-61287160D02*
X134752920Y-65987160D01*
X134752920Y-61287160D02*
X132952920Y-61287160D01*
X132952920Y-65987160D02*
X134752920Y-65987160D01*
X132952920Y-65987160D02*
X132952920Y-61287160D01*
X139894320Y-68891680D02*
X139894320Y-72291680D01*
X139894320Y-72291680D02*
X152794320Y-72291680D01*
X152794320Y-72291680D02*
X152794320Y-68891680D01*
X152794320Y-68891680D02*
X139894320Y-68891680D01*
X135122180Y-66338440D02*
X138522180Y-66338440D01*
X138522180Y-66338440D02*
X138522180Y-53438440D01*
X138522180Y-53438440D02*
X135122180Y-53438440D01*
X135122180Y-53438440D02*
X135122180Y-66338440D01*
X139786700Y-63338400D02*
X139786700Y-68538400D01*
X139786700Y-68538400D02*
X163036700Y-68538400D01*
X163036700Y-68538400D02*
X163036700Y-63338400D01*
X163036700Y-63338400D02*
X139786700Y-63338400D01*
X163027020Y-63201860D02*
X163027020Y-58001860D01*
X163027020Y-58001860D02*
X139777020Y-58001860D01*
X139777020Y-58001860D02*
X139777020Y-63201860D01*
X139777020Y-63201860D02*
X163027020Y-63201860D01*
X124950000Y-63775000D02*
X124950000Y-61775000D01*
X124950000Y-61775000D02*
X122450000Y-61775000D01*
X122450000Y-63775000D02*
X122450000Y-61775000D01*
X122450000Y-63775000D02*
X124950000Y-63775000D01*
X184540000Y-69110000D02*
X184540000Y-77390000D01*
X184540000Y-69110000D02*
X176260000Y-69110000D01*
X176260000Y-77390000D02*
X184540000Y-77390000D01*
X176260000Y-77390000D02*
X176260000Y-69110000D01*
X184565000Y-79560000D02*
X184565000Y-87840000D01*
X184565000Y-79560000D02*
X176285000Y-79560000D01*
X176285000Y-87840000D02*
X184565000Y-87840000D01*
X176285000Y-87840000D02*
X176285000Y-79560000D01*
X166505000Y-50825000D02*
X166505000Y-55325000D01*
X166505000Y-50825000D02*
X164755000Y-50825000D01*
X164755000Y-55325000D02*
X166505000Y-55325000D01*
X164755000Y-55325000D02*
X164755000Y-50825000D01*
X96700000Y-89200000D02*
X96700000Y-78000000D01*
X96700000Y-78000000D02*
X90550000Y-78000000D01*
X90550000Y-78000000D02*
X90550000Y-89200000D01*
X90550000Y-89200000D02*
X96700000Y-89200000D01*
X156200000Y-50600000D02*
X167400000Y-50600000D01*
X167400000Y-50600000D02*
X167400000Y-47000000D01*
X167400000Y-47000000D02*
X156200000Y-47000000D01*
X156200000Y-47000000D02*
X156200000Y-50600000D01*
X98860000Y-117070000D02*
X98860000Y-120670000D01*
X98860000Y-120670000D02*
X102460000Y-120670000D01*
X102460000Y-120670000D02*
X102460000Y-117070000D01*
X102460000Y-117070000D02*
X98860000Y-117070000D01*
X95013200Y-50212000D02*
G75*
G03X95013200Y-50212000I-3450000J0D01*
G01*
X185013200Y-50212000D02*
G75*
G03X185013200Y-50212000I-3450000J0D01*
G01*
X95013200Y-140212000D02*
G75*
G03X95013200Y-140212000I-3450000J0D01*
G01*
X185013200Y-140212000D02*
G75*
G03X185013200Y-140212000I-3450000J0D01*
G01*
X101160000Y-60200000D02*
X99460000Y-60200000D01*
X99460000Y-60200000D02*
X99460000Y-56300000D01*
X99460000Y-56300000D02*
X101160000Y-56300000D01*
X101160000Y-56300000D02*
X101160000Y-60200000D01*
X99320000Y-60290000D02*
X104020000Y-60290000D01*
X99320000Y-60290000D02*
X99320000Y-62090000D01*
X104020000Y-62090000D02*
X104020000Y-60290000D01*
X104020000Y-62090000D02*
X99320000Y-62090000D01*
M02*
