G04 #@! TF.FileFunction,Soldermask,Top*
%FSLAX46Y46*%
G04 Gerber Fmt 4.6, Leading zero omitted, Abs format (unit mm)*
G04 Created by KiCad (PCBNEW 4.0.2-stable) date 05/10/2017 9:36:09*
%MOMM*%
G01*
G04 APERTURE LIST*
%ADD10C,0.100000*%
%ADD11C,0.200000*%
%ADD12R,1.200000X0.400000*%
%ADD13R,1.500000X1.250000*%
%ADD14R,1.250000X1.500000*%
%ADD15R,1.200000X1.200000*%
%ADD16R,1.700000X1.700000*%
%ADD17O,1.700000X1.700000*%
%ADD18R,1.300000X1.500000*%
%ADD19R,1.500000X1.300000*%
%ADD20R,1.800000X1.100000*%
%ADD21R,1.550000X0.600000*%
%ADD22R,0.450000X1.450000*%
%ADD23R,1.600000X0.550000*%
%ADD24R,0.550000X1.600000*%
%ADD25C,1.500000*%
%ADD26O,5.001260X2.999740*%
%ADD27R,3.800000X2.000000*%
%ADD28R,1.500000X2.000000*%
%ADD29O,2.999740X5.001260*%
%ADD30R,2.200000X2.200000*%
%ADD31O,2.200000X2.200000*%
%ADD32C,2.400000*%
%ADD33O,2.400000X2.400000*%
%ADD34R,1.200000X2.300000*%
%ADD35C,2.200000*%
%ADD36C,2.000000*%
%ADD37R,2.000000X2.000000*%
%ADD38C,6.400000*%
%ADD39C,0.800000*%
G04 APERTURE END LIST*
D10*
D11*
X87469980Y-100848160D02*
X87518240Y-100848160D01*
D12*
X132705520Y-93928360D03*
X132705520Y-93278360D03*
X132705520Y-92628360D03*
X132705520Y-91978360D03*
X132705520Y-91328360D03*
X132705520Y-90678360D03*
X132705520Y-90028360D03*
X132705520Y-89378360D03*
X125805520Y-89378360D03*
X125805520Y-90028360D03*
X125805520Y-90678360D03*
X125805520Y-91328360D03*
X125805520Y-91978360D03*
X125805520Y-92628360D03*
X125805520Y-93278360D03*
X125805520Y-93928360D03*
D13*
X136412920Y-90678000D03*
X138912920Y-90678000D03*
X154442480Y-85694520D03*
X151942480Y-85694520D03*
X154442480Y-87619840D03*
X151942480Y-87619840D03*
D14*
X161474150Y-81189510D03*
X161474150Y-83689510D03*
D13*
X124700000Y-60375000D03*
X127200000Y-60375000D03*
X122600000Y-60375000D03*
X120100000Y-60375000D03*
X125049600Y-68707000D03*
X122549600Y-68707000D03*
X122549600Y-66741040D03*
X125049600Y-66741040D03*
X105263000Y-66586100D03*
X102763000Y-66586100D03*
X103032240Y-94630240D03*
X105532240Y-94630240D03*
X114488280Y-95133160D03*
X111988280Y-95133160D03*
D14*
X122377200Y-87533160D03*
X122377200Y-90033160D03*
D15*
X105549520Y-107320080D03*
X107749520Y-107320080D03*
X118061920Y-107309920D03*
X115861920Y-107309920D03*
D16*
X111340900Y-80581500D03*
D17*
X111340900Y-78041500D03*
D16*
X115417600Y-80556100D03*
D17*
X115417600Y-78016100D03*
D16*
X157429200Y-88209120D03*
D17*
X159969200Y-88209120D03*
D16*
X172394880Y-84957920D03*
D17*
X172394880Y-82417920D03*
D16*
X133332220Y-71688960D03*
D17*
X130792220Y-71688960D03*
D16*
X92316300Y-56438800D03*
D17*
X92316300Y-58978800D03*
X92316300Y-61518800D03*
X92316300Y-64058800D03*
X92316300Y-66598800D03*
X92316300Y-69138800D03*
X92316300Y-71678800D03*
X92316300Y-74218800D03*
D16*
X119672100Y-48920400D03*
D17*
X117132100Y-48920400D03*
X114592100Y-48920400D03*
X112052100Y-48920400D03*
D18*
X108041440Y-80740240D03*
X108041440Y-78040240D03*
X161996120Y-93666320D03*
X161996120Y-96366320D03*
X161998660Y-98388180D03*
X161998660Y-101088180D03*
X118430040Y-80719920D03*
X118430040Y-78019920D03*
X142036800Y-95411280D03*
X142036800Y-92711280D03*
X142036800Y-88665040D03*
X142036800Y-85965040D03*
X157261560Y-91233000D03*
X157261560Y-93933000D03*
X138165840Y-95533200D03*
X138165840Y-92833200D03*
X135900160Y-94743280D03*
X135900160Y-97443280D03*
D19*
X170615600Y-88270080D03*
X167915600Y-88270080D03*
D18*
X122461020Y-80727540D03*
X122461020Y-78027540D03*
X105552240Y-100148400D03*
X105552240Y-102848400D03*
X118059200Y-102261680D03*
X118059200Y-104961680D03*
D20*
X131860220Y-77695180D03*
X125660220Y-77695180D03*
X125660220Y-81395180D03*
X131860220Y-81395180D03*
D21*
X146286240Y-89961720D03*
X146286240Y-91231720D03*
X146286240Y-92501720D03*
X146286240Y-93771720D03*
X151686240Y-93771720D03*
X151686240Y-92501720D03*
X151686240Y-91231720D03*
X151686240Y-89961720D03*
D22*
X165527630Y-82723630D03*
X164877630Y-82723630D03*
X164227630Y-82723630D03*
X163577630Y-82723630D03*
X163577630Y-87123630D03*
X164227630Y-87123630D03*
X164877630Y-87123630D03*
X165527630Y-87123630D03*
D23*
X118575400Y-69792500D03*
X118575400Y-68992500D03*
X118575400Y-68192500D03*
X118575400Y-67392500D03*
X118575400Y-66592500D03*
X118575400Y-65792500D03*
X118575400Y-64992500D03*
X118575400Y-64192500D03*
D24*
X117125400Y-62742500D03*
X116325400Y-62742500D03*
X115525400Y-62742500D03*
X114725400Y-62742500D03*
X113925400Y-62742500D03*
X113125400Y-62742500D03*
X112325400Y-62742500D03*
X111525400Y-62742500D03*
D23*
X110075400Y-64192500D03*
X110075400Y-64992500D03*
X110075400Y-65792500D03*
X110075400Y-66592500D03*
X110075400Y-67392500D03*
X110075400Y-68192500D03*
X110075400Y-68992500D03*
X110075400Y-69792500D03*
D24*
X111525400Y-71242500D03*
X112325400Y-71242500D03*
X113125400Y-71242500D03*
X113925400Y-71242500D03*
X114725400Y-71242500D03*
X115525400Y-71242500D03*
X116325400Y-71242500D03*
X117125400Y-71242500D03*
D25*
X167528240Y-81081880D03*
X136408160Y-87111840D03*
X170611800Y-91897200D03*
X140108940Y-92834460D03*
X123733560Y-98877120D03*
D16*
X127099060Y-102260400D03*
D17*
X124559060Y-102260400D03*
D16*
X126095760Y-48920400D03*
D17*
X128635760Y-48920400D03*
X131175760Y-48920400D03*
X133715760Y-48920400D03*
D16*
X170750000Y-48700000D03*
X127109220Y-105918000D03*
X105752900Y-48933100D03*
D17*
X103212900Y-48933100D03*
X100672900Y-48933100D03*
X98132900Y-48933100D03*
D26*
X179825000Y-105268800D03*
X179825000Y-109231200D03*
X179650000Y-58418800D03*
X179650000Y-62381200D03*
X179847240Y-92720160D03*
X179847240Y-96682560D03*
X93325000Y-101831200D03*
X93325000Y-97868800D03*
D14*
X119893080Y-90038240D03*
X119893080Y-87538240D03*
D27*
X111998760Y-104998920D03*
D28*
X111998760Y-98698920D03*
X109698760Y-98698920D03*
X114298760Y-98698920D03*
D25*
X100360480Y-104729280D03*
D29*
X144792700Y-52694840D03*
X148752560Y-52694840D03*
X152712420Y-52694840D03*
D19*
X141243060Y-73502520D03*
X143943060Y-73502520D03*
D18*
X133852920Y-62287160D03*
X133852920Y-64987160D03*
D30*
X141244320Y-70591680D03*
D31*
X151404320Y-70591680D03*
D30*
X136822180Y-64988440D03*
D31*
X136822180Y-54828440D03*
D32*
X141236700Y-65938400D03*
D33*
X161556700Y-65938400D03*
D32*
X161577020Y-60601860D03*
D33*
X141257020Y-60601860D03*
D34*
X124500000Y-62775000D03*
X122900000Y-62775000D03*
D35*
X177860000Y-70710000D03*
X182940000Y-70710000D03*
X182940000Y-75790000D03*
X177860000Y-75790000D03*
D36*
X180400000Y-73250000D03*
D35*
X177885000Y-81160000D03*
X182965000Y-81160000D03*
X182965000Y-86240000D03*
X177885000Y-86240000D03*
D36*
X180425000Y-83700000D03*
D14*
X165625000Y-51825000D03*
X165625000Y-54325000D03*
D16*
X92350000Y-87400000D03*
D17*
X94890000Y-87400000D03*
X92350000Y-84860000D03*
X94890000Y-84860000D03*
X92350000Y-82320000D03*
X94890000Y-82320000D03*
X92350000Y-79780000D03*
X94890000Y-79780000D03*
D16*
X158000000Y-48800000D03*
D17*
X160540000Y-48800000D03*
X163080000Y-48800000D03*
X165620000Y-48800000D03*
D37*
X100660000Y-118870000D03*
X103200000Y-118870000D03*
X105740000Y-118870000D03*
X108280000Y-118870000D03*
X110820000Y-118870000D03*
X113360000Y-118870000D03*
X115900000Y-118870000D03*
X118440000Y-118870000D03*
X120980000Y-118870000D03*
X123520000Y-118870000D03*
X126060000Y-118870000D03*
X128600000Y-118870000D03*
X131140000Y-118870000D03*
X133680000Y-118870000D03*
X136220000Y-118870000D03*
X138760000Y-118870000D03*
X141300000Y-118870000D03*
X143840000Y-118870000D03*
X146380000Y-118870000D03*
X148920000Y-118870000D03*
X151460000Y-118870000D03*
X154000000Y-118870000D03*
X156540000Y-118870000D03*
X159080000Y-118870000D03*
X161620000Y-118870000D03*
X164160000Y-118870000D03*
X166700000Y-118870000D03*
X169240000Y-118870000D03*
X171780000Y-118870000D03*
X174320000Y-118870000D03*
X100660000Y-121410000D03*
X103200000Y-121410000D03*
X105740000Y-121410000D03*
X108280000Y-121410000D03*
X110820000Y-121410000D03*
X113360000Y-121410000D03*
X115900000Y-121410000D03*
X118440000Y-121410000D03*
X120980000Y-121410000D03*
X123520000Y-121410000D03*
X126060000Y-121410000D03*
X128600000Y-121410000D03*
X131140000Y-121410000D03*
X133680000Y-121410000D03*
X136220000Y-121410000D03*
X138760000Y-121410000D03*
X141300000Y-121410000D03*
X143840000Y-121410000D03*
X146380000Y-121410000D03*
X148920000Y-121410000D03*
X151460000Y-121410000D03*
X154000000Y-121410000D03*
X156540000Y-121410000D03*
X159080000Y-121410000D03*
X161620000Y-121410000D03*
X164160000Y-121410000D03*
X166700000Y-121410000D03*
X169240000Y-121410000D03*
X171780000Y-121410000D03*
X174320000Y-121410000D03*
X100660000Y-123950000D03*
X103200000Y-123950000D03*
X105740000Y-123950000D03*
X108280000Y-123950000D03*
X110820000Y-123950000D03*
X113360000Y-123950000D03*
X115900000Y-123950000D03*
X118440000Y-123950000D03*
X120980000Y-123950000D03*
X123520000Y-123950000D03*
X126060000Y-123950000D03*
X128600000Y-123950000D03*
X131140000Y-123950000D03*
X133680000Y-123950000D03*
X136220000Y-123950000D03*
X138760000Y-123950000D03*
X141300000Y-123950000D03*
X143840000Y-123950000D03*
X146380000Y-123950000D03*
X148920000Y-123950000D03*
X151460000Y-123950000D03*
X154000000Y-123950000D03*
X156540000Y-123950000D03*
X159080000Y-123950000D03*
X161620000Y-123950000D03*
X164160000Y-123950000D03*
X166700000Y-123950000D03*
X169240000Y-123950000D03*
X171780000Y-123950000D03*
X174320000Y-123950000D03*
X100660000Y-126490000D03*
X103200000Y-126490000D03*
X105740000Y-126490000D03*
X108280000Y-126490000D03*
X110820000Y-126490000D03*
X113360000Y-126490000D03*
X115900000Y-126490000D03*
X118440000Y-126490000D03*
X120980000Y-126490000D03*
X123520000Y-126490000D03*
X126060000Y-126490000D03*
X128600000Y-126490000D03*
X131140000Y-126490000D03*
X133680000Y-126490000D03*
X136220000Y-126490000D03*
X138760000Y-126490000D03*
X141300000Y-126490000D03*
X143840000Y-126490000D03*
X146380000Y-126490000D03*
X148920000Y-126490000D03*
X151460000Y-126490000D03*
X154000000Y-126490000D03*
X156540000Y-126490000D03*
X159080000Y-126490000D03*
X161620000Y-126490000D03*
X164160000Y-126490000D03*
X166700000Y-126490000D03*
X169240000Y-126490000D03*
X171780000Y-126490000D03*
X174320000Y-126490000D03*
X100660000Y-129030000D03*
X103200000Y-129030000D03*
X105740000Y-129030000D03*
X108280000Y-129030000D03*
X110820000Y-129030000D03*
X113360000Y-129030000D03*
X115900000Y-129030000D03*
X118440000Y-129030000D03*
X120980000Y-129030000D03*
X123520000Y-129030000D03*
X126060000Y-129030000D03*
X128600000Y-129030000D03*
X131140000Y-129030000D03*
X133680000Y-129030000D03*
X136220000Y-129030000D03*
X138760000Y-129030000D03*
X141300000Y-129030000D03*
X143840000Y-129030000D03*
X146380000Y-129030000D03*
X148920000Y-129030000D03*
X151460000Y-129030000D03*
X154000000Y-129030000D03*
X156540000Y-129030000D03*
X159080000Y-129030000D03*
X161620000Y-129030000D03*
X164160000Y-129030000D03*
X166700000Y-129030000D03*
X169240000Y-129030000D03*
X171780000Y-129030000D03*
X174320000Y-129030000D03*
X100660000Y-131570000D03*
X103200000Y-131570000D03*
X105740000Y-131570000D03*
X108280000Y-131570000D03*
X110820000Y-131570000D03*
X113360000Y-131570000D03*
X115900000Y-131570000D03*
X118440000Y-131570000D03*
X120980000Y-131570000D03*
X123520000Y-131570000D03*
X126060000Y-131570000D03*
X128600000Y-131570000D03*
X131140000Y-131570000D03*
X133680000Y-131570000D03*
X136220000Y-131570000D03*
X138760000Y-131570000D03*
X141300000Y-131570000D03*
X143840000Y-131570000D03*
X146380000Y-131570000D03*
X148920000Y-131570000D03*
X151460000Y-131570000D03*
X154000000Y-131570000D03*
X156540000Y-131570000D03*
X159080000Y-131570000D03*
X161620000Y-131570000D03*
X164160000Y-131570000D03*
X166700000Y-131570000D03*
X169240000Y-131570000D03*
X171780000Y-131570000D03*
X174320000Y-131570000D03*
X100660000Y-134110000D03*
X103200000Y-134110000D03*
X105740000Y-134110000D03*
X108280000Y-134110000D03*
X110820000Y-134110000D03*
X113360000Y-134110000D03*
X115900000Y-134110000D03*
X118440000Y-134110000D03*
X120980000Y-134110000D03*
X123520000Y-134110000D03*
X126060000Y-134110000D03*
X128600000Y-134110000D03*
X131140000Y-134110000D03*
X133680000Y-134110000D03*
X136220000Y-134110000D03*
X138760000Y-134110000D03*
X141300000Y-134110000D03*
X143840000Y-134110000D03*
X146380000Y-134110000D03*
X148920000Y-134110000D03*
X151460000Y-134110000D03*
X154000000Y-134110000D03*
X156540000Y-134110000D03*
X159080000Y-134110000D03*
X161620000Y-134110000D03*
X164160000Y-134110000D03*
X166700000Y-134110000D03*
X169240000Y-134110000D03*
X171780000Y-134110000D03*
X174320000Y-134110000D03*
X100660000Y-136650000D03*
X103200000Y-136650000D03*
X105740000Y-136650000D03*
X108280000Y-136650000D03*
X110820000Y-136650000D03*
X113360000Y-136650000D03*
X115900000Y-136650000D03*
X118440000Y-136650000D03*
X120980000Y-136650000D03*
X123520000Y-136650000D03*
X126060000Y-136650000D03*
X128600000Y-136650000D03*
X131140000Y-136650000D03*
X133680000Y-136650000D03*
X136220000Y-136650000D03*
X138760000Y-136650000D03*
X141300000Y-136650000D03*
X143840000Y-136650000D03*
X146380000Y-136650000D03*
X148920000Y-136650000D03*
X151460000Y-136650000D03*
X154000000Y-136650000D03*
X156540000Y-136650000D03*
X159080000Y-136650000D03*
X161620000Y-136650000D03*
X164160000Y-136650000D03*
X166700000Y-136650000D03*
X169240000Y-136650000D03*
X171780000Y-136650000D03*
X174320000Y-136650000D03*
X100660000Y-139190000D03*
X103200000Y-139190000D03*
X105740000Y-139190000D03*
X108280000Y-139190000D03*
X110820000Y-139190000D03*
X113360000Y-139190000D03*
X115900000Y-139190000D03*
X118440000Y-139190000D03*
X120980000Y-139190000D03*
X123520000Y-139190000D03*
X126060000Y-139190000D03*
X128600000Y-139190000D03*
X131140000Y-139190000D03*
X133680000Y-139190000D03*
X136220000Y-139190000D03*
X138760000Y-139190000D03*
X141300000Y-139190000D03*
X143840000Y-139190000D03*
X146380000Y-139190000D03*
X148920000Y-139190000D03*
X151460000Y-139190000D03*
X154000000Y-139190000D03*
X156540000Y-139190000D03*
X159080000Y-139190000D03*
X161620000Y-139190000D03*
X164160000Y-139190000D03*
X166700000Y-139190000D03*
X169240000Y-139190000D03*
X171780000Y-139190000D03*
X174320000Y-139190000D03*
X100660000Y-141730000D03*
X103200000Y-141730000D03*
X105740000Y-141730000D03*
X108280000Y-141730000D03*
X110820000Y-141730000D03*
X113360000Y-141730000D03*
X115900000Y-141730000D03*
X118440000Y-141730000D03*
X120980000Y-141730000D03*
X123520000Y-141730000D03*
X126060000Y-141730000D03*
X128600000Y-141730000D03*
X131140000Y-141730000D03*
X133680000Y-141730000D03*
X136220000Y-141730000D03*
X138760000Y-141730000D03*
X141300000Y-141730000D03*
X143840000Y-141730000D03*
X146380000Y-141730000D03*
X148920000Y-141730000D03*
X151460000Y-141730000D03*
X154000000Y-141730000D03*
X156540000Y-141730000D03*
X159080000Y-141730000D03*
X161620000Y-141730000D03*
X164160000Y-141730000D03*
X166700000Y-141730000D03*
X169240000Y-141730000D03*
X171780000Y-141730000D03*
X174320000Y-141730000D03*
D38*
X91563200Y-50212000D03*
D39*
X93963200Y-50212000D03*
X93260256Y-51909056D03*
X91563200Y-52612000D03*
X89866144Y-51909056D03*
X89163200Y-50212000D03*
X89866144Y-48514944D03*
X91563200Y-47812000D03*
X93260256Y-48514944D03*
D38*
X181563200Y-50212000D03*
D39*
X183963200Y-50212000D03*
X183260256Y-51909056D03*
X181563200Y-52612000D03*
X179866144Y-51909056D03*
X179163200Y-50212000D03*
X179866144Y-48514944D03*
X181563200Y-47812000D03*
X183260256Y-48514944D03*
D38*
X91563200Y-140212000D03*
D39*
X93963200Y-140212000D03*
X93260256Y-141909056D03*
X91563200Y-142612000D03*
X89866144Y-141909056D03*
X89163200Y-140212000D03*
X89866144Y-138514944D03*
X91563200Y-137812000D03*
X93260256Y-138514944D03*
D38*
X181563200Y-140212000D03*
D39*
X183963200Y-140212000D03*
X183260256Y-141909056D03*
X181563200Y-142612000D03*
X179866144Y-141909056D03*
X179163200Y-140212000D03*
X179866144Y-138514944D03*
X181563200Y-137812000D03*
X183260256Y-138514944D03*
D15*
X100310000Y-59350000D03*
X100310000Y-57150000D03*
D19*
X100320000Y-61190000D03*
X103020000Y-61190000D03*
M02*
