G04 #@! TF.FileFunction,Legend,Top*
%FSLAX46Y46*%
G04 Gerber Fmt 4.6, Leading zero omitted, Abs format (unit mm)*
G04 Created by KiCad (PCBNEW 4.0.2-stable) date 03/10/2017 19:28:31*
%MOMM*%
G01*
G04 APERTURE LIST*
%ADD10C,0.100000*%
%ADD11C,0.250000*%
%ADD12C,0.150000*%
%ADD13C,0.120000*%
G04 APERTURE END LIST*
D10*
D11*
X130252857Y-115822381D02*
X130252857Y-116631905D01*
X130300476Y-116727143D01*
X130348095Y-116774762D01*
X130443333Y-116822381D01*
X130633810Y-116822381D01*
X130729048Y-116774762D01*
X130776667Y-116727143D01*
X130824286Y-116631905D01*
X130824286Y-115822381D01*
X131300476Y-116822381D02*
X131300476Y-115822381D01*
X131871905Y-116822381D01*
X131871905Y-115822381D01*
X132348095Y-116822381D02*
X132348095Y-115822381D01*
X132681428Y-115822381D02*
X133014761Y-116822381D01*
X133348095Y-115822381D01*
X133681428Y-116298571D02*
X134014762Y-116298571D01*
X134157619Y-116822381D02*
X133681428Y-116822381D01*
X133681428Y-115822381D01*
X134157619Y-115822381D01*
X135157619Y-116822381D02*
X134824285Y-116346190D01*
X134586190Y-116822381D02*
X134586190Y-115822381D01*
X134967143Y-115822381D01*
X135062381Y-115870000D01*
X135110000Y-115917619D01*
X135157619Y-116012857D01*
X135157619Y-116155714D01*
X135110000Y-116250952D01*
X135062381Y-116298571D01*
X134967143Y-116346190D01*
X134586190Y-116346190D01*
X135538571Y-116774762D02*
X135681428Y-116822381D01*
X135919524Y-116822381D01*
X136014762Y-116774762D01*
X136062381Y-116727143D01*
X136110000Y-116631905D01*
X136110000Y-116536667D01*
X136062381Y-116441429D01*
X136014762Y-116393810D01*
X135919524Y-116346190D01*
X135729047Y-116298571D01*
X135633809Y-116250952D01*
X135586190Y-116203333D01*
X135538571Y-116108095D01*
X135538571Y-116012857D01*
X135586190Y-115917619D01*
X135633809Y-115870000D01*
X135729047Y-115822381D01*
X135967143Y-115822381D01*
X136110000Y-115870000D01*
X136490952Y-116536667D02*
X136967143Y-116536667D01*
X136395714Y-116822381D02*
X136729047Y-115822381D01*
X137062381Y-116822381D01*
X137871905Y-116822381D02*
X137395714Y-116822381D01*
X137395714Y-115822381D01*
X137967143Y-116917619D02*
X138729048Y-116917619D01*
X138967143Y-116822381D02*
X138967143Y-115822381D01*
X139348096Y-115822381D01*
X139443334Y-115870000D01*
X139490953Y-115917619D01*
X139538572Y-116012857D01*
X139538572Y-116155714D01*
X139490953Y-116250952D01*
X139443334Y-116298571D01*
X139348096Y-116346190D01*
X138967143Y-116346190D01*
X139967143Y-116822381D02*
X139967143Y-115822381D01*
X140443333Y-116822381D02*
X140443333Y-115822381D01*
X141014762Y-116822381D01*
X141014762Y-115822381D01*
X141443333Y-116774762D02*
X141586190Y-116822381D01*
X141824286Y-116822381D01*
X141919524Y-116774762D01*
X141967143Y-116727143D01*
X142014762Y-116631905D01*
X142014762Y-116536667D01*
X141967143Y-116441429D01*
X141919524Y-116393810D01*
X141824286Y-116346190D01*
X141633809Y-116298571D01*
X141538571Y-116250952D01*
X141490952Y-116203333D01*
X141443333Y-116108095D01*
X141443333Y-116012857D01*
X141490952Y-115917619D01*
X141538571Y-115870000D01*
X141633809Y-115822381D01*
X141871905Y-115822381D01*
X142014762Y-115870000D01*
X115964762Y-75900476D02*
X116012381Y-75757619D01*
X116012381Y-75519523D01*
X115964762Y-75424285D01*
X115917143Y-75376666D01*
X115821905Y-75329047D01*
X115726667Y-75329047D01*
X115631429Y-75376666D01*
X115583810Y-75424285D01*
X115536190Y-75519523D01*
X115488571Y-75710000D01*
X115440952Y-75805238D01*
X115393333Y-75852857D01*
X115298095Y-75900476D01*
X115202857Y-75900476D01*
X115107619Y-75852857D01*
X115060000Y-75805238D01*
X115012381Y-75710000D01*
X115012381Y-75471904D01*
X115060000Y-75329047D01*
X115917143Y-74329047D02*
X115964762Y-74376666D01*
X116012381Y-74519523D01*
X116012381Y-74614761D01*
X115964762Y-74757619D01*
X115869524Y-74852857D01*
X115774286Y-74900476D01*
X115583810Y-74948095D01*
X115440952Y-74948095D01*
X115250476Y-74900476D01*
X115155238Y-74852857D01*
X115060000Y-74757619D01*
X115012381Y-74614761D01*
X115012381Y-74519523D01*
X115060000Y-74376666D01*
X115107619Y-74329047D01*
X116012381Y-73424285D02*
X116012381Y-73900476D01*
X115012381Y-73900476D01*
X111854762Y-76014286D02*
X111902381Y-75871429D01*
X111902381Y-75633333D01*
X111854762Y-75538095D01*
X111807143Y-75490476D01*
X111711905Y-75442857D01*
X111616667Y-75442857D01*
X111521429Y-75490476D01*
X111473810Y-75538095D01*
X111426190Y-75633333D01*
X111378571Y-75823810D01*
X111330952Y-75919048D01*
X111283333Y-75966667D01*
X111188095Y-76014286D01*
X111092857Y-76014286D01*
X110997619Y-75966667D01*
X110950000Y-75919048D01*
X110902381Y-75823810D01*
X110902381Y-75585714D01*
X110950000Y-75442857D01*
X111902381Y-75014286D02*
X110902381Y-75014286D01*
X110902381Y-74776191D01*
X110950000Y-74633333D01*
X111045238Y-74538095D01*
X111140476Y-74490476D01*
X111330952Y-74442857D01*
X111473810Y-74442857D01*
X111664286Y-74490476D01*
X111759524Y-74538095D01*
X111854762Y-74633333D01*
X111902381Y-74776191D01*
X111902381Y-75014286D01*
X111616667Y-74061905D02*
X111616667Y-73585714D01*
X111902381Y-74157143D02*
X110902381Y-73823810D01*
X111902381Y-73490476D01*
X106294762Y-52911905D02*
X106342381Y-52769048D01*
X106342381Y-52530952D01*
X106294762Y-52435714D01*
X106247143Y-52388095D01*
X106151905Y-52340476D01*
X106056667Y-52340476D01*
X105961429Y-52388095D01*
X105913810Y-52435714D01*
X105866190Y-52530952D01*
X105818571Y-52721429D01*
X105770952Y-52816667D01*
X105723333Y-52864286D01*
X105628095Y-52911905D01*
X105532857Y-52911905D01*
X105437619Y-52864286D01*
X105390000Y-52816667D01*
X105342381Y-52721429D01*
X105342381Y-52483333D01*
X105390000Y-52340476D01*
X106294762Y-51959524D02*
X106342381Y-51816667D01*
X106342381Y-51578571D01*
X106294762Y-51483333D01*
X106247143Y-51435714D01*
X106151905Y-51388095D01*
X106056667Y-51388095D01*
X105961429Y-51435714D01*
X105913810Y-51483333D01*
X105866190Y-51578571D01*
X105818571Y-51769048D01*
X105770952Y-51864286D01*
X105723333Y-51911905D01*
X105628095Y-51959524D01*
X105532857Y-51959524D01*
X105437619Y-51911905D01*
X105390000Y-51864286D01*
X105342381Y-51769048D01*
X105342381Y-51530952D01*
X105390000Y-51388095D01*
X105170000Y-53102381D02*
X105170000Y-51197619D01*
X103752381Y-54351428D02*
X102752381Y-54351428D01*
X103466667Y-54018094D01*
X102752381Y-53684761D01*
X103752381Y-53684761D01*
X102752381Y-53018095D02*
X102752381Y-52827618D01*
X102800000Y-52732380D01*
X102895238Y-52637142D01*
X103085714Y-52589523D01*
X103419048Y-52589523D01*
X103609524Y-52637142D01*
X103704762Y-52732380D01*
X103752381Y-52827618D01*
X103752381Y-53018095D01*
X103704762Y-53113333D01*
X103609524Y-53208571D01*
X103419048Y-53256190D01*
X103085714Y-53256190D01*
X102895238Y-53208571D01*
X102800000Y-53113333D01*
X102752381Y-53018095D01*
X103704762Y-52208571D02*
X103752381Y-52065714D01*
X103752381Y-51827618D01*
X103704762Y-51732380D01*
X103657143Y-51684761D01*
X103561905Y-51637142D01*
X103466667Y-51637142D01*
X103371429Y-51684761D01*
X103323810Y-51732380D01*
X103276190Y-51827618D01*
X103228571Y-52018095D01*
X103180952Y-52113333D01*
X103133333Y-52160952D01*
X103038095Y-52208571D01*
X102942857Y-52208571D01*
X102847619Y-52160952D01*
X102800000Y-52113333D01*
X102752381Y-52018095D01*
X102752381Y-51779999D01*
X102800000Y-51637142D01*
X103752381Y-51208571D02*
X102752381Y-51208571D01*
X101202381Y-54291428D02*
X100202381Y-54291428D01*
X100916667Y-53958094D01*
X100202381Y-53624761D01*
X101202381Y-53624761D01*
X101202381Y-53148571D02*
X100202381Y-53148571D01*
X101154762Y-52720000D02*
X101202381Y-52577143D01*
X101202381Y-52339047D01*
X101154762Y-52243809D01*
X101107143Y-52196190D01*
X101011905Y-52148571D01*
X100916667Y-52148571D01*
X100821429Y-52196190D01*
X100773810Y-52243809D01*
X100726190Y-52339047D01*
X100678571Y-52529524D01*
X100630952Y-52624762D01*
X100583333Y-52672381D01*
X100488095Y-52720000D01*
X100392857Y-52720000D01*
X100297619Y-52672381D01*
X100250000Y-52624762D01*
X100202381Y-52529524D01*
X100202381Y-52291428D01*
X100250000Y-52148571D01*
X100202381Y-51529524D02*
X100202381Y-51339047D01*
X100250000Y-51243809D01*
X100345238Y-51148571D01*
X100535714Y-51100952D01*
X100869048Y-51100952D01*
X101059524Y-51148571D01*
X101154762Y-51243809D01*
X101202381Y-51339047D01*
X101202381Y-51529524D01*
X101154762Y-51624762D01*
X101059524Y-51720000D01*
X100869048Y-51767619D01*
X100535714Y-51767619D01*
X100345238Y-51720000D01*
X100250000Y-51624762D01*
X100202381Y-51529524D01*
X98614762Y-53645714D02*
X98662381Y-53502857D01*
X98662381Y-53264761D01*
X98614762Y-53169523D01*
X98567143Y-53121904D01*
X98471905Y-53074285D01*
X98376667Y-53074285D01*
X98281429Y-53121904D01*
X98233810Y-53169523D01*
X98186190Y-53264761D01*
X98138571Y-53455238D01*
X98090952Y-53550476D01*
X98043333Y-53598095D01*
X97948095Y-53645714D01*
X97852857Y-53645714D01*
X97757619Y-53598095D01*
X97710000Y-53550476D01*
X97662381Y-53455238D01*
X97662381Y-53217142D01*
X97710000Y-53074285D01*
X98567143Y-52074285D02*
X98614762Y-52121904D01*
X98662381Y-52264761D01*
X98662381Y-52359999D01*
X98614762Y-52502857D01*
X98519524Y-52598095D01*
X98424286Y-52645714D01*
X98233810Y-52693333D01*
X98090952Y-52693333D01*
X97900476Y-52645714D01*
X97805238Y-52598095D01*
X97710000Y-52502857D01*
X97662381Y-52359999D01*
X97662381Y-52264761D01*
X97710000Y-52121904D01*
X97757619Y-52074285D01*
X98662381Y-51645714D02*
X97662381Y-51645714D01*
X98662381Y-51074285D02*
X98090952Y-51502857D01*
X97662381Y-51074285D02*
X98233810Y-51645714D01*
X116958571Y-55485238D02*
X116958571Y-55151904D01*
X117482381Y-55009047D02*
X117482381Y-55485238D01*
X116482381Y-55485238D01*
X116482381Y-55009047D01*
X117482381Y-54580476D02*
X116482381Y-54580476D01*
X117482381Y-54009047D01*
X116482381Y-54009047D01*
X117387143Y-52961428D02*
X117434762Y-53009047D01*
X117482381Y-53151904D01*
X117482381Y-53247142D01*
X117434762Y-53390000D01*
X117339524Y-53485238D01*
X117244286Y-53532857D01*
X117053810Y-53580476D01*
X116910952Y-53580476D01*
X116720476Y-53532857D01*
X116625238Y-53485238D01*
X116530000Y-53390000D01*
X116482381Y-53247142D01*
X116482381Y-53151904D01*
X116530000Y-53009047D01*
X116577619Y-52961428D01*
X117577619Y-52770952D02*
X117577619Y-52009047D01*
X117482381Y-51247142D02*
X117482381Y-51818571D01*
X117482381Y-51532857D02*
X116482381Y-51532857D01*
X116625238Y-51628095D01*
X116720476Y-51723333D01*
X116768095Y-51818571D01*
X114398571Y-55495238D02*
X114398571Y-55161904D01*
X114922381Y-55019047D02*
X114922381Y-55495238D01*
X113922381Y-55495238D01*
X113922381Y-55019047D01*
X114922381Y-54590476D02*
X113922381Y-54590476D01*
X114922381Y-54019047D01*
X113922381Y-54019047D01*
X114827143Y-52971428D02*
X114874762Y-53019047D01*
X114922381Y-53161904D01*
X114922381Y-53257142D01*
X114874762Y-53400000D01*
X114779524Y-53495238D01*
X114684286Y-53542857D01*
X114493810Y-53590476D01*
X114350952Y-53590476D01*
X114160476Y-53542857D01*
X114065238Y-53495238D01*
X113970000Y-53400000D01*
X113922381Y-53257142D01*
X113922381Y-53161904D01*
X113970000Y-53019047D01*
X114017619Y-52971428D01*
X115017619Y-52780952D02*
X115017619Y-52019047D01*
X114017619Y-51828571D02*
X113970000Y-51780952D01*
X113922381Y-51685714D01*
X113922381Y-51447618D01*
X113970000Y-51352380D01*
X114017619Y-51304761D01*
X114112857Y-51257142D01*
X114208095Y-51257142D01*
X114350952Y-51304761D01*
X114922381Y-51876190D01*
X114922381Y-51257142D01*
X119132381Y-52280476D02*
X119132381Y-52756667D01*
X119608571Y-52804286D01*
X119560952Y-52756667D01*
X119513333Y-52661429D01*
X119513333Y-52423333D01*
X119560952Y-52328095D01*
X119608571Y-52280476D01*
X119703810Y-52232857D01*
X119941905Y-52232857D01*
X120037143Y-52280476D01*
X120084762Y-52328095D01*
X120132381Y-52423333D01*
X120132381Y-52661429D01*
X120084762Y-52756667D01*
X120037143Y-52804286D01*
X119132381Y-51947143D02*
X120132381Y-51613810D01*
X119132381Y-51280476D01*
X128812381Y-53766190D02*
X128336190Y-54099524D01*
X128812381Y-54337619D02*
X127812381Y-54337619D01*
X127812381Y-53956666D01*
X127860000Y-53861428D01*
X127907619Y-53813809D01*
X128002857Y-53766190D01*
X128145714Y-53766190D01*
X128240952Y-53813809D01*
X128288571Y-53861428D01*
X128336190Y-53956666D01*
X128336190Y-54337619D01*
X127812381Y-53432857D02*
X128812381Y-52766190D01*
X127812381Y-52766190D02*
X128812381Y-53432857D01*
X128907619Y-52623333D02*
X128907619Y-51861428D01*
X127812381Y-51766190D02*
X128812381Y-51432857D01*
X127812381Y-51099523D01*
X130392381Y-54061429D02*
X130392381Y-53490000D01*
X131392381Y-53775715D02*
X130392381Y-53775715D01*
X130392381Y-53251905D02*
X131392381Y-52585238D01*
X130392381Y-52585238D02*
X131392381Y-53251905D01*
X131487619Y-52442381D02*
X131487619Y-51680476D01*
X130392381Y-51585238D02*
X131392381Y-51251905D01*
X130392381Y-50918571D01*
X125642381Y-52110476D02*
X125642381Y-52586667D01*
X126118571Y-52634286D01*
X126070952Y-52586667D01*
X126023333Y-52491429D01*
X126023333Y-52253333D01*
X126070952Y-52158095D01*
X126118571Y-52110476D01*
X126213810Y-52062857D01*
X126451905Y-52062857D01*
X126547143Y-52110476D01*
X126594762Y-52158095D01*
X126642381Y-52253333D01*
X126642381Y-52491429D01*
X126594762Y-52586667D01*
X126547143Y-52634286D01*
X125642381Y-51777143D02*
X126642381Y-51443810D01*
X125642381Y-51110476D01*
X95484762Y-92064286D02*
X95532381Y-91921429D01*
X95532381Y-91683333D01*
X95484762Y-91588095D01*
X95437143Y-91540476D01*
X95341905Y-91492857D01*
X95246667Y-91492857D01*
X95151429Y-91540476D01*
X95103810Y-91588095D01*
X95056190Y-91683333D01*
X95008571Y-91873810D01*
X94960952Y-91969048D01*
X94913333Y-92016667D01*
X94818095Y-92064286D01*
X94722857Y-92064286D01*
X94627619Y-92016667D01*
X94580000Y-91969048D01*
X94532381Y-91873810D01*
X94532381Y-91635714D01*
X94580000Y-91492857D01*
X95532381Y-91064286D02*
X94532381Y-91064286D01*
X94532381Y-90826191D01*
X94580000Y-90683333D01*
X94675238Y-90588095D01*
X94770476Y-90540476D01*
X94960952Y-90492857D01*
X95103810Y-90492857D01*
X95294286Y-90540476D01*
X95389524Y-90588095D01*
X95484762Y-90683333D01*
X95532381Y-90826191D01*
X95532381Y-91064286D01*
X95246667Y-90111905D02*
X95246667Y-89635714D01*
X95532381Y-90207143D02*
X94532381Y-89873810D01*
X95532381Y-89540476D01*
X92804762Y-92020476D02*
X92852381Y-91877619D01*
X92852381Y-91639523D01*
X92804762Y-91544285D01*
X92757143Y-91496666D01*
X92661905Y-91449047D01*
X92566667Y-91449047D01*
X92471429Y-91496666D01*
X92423810Y-91544285D01*
X92376190Y-91639523D01*
X92328571Y-91830000D01*
X92280952Y-91925238D01*
X92233333Y-91972857D01*
X92138095Y-92020476D01*
X92042857Y-92020476D01*
X91947619Y-91972857D01*
X91900000Y-91925238D01*
X91852381Y-91830000D01*
X91852381Y-91591904D01*
X91900000Y-91449047D01*
X92757143Y-90449047D02*
X92804762Y-90496666D01*
X92852381Y-90639523D01*
X92852381Y-90734761D01*
X92804762Y-90877619D01*
X92709524Y-90972857D01*
X92614286Y-91020476D01*
X92423810Y-91068095D01*
X92280952Y-91068095D01*
X92090476Y-91020476D01*
X91995238Y-90972857D01*
X91900000Y-90877619D01*
X91852381Y-90734761D01*
X91852381Y-90639523D01*
X91900000Y-90496666D01*
X91947619Y-90449047D01*
X92852381Y-89544285D02*
X92852381Y-90020476D01*
X91852381Y-90020476D01*
X90053809Y-104142381D02*
X90387142Y-105142381D01*
X90720476Y-104142381D01*
X90815714Y-105237619D02*
X91577619Y-105237619D01*
X92149048Y-104618571D02*
X91815714Y-104618571D01*
X91815714Y-105142381D02*
X91815714Y-104142381D01*
X92291905Y-104142381D01*
X92672857Y-104142381D02*
X92672857Y-104951905D01*
X92720476Y-105047143D01*
X92768095Y-105094762D01*
X92863333Y-105142381D01*
X93053810Y-105142381D01*
X93149048Y-105094762D01*
X93196667Y-105047143D01*
X93244286Y-104951905D01*
X93244286Y-104142381D01*
X93720476Y-104618571D02*
X94053810Y-104618571D01*
X94196667Y-105142381D02*
X93720476Y-105142381D01*
X93720476Y-104142381D01*
X94196667Y-104142381D01*
X94625238Y-105142381D02*
X94625238Y-104142381D01*
X95196667Y-105142381D01*
X95196667Y-104142381D01*
X95530000Y-104142381D02*
X96101429Y-104142381D01*
X95815714Y-105142381D02*
X95815714Y-104142381D01*
X96434762Y-104618571D02*
X96768096Y-104618571D01*
X96910953Y-105142381D02*
X96434762Y-105142381D01*
X96434762Y-104142381D01*
X96910953Y-104142381D01*
X130399524Y-101602381D02*
X129923333Y-101602381D01*
X129875714Y-102078571D01*
X129923333Y-102030952D01*
X130018571Y-101983333D01*
X130256667Y-101983333D01*
X130351905Y-102030952D01*
X130399524Y-102078571D01*
X130447143Y-102173810D01*
X130447143Y-102411905D01*
X130399524Y-102507143D01*
X130351905Y-102554762D01*
X130256667Y-102602381D01*
X130018571Y-102602381D01*
X129923333Y-102554762D01*
X129875714Y-102507143D01*
X130732857Y-101602381D02*
X131066190Y-102602381D01*
X131399524Y-101602381D01*
X169553810Y-80138571D02*
X169696667Y-80186190D01*
X169744286Y-80233810D01*
X169791905Y-80329048D01*
X169791905Y-80471905D01*
X169744286Y-80567143D01*
X169696667Y-80614762D01*
X169601429Y-80662381D01*
X169220476Y-80662381D01*
X169220476Y-79662381D01*
X169553810Y-79662381D01*
X169649048Y-79710000D01*
X169696667Y-79757619D01*
X169744286Y-79852857D01*
X169744286Y-79948095D01*
X169696667Y-80043333D01*
X169649048Y-80090952D01*
X169553810Y-80138571D01*
X169220476Y-80138571D01*
X170220476Y-80662381D02*
X170220476Y-79662381D01*
X170887142Y-79662381D02*
X171077619Y-79662381D01*
X171172857Y-79710000D01*
X171268095Y-79805238D01*
X171315714Y-79995714D01*
X171315714Y-80329048D01*
X171268095Y-80519524D01*
X171172857Y-80614762D01*
X171077619Y-80662381D01*
X170887142Y-80662381D01*
X170791904Y-80614762D01*
X170696666Y-80519524D01*
X170649047Y-80329048D01*
X170649047Y-79995714D01*
X170696666Y-79805238D01*
X170791904Y-79710000D01*
X170887142Y-79662381D01*
X171506190Y-80757619D02*
X172268095Y-80757619D01*
X172696666Y-79662381D02*
X172887143Y-79662381D01*
X172982381Y-79710000D01*
X173077619Y-79805238D01*
X173125238Y-79995714D01*
X173125238Y-80329048D01*
X173077619Y-80519524D01*
X172982381Y-80614762D01*
X172887143Y-80662381D01*
X172696666Y-80662381D01*
X172601428Y-80614762D01*
X172506190Y-80519524D01*
X172458571Y-80329048D01*
X172458571Y-79995714D01*
X172506190Y-79805238D01*
X172601428Y-79710000D01*
X172696666Y-79662381D01*
X173553809Y-79662381D02*
X173553809Y-80471905D01*
X173601428Y-80567143D01*
X173649047Y-80614762D01*
X173744285Y-80662381D01*
X173934762Y-80662381D01*
X174030000Y-80614762D01*
X174077619Y-80567143D01*
X174125238Y-80471905D01*
X174125238Y-79662381D01*
X174458571Y-79662381D02*
X175030000Y-79662381D01*
X174744285Y-80662381D02*
X174744285Y-79662381D01*
X175315714Y-79757619D02*
X175363333Y-79710000D01*
X175458571Y-79662381D01*
X175696667Y-79662381D01*
X175791905Y-79710000D01*
X175839524Y-79757619D01*
X175887143Y-79852857D01*
X175887143Y-79948095D01*
X175839524Y-80090952D01*
X175268095Y-80662381D01*
X175887143Y-80662381D01*
X169803810Y-70528571D02*
X169946667Y-70576190D01*
X169994286Y-70623810D01*
X170041905Y-70719048D01*
X170041905Y-70861905D01*
X169994286Y-70957143D01*
X169946667Y-71004762D01*
X169851429Y-71052381D01*
X169470476Y-71052381D01*
X169470476Y-70052381D01*
X169803810Y-70052381D01*
X169899048Y-70100000D01*
X169946667Y-70147619D01*
X169994286Y-70242857D01*
X169994286Y-70338095D01*
X169946667Y-70433333D01*
X169899048Y-70480952D01*
X169803810Y-70528571D01*
X169470476Y-70528571D01*
X170470476Y-71052381D02*
X170470476Y-70052381D01*
X171137142Y-70052381D02*
X171327619Y-70052381D01*
X171422857Y-70100000D01*
X171518095Y-70195238D01*
X171565714Y-70385714D01*
X171565714Y-70719048D01*
X171518095Y-70909524D01*
X171422857Y-71004762D01*
X171327619Y-71052381D01*
X171137142Y-71052381D01*
X171041904Y-71004762D01*
X170946666Y-70909524D01*
X170899047Y-70719048D01*
X170899047Y-70385714D01*
X170946666Y-70195238D01*
X171041904Y-70100000D01*
X171137142Y-70052381D01*
X171756190Y-71147619D02*
X172518095Y-71147619D01*
X172946666Y-70052381D02*
X173137143Y-70052381D01*
X173232381Y-70100000D01*
X173327619Y-70195238D01*
X173375238Y-70385714D01*
X173375238Y-70719048D01*
X173327619Y-70909524D01*
X173232381Y-71004762D01*
X173137143Y-71052381D01*
X172946666Y-71052381D01*
X172851428Y-71004762D01*
X172756190Y-70909524D01*
X172708571Y-70719048D01*
X172708571Y-70385714D01*
X172756190Y-70195238D01*
X172851428Y-70100000D01*
X172946666Y-70052381D01*
X173803809Y-70052381D02*
X173803809Y-70861905D01*
X173851428Y-70957143D01*
X173899047Y-71004762D01*
X173994285Y-71052381D01*
X174184762Y-71052381D01*
X174280000Y-71004762D01*
X174327619Y-70957143D01*
X174375238Y-70861905D01*
X174375238Y-70052381D01*
X174708571Y-70052381D02*
X175280000Y-70052381D01*
X174994285Y-71052381D02*
X174994285Y-70052381D01*
X176137143Y-71052381D02*
X175565714Y-71052381D01*
X175851428Y-71052381D02*
X175851428Y-70052381D01*
X175756190Y-70195238D01*
X175660952Y-70290476D01*
X175565714Y-70338095D01*
X171242381Y-54652381D02*
X170766190Y-54985715D01*
X171242381Y-55223810D02*
X170242381Y-55223810D01*
X170242381Y-54842857D01*
X170290000Y-54747619D01*
X170337619Y-54700000D01*
X170432857Y-54652381D01*
X170575714Y-54652381D01*
X170670952Y-54700000D01*
X170718571Y-54747619D01*
X170766190Y-54842857D01*
X170766190Y-55223810D01*
X170718571Y-54223810D02*
X170718571Y-53890476D01*
X171242381Y-53747619D02*
X171242381Y-54223810D01*
X170242381Y-54223810D01*
X170242381Y-53747619D01*
X171194762Y-53366667D02*
X171242381Y-53223810D01*
X171242381Y-52985714D01*
X171194762Y-52890476D01*
X171147143Y-52842857D01*
X171051905Y-52795238D01*
X170956667Y-52795238D01*
X170861429Y-52842857D01*
X170813810Y-52890476D01*
X170766190Y-52985714D01*
X170718571Y-53176191D01*
X170670952Y-53271429D01*
X170623333Y-53319048D01*
X170528095Y-53366667D01*
X170432857Y-53366667D01*
X170337619Y-53319048D01*
X170290000Y-53271429D01*
X170242381Y-53176191D01*
X170242381Y-52938095D01*
X170290000Y-52795238D01*
X170718571Y-52366667D02*
X170718571Y-52033333D01*
X171242381Y-51890476D02*
X171242381Y-52366667D01*
X170242381Y-52366667D01*
X170242381Y-51890476D01*
X170242381Y-51604762D02*
X170242381Y-51033333D01*
X171242381Y-51319048D02*
X170242381Y-51319048D01*
X163442381Y-52186666D02*
X162966190Y-52520000D01*
X163442381Y-52758095D02*
X162442381Y-52758095D01*
X162442381Y-52377142D01*
X162490000Y-52281904D01*
X162537619Y-52234285D01*
X162632857Y-52186666D01*
X162775714Y-52186666D01*
X162870952Y-52234285D01*
X162918571Y-52281904D01*
X162966190Y-52377142D01*
X162966190Y-52758095D01*
X162442381Y-51853333D02*
X163442381Y-51186666D01*
X162442381Y-51186666D02*
X163442381Y-51853333D01*
X159882381Y-52621905D02*
X159882381Y-52050476D01*
X160882381Y-52336191D02*
X159882381Y-52336191D01*
X159882381Y-51812381D02*
X160882381Y-51145714D01*
X159882381Y-51145714D02*
X160882381Y-51812381D01*
X178638096Y-64820000D02*
X178542858Y-64772381D01*
X178400001Y-64772381D01*
X178257143Y-64820000D01*
X178161905Y-64915238D01*
X178114286Y-65010476D01*
X178066667Y-65200952D01*
X178066667Y-65343810D01*
X178114286Y-65534286D01*
X178161905Y-65629524D01*
X178257143Y-65724762D01*
X178400001Y-65772381D01*
X178495239Y-65772381D01*
X178638096Y-65724762D01*
X178685715Y-65677143D01*
X178685715Y-65343810D01*
X178495239Y-65343810D01*
X179114286Y-65772381D02*
X179114286Y-64772381D01*
X179685715Y-65772381D01*
X179685715Y-64772381D01*
X180161905Y-65772381D02*
X180161905Y-64772381D01*
X180400000Y-64772381D01*
X180542858Y-64820000D01*
X180638096Y-64915238D01*
X180685715Y-65010476D01*
X180733334Y-65200952D01*
X180733334Y-65343810D01*
X180685715Y-65534286D01*
X180638096Y-65629524D01*
X180542858Y-65724762D01*
X180400000Y-65772381D01*
X180161905Y-65772381D01*
X179489524Y-55302381D02*
X179013333Y-55302381D01*
X178965714Y-55778571D01*
X179013333Y-55730952D01*
X179108571Y-55683333D01*
X179346667Y-55683333D01*
X179441905Y-55730952D01*
X179489524Y-55778571D01*
X179537143Y-55873810D01*
X179537143Y-56111905D01*
X179489524Y-56207143D01*
X179441905Y-56254762D01*
X179346667Y-56302381D01*
X179108571Y-56302381D01*
X179013333Y-56254762D01*
X178965714Y-56207143D01*
X179822857Y-55302381D02*
X180156190Y-56302381D01*
X180489524Y-55302381D01*
X179719524Y-89522381D02*
X179243333Y-89522381D01*
X179195714Y-89998571D01*
X179243333Y-89950952D01*
X179338571Y-89903333D01*
X179576667Y-89903333D01*
X179671905Y-89950952D01*
X179719524Y-89998571D01*
X179767143Y-90093810D01*
X179767143Y-90331905D01*
X179719524Y-90427143D01*
X179671905Y-90474762D01*
X179576667Y-90522381D01*
X179338571Y-90522381D01*
X179243333Y-90474762D01*
X179195714Y-90427143D01*
X180052857Y-89522381D02*
X180386190Y-90522381D01*
X180719524Y-89522381D01*
X179669524Y-102022381D02*
X179193333Y-102022381D01*
X179145714Y-102498571D01*
X179193333Y-102450952D01*
X179288571Y-102403333D01*
X179526667Y-102403333D01*
X179621905Y-102450952D01*
X179669524Y-102498571D01*
X179717143Y-102593810D01*
X179717143Y-102831905D01*
X179669524Y-102927143D01*
X179621905Y-102974762D01*
X179526667Y-103022381D01*
X179288571Y-103022381D01*
X179193333Y-102974762D01*
X179145714Y-102927143D01*
X180002857Y-102022381D02*
X180336190Y-103022381D01*
X180669524Y-102022381D01*
X95199524Y-55852381D02*
X94723333Y-55852381D01*
X94675714Y-56328571D01*
X94723333Y-56280952D01*
X94818571Y-56233333D01*
X95056667Y-56233333D01*
X95151905Y-56280952D01*
X95199524Y-56328571D01*
X95247143Y-56423810D01*
X95247143Y-56661905D01*
X95199524Y-56757143D01*
X95151905Y-56804762D01*
X95056667Y-56852381D01*
X94818571Y-56852381D01*
X94723333Y-56804762D01*
X94675714Y-56757143D01*
X95532857Y-55852381D02*
X95866190Y-56852381D01*
X96199524Y-55852381D01*
X111630000Y-53331904D02*
X111582381Y-53427142D01*
X111582381Y-53569999D01*
X111630000Y-53712857D01*
X111725238Y-53808095D01*
X111820476Y-53855714D01*
X112010952Y-53903333D01*
X112153810Y-53903333D01*
X112344286Y-53855714D01*
X112439524Y-53808095D01*
X112534762Y-53712857D01*
X112582381Y-53569999D01*
X112582381Y-53474761D01*
X112534762Y-53331904D01*
X112487143Y-53284285D01*
X112153810Y-53284285D01*
X112153810Y-53474761D01*
X112582381Y-52855714D02*
X111582381Y-52855714D01*
X112582381Y-52284285D01*
X111582381Y-52284285D01*
X112582381Y-51808095D02*
X111582381Y-51808095D01*
X111582381Y-51570000D01*
X111630000Y-51427142D01*
X111725238Y-51331904D01*
X111820476Y-51284285D01*
X112010952Y-51236666D01*
X112153810Y-51236666D01*
X112344286Y-51284285D01*
X112439524Y-51331904D01*
X112534762Y-51427142D01*
X112582381Y-51570000D01*
X112582381Y-51808095D01*
X133370000Y-53101904D02*
X133322381Y-53197142D01*
X133322381Y-53339999D01*
X133370000Y-53482857D01*
X133465238Y-53578095D01*
X133560476Y-53625714D01*
X133750952Y-53673333D01*
X133893810Y-53673333D01*
X134084286Y-53625714D01*
X134179524Y-53578095D01*
X134274762Y-53482857D01*
X134322381Y-53339999D01*
X134322381Y-53244761D01*
X134274762Y-53101904D01*
X134227143Y-53054285D01*
X133893810Y-53054285D01*
X133893810Y-53244761D01*
X134322381Y-52625714D02*
X133322381Y-52625714D01*
X134322381Y-52054285D01*
X133322381Y-52054285D01*
X134322381Y-51578095D02*
X133322381Y-51578095D01*
X133322381Y-51340000D01*
X133370000Y-51197142D01*
X133465238Y-51101904D01*
X133560476Y-51054285D01*
X133750952Y-51006666D01*
X133893810Y-51006666D01*
X134084286Y-51054285D01*
X134179524Y-51101904D01*
X134274762Y-51197142D01*
X134322381Y-51340000D01*
X134322381Y-51578095D01*
X157650000Y-53061904D02*
X157602381Y-53157142D01*
X157602381Y-53299999D01*
X157650000Y-53442857D01*
X157745238Y-53538095D01*
X157840476Y-53585714D01*
X158030952Y-53633333D01*
X158173810Y-53633333D01*
X158364286Y-53585714D01*
X158459524Y-53538095D01*
X158554762Y-53442857D01*
X158602381Y-53299999D01*
X158602381Y-53204761D01*
X158554762Y-53061904D01*
X158507143Y-53014285D01*
X158173810Y-53014285D01*
X158173810Y-53204761D01*
X158602381Y-52585714D02*
X157602381Y-52585714D01*
X158602381Y-52014285D01*
X157602381Y-52014285D01*
X158602381Y-51538095D02*
X157602381Y-51538095D01*
X157602381Y-51300000D01*
X157650000Y-51157142D01*
X157745238Y-51061904D01*
X157840476Y-51014285D01*
X158030952Y-50966666D01*
X158173810Y-50966666D01*
X158364286Y-51014285D01*
X158459524Y-51061904D01*
X158554762Y-51157142D01*
X158602381Y-51300000D01*
X158602381Y-51538095D01*
X179258096Y-99130000D02*
X179162858Y-99082381D01*
X179020001Y-99082381D01*
X178877143Y-99130000D01*
X178781905Y-99225238D01*
X178734286Y-99320476D01*
X178686667Y-99510952D01*
X178686667Y-99653810D01*
X178734286Y-99844286D01*
X178781905Y-99939524D01*
X178877143Y-100034762D01*
X179020001Y-100082381D01*
X179115239Y-100082381D01*
X179258096Y-100034762D01*
X179305715Y-99987143D01*
X179305715Y-99653810D01*
X179115239Y-99653810D01*
X179734286Y-100082381D02*
X179734286Y-99082381D01*
X180305715Y-100082381D01*
X180305715Y-99082381D01*
X180781905Y-100082381D02*
X180781905Y-99082381D01*
X181020000Y-99082381D01*
X181162858Y-99130000D01*
X181258096Y-99225238D01*
X181305715Y-99320476D01*
X181353334Y-99510952D01*
X181353334Y-99653810D01*
X181305715Y-99844286D01*
X181258096Y-99939524D01*
X181162858Y-100034762D01*
X181020000Y-100082381D01*
X180781905Y-100082381D01*
X179048096Y-111830000D02*
X178952858Y-111782381D01*
X178810001Y-111782381D01*
X178667143Y-111830000D01*
X178571905Y-111925238D01*
X178524286Y-112020476D01*
X178476667Y-112210952D01*
X178476667Y-112353810D01*
X178524286Y-112544286D01*
X178571905Y-112639524D01*
X178667143Y-112734762D01*
X178810001Y-112782381D01*
X178905239Y-112782381D01*
X179048096Y-112734762D01*
X179095715Y-112687143D01*
X179095715Y-112353810D01*
X178905239Y-112353810D01*
X179524286Y-112782381D02*
X179524286Y-111782381D01*
X180095715Y-112782381D01*
X180095715Y-111782381D01*
X180571905Y-112782381D02*
X180571905Y-111782381D01*
X180810000Y-111782381D01*
X180952858Y-111830000D01*
X181048096Y-111925238D01*
X181095715Y-112020476D01*
X181143334Y-112210952D01*
X181143334Y-112353810D01*
X181095715Y-112544286D01*
X181048096Y-112639524D01*
X180952858Y-112734762D01*
X180810000Y-112782381D01*
X180571905Y-112782381D01*
X130038096Y-105370000D02*
X129942858Y-105322381D01*
X129800001Y-105322381D01*
X129657143Y-105370000D01*
X129561905Y-105465238D01*
X129514286Y-105560476D01*
X129466667Y-105750952D01*
X129466667Y-105893810D01*
X129514286Y-106084286D01*
X129561905Y-106179524D01*
X129657143Y-106274762D01*
X129800001Y-106322381D01*
X129895239Y-106322381D01*
X130038096Y-106274762D01*
X130085715Y-106227143D01*
X130085715Y-105893810D01*
X129895239Y-105893810D01*
X130514286Y-106322381D02*
X130514286Y-105322381D01*
X131085715Y-106322381D01*
X131085715Y-105322381D01*
X131561905Y-106322381D02*
X131561905Y-105322381D01*
X131800000Y-105322381D01*
X131942858Y-105370000D01*
X132038096Y-105465238D01*
X132085715Y-105560476D01*
X132133334Y-105750952D01*
X132133334Y-105893810D01*
X132085715Y-106084286D01*
X132038096Y-106179524D01*
X131942858Y-106274762D01*
X131800000Y-106322381D01*
X131561905Y-106322381D01*
X92478096Y-94300000D02*
X92382858Y-94252381D01*
X92240001Y-94252381D01*
X92097143Y-94300000D01*
X92001905Y-94395238D01*
X91954286Y-94490476D01*
X91906667Y-94680952D01*
X91906667Y-94823810D01*
X91954286Y-95014286D01*
X92001905Y-95109524D01*
X92097143Y-95204762D01*
X92240001Y-95252381D01*
X92335239Y-95252381D01*
X92478096Y-95204762D01*
X92525715Y-95157143D01*
X92525715Y-94823810D01*
X92335239Y-94823810D01*
X92954286Y-95252381D02*
X92954286Y-94252381D01*
X93525715Y-95252381D01*
X93525715Y-94252381D01*
X94001905Y-95252381D02*
X94001905Y-94252381D01*
X94240000Y-94252381D01*
X94382858Y-94300000D01*
X94478096Y-94395238D01*
X94525715Y-94490476D01*
X94573334Y-94680952D01*
X94573334Y-94823810D01*
X94525715Y-95014286D01*
X94478096Y-95109524D01*
X94382858Y-95204762D01*
X94240000Y-95252381D01*
X94001905Y-95252381D01*
X95028096Y-73850000D02*
X94932858Y-73802381D01*
X94790001Y-73802381D01*
X94647143Y-73850000D01*
X94551905Y-73945238D01*
X94504286Y-74040476D01*
X94456667Y-74230952D01*
X94456667Y-74373810D01*
X94504286Y-74564286D01*
X94551905Y-74659524D01*
X94647143Y-74754762D01*
X94790001Y-74802381D01*
X94885239Y-74802381D01*
X95028096Y-74754762D01*
X95075715Y-74707143D01*
X95075715Y-74373810D01*
X94885239Y-74373810D01*
X95504286Y-74802381D02*
X95504286Y-73802381D01*
X96075715Y-74802381D01*
X96075715Y-73802381D01*
X96551905Y-74802381D02*
X96551905Y-73802381D01*
X96790000Y-73802381D01*
X96932858Y-73850000D01*
X97028096Y-73945238D01*
X97075715Y-74040476D01*
X97123334Y-74230952D01*
X97123334Y-74373810D01*
X97075715Y-74564286D01*
X97028096Y-74659524D01*
X96932858Y-74754762D01*
X96790000Y-74802381D01*
X96551905Y-74802381D01*
X91440001Y-76490000D02*
X91344763Y-76442381D01*
X91201906Y-76442381D01*
X91059048Y-76490000D01*
X90963810Y-76585238D01*
X90916191Y-76680476D01*
X90868572Y-76870952D01*
X90868572Y-77013810D01*
X90916191Y-77204286D01*
X90963810Y-77299524D01*
X91059048Y-77394762D01*
X91201906Y-77442381D01*
X91297144Y-77442381D01*
X91440001Y-77394762D01*
X91487620Y-77347143D01*
X91487620Y-77013810D01*
X91297144Y-77013810D01*
X91916191Y-77442381D02*
X91916191Y-76442381D01*
X92297144Y-76442381D01*
X92392382Y-76490000D01*
X92440001Y-76537619D01*
X92487620Y-76632857D01*
X92487620Y-76775714D01*
X92440001Y-76870952D01*
X92392382Y-76918571D01*
X92297144Y-76966190D01*
X91916191Y-76966190D01*
X92916191Y-77442381D02*
X92916191Y-76442381D01*
X93582857Y-76442381D02*
X93773334Y-76442381D01*
X93868572Y-76490000D01*
X93963810Y-76585238D01*
X94011429Y-76775714D01*
X94011429Y-77109048D01*
X93963810Y-77299524D01*
X93868572Y-77394762D01*
X93773334Y-77442381D01*
X93582857Y-77442381D01*
X93487619Y-77394762D01*
X93392381Y-77299524D01*
X93344762Y-77109048D01*
X93344762Y-76775714D01*
X93392381Y-76585238D01*
X93487619Y-76490000D01*
X93582857Y-76442381D01*
D12*
X132030520Y-94928360D02*
X132030520Y-94453360D01*
X126480520Y-94928360D02*
X126480520Y-94353360D01*
X126480520Y-88378360D02*
X126480520Y-88953360D01*
X132030520Y-88378360D02*
X132030520Y-88953360D01*
X132030520Y-94928360D02*
X126480520Y-94928360D01*
X132030520Y-88378360D02*
X126480520Y-88378360D01*
X132030520Y-94453360D02*
X133305520Y-94453360D01*
D13*
X138162920Y-89828000D02*
X137162920Y-89828000D01*
X137162920Y-91528000D02*
X138162920Y-91528000D01*
X152692480Y-86544520D02*
X153692480Y-86544520D01*
X153692480Y-84844520D02*
X152692480Y-84844520D01*
X152692480Y-88469840D02*
X153692480Y-88469840D01*
X153692480Y-86769840D02*
X152692480Y-86769840D01*
X162324150Y-82939510D02*
X162324150Y-81939510D01*
X160624150Y-81939510D02*
X160624150Y-82939510D01*
X126450000Y-59525000D02*
X125450000Y-59525000D01*
X125450000Y-61225000D02*
X126450000Y-61225000D01*
X120850000Y-61225000D02*
X121850000Y-61225000D01*
X121850000Y-59525000D02*
X120850000Y-59525000D01*
X123299600Y-69557000D02*
X124299600Y-69557000D01*
X124299600Y-67857000D02*
X123299600Y-67857000D01*
X124299600Y-65891040D02*
X123299600Y-65891040D01*
X123299600Y-67591040D02*
X124299600Y-67591040D01*
X103513000Y-67436100D02*
X104513000Y-67436100D01*
X104513000Y-65736100D02*
X103513000Y-65736100D01*
X104782240Y-93780240D02*
X103782240Y-93780240D01*
X103782240Y-95480240D02*
X104782240Y-95480240D01*
X112738280Y-95983160D02*
X113738280Y-95983160D01*
X113738280Y-94283160D02*
X112738280Y-94283160D01*
X123227200Y-89283160D02*
X123227200Y-88283160D01*
X121527200Y-88283160D02*
X121527200Y-89283160D01*
X108449520Y-108020080D02*
X108449520Y-106620080D01*
X108449520Y-106620080D02*
X105649520Y-106620080D01*
X108449520Y-108020080D02*
X105649520Y-108020080D01*
X115161920Y-106609920D02*
X115161920Y-108009920D01*
X115161920Y-108009920D02*
X117961920Y-108009920D01*
X115161920Y-106609920D02*
X117961920Y-106609920D01*
X112670900Y-76711500D02*
X110010900Y-76711500D01*
X112670900Y-79311500D02*
X112670900Y-76711500D01*
X110010900Y-79311500D02*
X110010900Y-76711500D01*
X112670900Y-79311500D02*
X110010900Y-79311500D01*
X112670900Y-80581500D02*
X112670900Y-81911500D01*
X112670900Y-81911500D02*
X111340900Y-81911500D01*
X116747600Y-76686100D02*
X114087600Y-76686100D01*
X116747600Y-79286100D02*
X116747600Y-76686100D01*
X114087600Y-79286100D02*
X114087600Y-76686100D01*
X116747600Y-79286100D02*
X114087600Y-79286100D01*
X116747600Y-80556100D02*
X116747600Y-81886100D01*
X116747600Y-81886100D02*
X115417600Y-81886100D01*
X161299200Y-89539120D02*
X161299200Y-86879120D01*
X158699200Y-89539120D02*
X161299200Y-89539120D01*
X158699200Y-86879120D02*
X161299200Y-86879120D01*
X158699200Y-89539120D02*
X158699200Y-86879120D01*
X157429200Y-89539120D02*
X156099200Y-89539120D01*
X156099200Y-89539120D02*
X156099200Y-88209120D01*
X173724880Y-81087920D02*
X171064880Y-81087920D01*
X173724880Y-83687920D02*
X173724880Y-81087920D01*
X171064880Y-83687920D02*
X171064880Y-81087920D01*
X173724880Y-83687920D02*
X171064880Y-83687920D01*
X173724880Y-84957920D02*
X173724880Y-86287920D01*
X173724880Y-86287920D02*
X172394880Y-86287920D01*
X129462220Y-70358960D02*
X129462220Y-73018960D01*
X132062220Y-70358960D02*
X129462220Y-70358960D01*
X132062220Y-73018960D02*
X129462220Y-73018960D01*
X132062220Y-70358960D02*
X132062220Y-73018960D01*
X133332220Y-70358960D02*
X134662220Y-70358960D01*
X134662220Y-70358960D02*
X134662220Y-71688960D01*
X90986300Y-57708800D02*
X90986300Y-75548800D01*
X90986300Y-75548800D02*
X93646300Y-75548800D01*
X93646300Y-75548800D02*
X93646300Y-57708800D01*
X93646300Y-57708800D02*
X90986300Y-57708800D01*
X90986300Y-56438800D02*
X90986300Y-55108800D01*
X90986300Y-55108800D02*
X92316300Y-55108800D01*
X118402100Y-47590400D02*
X110722100Y-47590400D01*
X110722100Y-47590400D02*
X110722100Y-50250400D01*
X110722100Y-50250400D02*
X118402100Y-50250400D01*
X118402100Y-50250400D02*
X118402100Y-47590400D01*
X119672100Y-47590400D02*
X121002100Y-47590400D01*
X121002100Y-47590400D02*
X121002100Y-48920400D01*
X108921440Y-78790240D02*
X108921440Y-79990240D01*
X107161440Y-79990240D02*
X107161440Y-78790240D01*
X161116120Y-95616320D02*
X161116120Y-94416320D01*
X162876120Y-94416320D02*
X162876120Y-95616320D01*
X161118660Y-100338180D02*
X161118660Y-99138180D01*
X162878660Y-99138180D02*
X162878660Y-100338180D01*
X119310040Y-78769920D02*
X119310040Y-79969920D01*
X117550040Y-79969920D02*
X117550040Y-78769920D01*
X142916800Y-93461280D02*
X142916800Y-94661280D01*
X141156800Y-94661280D02*
X141156800Y-93461280D01*
X142916800Y-86715040D02*
X142916800Y-87915040D01*
X141156800Y-87915040D02*
X141156800Y-86715040D01*
X156381560Y-93183000D02*
X156381560Y-91983000D01*
X158141560Y-91983000D02*
X158141560Y-93183000D01*
X139045840Y-93583200D02*
X139045840Y-94783200D01*
X137285840Y-94783200D02*
X137285840Y-93583200D01*
X135020160Y-96693280D02*
X135020160Y-95493280D01*
X136780160Y-95493280D02*
X136780160Y-96693280D01*
X168665600Y-87390080D02*
X169865600Y-87390080D01*
X169865600Y-89150080D02*
X168665600Y-89150080D01*
X123341020Y-78777540D02*
X123341020Y-79977540D01*
X121581020Y-79977540D02*
X121581020Y-78777540D01*
X104672240Y-102098400D02*
X104672240Y-100898400D01*
X106432240Y-100898400D02*
X106432240Y-102098400D01*
X117179200Y-104211680D02*
X117179200Y-103011680D01*
X118939200Y-103011680D02*
X118939200Y-104211680D01*
X126560220Y-80845180D02*
X130960220Y-80845180D01*
X126560220Y-80845180D02*
X126560220Y-78245180D01*
X130960220Y-78245180D02*
X130960220Y-80845180D01*
X126560220Y-78245180D02*
X130960220Y-78245180D01*
D12*
X146911240Y-89291720D02*
X146911240Y-89341720D01*
X151061240Y-89291720D02*
X151061240Y-89436720D01*
X151061240Y-94441720D02*
X151061240Y-94296720D01*
X146911240Y-94441720D02*
X146911240Y-94296720D01*
X146911240Y-89291720D02*
X151061240Y-89291720D01*
X146911240Y-94441720D02*
X151061240Y-94441720D01*
X146911240Y-89341720D02*
X145511240Y-89341720D01*
X166227630Y-83248630D02*
X166052630Y-83248630D01*
X166227630Y-86598630D02*
X165977630Y-86598630D01*
X162877630Y-86598630D02*
X163127630Y-86598630D01*
X162877630Y-83248630D02*
X163127630Y-83248630D01*
X166227630Y-83248630D02*
X166227630Y-86598630D01*
X162877630Y-83248630D02*
X162877630Y-86598630D01*
X166052630Y-83248630D02*
X166052630Y-81998630D01*
X117950400Y-70617500D02*
X117950400Y-70392500D01*
X110700400Y-70617500D02*
X110700400Y-70292500D01*
X110700400Y-63367500D02*
X110700400Y-63692500D01*
X117950400Y-63367500D02*
X117950400Y-63692500D01*
X117950400Y-70617500D02*
X117625400Y-70617500D01*
X117950400Y-63367500D02*
X117625400Y-63367500D01*
X110700400Y-63367500D02*
X111025400Y-63367500D01*
X110700400Y-70617500D02*
X111025400Y-70617500D01*
X117950400Y-70392500D02*
X119375400Y-70392500D01*
D13*
X123229060Y-100930400D02*
X123229060Y-103590400D01*
X125829060Y-100930400D02*
X123229060Y-100930400D01*
X125829060Y-103590400D02*
X123229060Y-103590400D01*
X125829060Y-100930400D02*
X125829060Y-103590400D01*
X127099060Y-100930400D02*
X128429060Y-100930400D01*
X128429060Y-100930400D02*
X128429060Y-102260400D01*
X127365760Y-50250400D02*
X135045760Y-50250400D01*
X135045760Y-50250400D02*
X135045760Y-47590400D01*
X135045760Y-47590400D02*
X127365760Y-47590400D01*
X127365760Y-47590400D02*
X127365760Y-50250400D01*
X126095760Y-50250400D02*
X124765760Y-50250400D01*
X124765760Y-50250400D02*
X124765760Y-48920400D01*
X169420000Y-49970000D02*
X169420000Y-50030000D01*
X169420000Y-50030000D02*
X172080000Y-50030000D01*
X172080000Y-50030000D02*
X172080000Y-49970000D01*
X172080000Y-49970000D02*
X169420000Y-49970000D01*
X169420000Y-48700000D02*
X169420000Y-47370000D01*
X169420000Y-47370000D02*
X170750000Y-47370000D01*
X128379220Y-107248000D02*
X128439220Y-107248000D01*
X128439220Y-107248000D02*
X128439220Y-104588000D01*
X128439220Y-104588000D02*
X128379220Y-104588000D01*
X128379220Y-104588000D02*
X128379220Y-107248000D01*
X127109220Y-107248000D02*
X125779220Y-107248000D01*
X125779220Y-107248000D02*
X125779220Y-105918000D01*
X104482900Y-47603100D02*
X96802900Y-47603100D01*
X96802900Y-47603100D02*
X96802900Y-50263100D01*
X96802900Y-50263100D02*
X104482900Y-50263100D01*
X104482900Y-50263100D02*
X104482900Y-47603100D01*
X105752900Y-47603100D02*
X107082900Y-47603100D01*
X107082900Y-47603100D02*
X107082900Y-48933100D01*
D12*
X184925320Y-110828860D02*
X185473960Y-110828860D01*
X185473960Y-110828860D02*
X185473960Y-103671140D01*
X185473960Y-103671140D02*
X184925320Y-103671140D01*
X177704100Y-103671140D02*
X174724680Y-103671140D01*
X174724680Y-103671140D02*
X174724680Y-110828860D01*
X182004320Y-110828860D02*
X184925320Y-110828860D01*
X184925320Y-110828860D02*
X184925320Y-103671140D01*
X184925320Y-103671140D02*
X181945900Y-103671140D01*
X174724680Y-110828860D02*
X177704100Y-110828860D01*
X184750320Y-63978860D02*
X185298960Y-63978860D01*
X185298960Y-63978860D02*
X185298960Y-56821140D01*
X185298960Y-56821140D02*
X184750320Y-56821140D01*
X177529100Y-56821140D02*
X174549680Y-56821140D01*
X174549680Y-56821140D02*
X174549680Y-63978860D01*
X181829320Y-63978860D02*
X184750320Y-63978860D01*
X184750320Y-63978860D02*
X184750320Y-56821140D01*
X184750320Y-56821140D02*
X181770900Y-56821140D01*
X174549680Y-63978860D02*
X177529100Y-63978860D01*
X184947560Y-98280220D02*
X185496200Y-98280220D01*
X185496200Y-98280220D02*
X185496200Y-91122500D01*
X185496200Y-91122500D02*
X184947560Y-91122500D01*
X177726340Y-91122500D02*
X174746920Y-91122500D01*
X174746920Y-91122500D02*
X174746920Y-98280220D01*
X182026560Y-98280220D02*
X184947560Y-98280220D01*
X184947560Y-98280220D02*
X184947560Y-91122500D01*
X184947560Y-91122500D02*
X181968140Y-91122500D01*
X174746920Y-98280220D02*
X177726340Y-98280220D01*
X88224680Y-96271140D02*
X87676040Y-96271140D01*
X87676040Y-96271140D02*
X87676040Y-103428860D01*
X87676040Y-103428860D02*
X88224680Y-103428860D01*
X95445900Y-103428860D02*
X98425320Y-103428860D01*
X98425320Y-103428860D02*
X98425320Y-96271140D01*
X91145680Y-96271140D02*
X88224680Y-96271140D01*
X88224680Y-96271140D02*
X88224680Y-103428860D01*
X88224680Y-103428860D02*
X91204100Y-103428860D01*
X98425320Y-96271140D02*
X95445900Y-96271140D01*
D13*
X119043080Y-88288240D02*
X119043080Y-89288240D01*
X120743080Y-89288240D02*
X120743080Y-88288240D01*
X108588760Y-103758920D02*
X109848760Y-103758920D01*
X115408760Y-103758920D02*
X114148760Y-103758920D01*
X108588760Y-99998920D02*
X108588760Y-103758920D01*
X115408760Y-97748920D02*
X115408760Y-103758920D01*
D12*
X143192500Y-47045880D02*
X143192500Y-47594520D01*
X154312620Y-47594520D02*
X154312620Y-47045880D01*
X154312620Y-47045880D02*
X143192500Y-47045880D01*
X143192500Y-54825900D02*
X143192500Y-57795160D01*
X143192500Y-57795160D02*
X148752560Y-57795160D01*
X154312620Y-50563780D02*
X154312620Y-47594520D01*
X154312620Y-47594520D02*
X143192500Y-47594520D01*
X143192500Y-47594520D02*
X143192500Y-50563780D01*
X148752560Y-57795160D02*
X154312620Y-57795160D01*
X154312620Y-57795160D02*
X154312620Y-54825900D01*
D13*
X143193060Y-74382520D02*
X141993060Y-74382520D01*
X141993060Y-72622520D02*
X143193060Y-72622520D01*
X132972920Y-64237160D02*
X132972920Y-63037160D01*
X134732920Y-63037160D02*
X134732920Y-64237160D01*
X143664320Y-69181680D02*
X143664320Y-72001680D01*
X143664320Y-72001680D02*
X148984320Y-72001680D01*
X148984320Y-72001680D02*
X148984320Y-69181680D01*
X148984320Y-69181680D02*
X143664320Y-69181680D01*
X142524320Y-70591680D02*
X143664320Y-70591680D01*
X150124320Y-70591680D02*
X148984320Y-70591680D01*
X144504320Y-69181680D02*
X144504320Y-72001680D01*
X135412180Y-62568440D02*
X138232180Y-62568440D01*
X138232180Y-62568440D02*
X138232180Y-57248440D01*
X138232180Y-57248440D02*
X135412180Y-57248440D01*
X135412180Y-57248440D02*
X135412180Y-62568440D01*
X136822180Y-63708440D02*
X136822180Y-62568440D01*
X136822180Y-56108440D02*
X136822180Y-57248440D01*
X135412180Y-61728440D02*
X138232180Y-61728440D01*
X145386700Y-63628400D02*
X145386700Y-68248400D01*
X145386700Y-68248400D02*
X157406700Y-68248400D01*
X157406700Y-68248400D02*
X157406700Y-63628400D01*
X157406700Y-63628400D02*
X145386700Y-63628400D01*
X142616700Y-65938400D02*
X145386700Y-65938400D01*
X160176700Y-65938400D02*
X157406700Y-65938400D01*
X157427020Y-62911860D02*
X157427020Y-58291860D01*
X157427020Y-58291860D02*
X145407020Y-58291860D01*
X145407020Y-58291860D02*
X145407020Y-62911860D01*
X145407020Y-62911860D02*
X157427020Y-62911860D01*
X160197020Y-60601860D02*
X157427020Y-60601860D01*
X142637020Y-60601860D02*
X145407020Y-60601860D01*
X124250000Y-63575000D02*
X123150000Y-63575000D01*
X124250000Y-61975000D02*
X123150000Y-61975000D01*
X183700000Y-72250000D02*
X183700000Y-74250000D01*
X177100000Y-72250000D02*
X177100000Y-74250000D01*
X181400000Y-76550000D02*
X179400000Y-76550000D01*
X181400000Y-69950000D02*
X179400000Y-69950000D01*
X183725000Y-82700000D02*
X183725000Y-84700000D01*
X177125000Y-82700000D02*
X177125000Y-84700000D01*
X181425000Y-87000000D02*
X179425000Y-87000000D01*
X181425000Y-80400000D02*
X179425000Y-80400000D01*
X166475000Y-53575000D02*
X166475000Y-52575000D01*
X164775000Y-52575000D02*
X164775000Y-53575000D01*
X91020000Y-86130000D02*
X91020000Y-78450000D01*
X91020000Y-78450000D02*
X96220000Y-78450000D01*
X96220000Y-78450000D02*
X96220000Y-88730000D01*
X96220000Y-88730000D02*
X93620000Y-88730000D01*
X93620000Y-88730000D02*
X93620000Y-86130000D01*
X93620000Y-86130000D02*
X91020000Y-86130000D01*
X91020000Y-87400000D02*
X91020000Y-88730000D01*
X91020000Y-88730000D02*
X92290000Y-88730000D01*
X159270000Y-50130000D02*
X166950000Y-50130000D01*
X166950000Y-50130000D02*
X166950000Y-47470000D01*
X166950000Y-47470000D02*
X159270000Y-47470000D01*
X159270000Y-47470000D02*
X159270000Y-50130000D01*
X158000000Y-50130000D02*
X156670000Y-50130000D01*
X156670000Y-50130000D02*
X156670000Y-48800000D01*
X99330000Y-120140000D02*
X99330000Y-120200000D01*
X99330000Y-120200000D02*
X101990000Y-120200000D01*
X101990000Y-120200000D02*
X101990000Y-120140000D01*
X101990000Y-120140000D02*
X99330000Y-120140000D01*
X99330000Y-118870000D02*
X99330000Y-117540000D01*
X99330000Y-117540000D02*
X100660000Y-117540000D01*
D12*
X128088854Y-95781931D02*
X128231711Y-95829550D01*
X128279330Y-95877170D01*
X128326949Y-95972408D01*
X128326949Y-96115265D01*
X128279330Y-96210503D01*
X128231711Y-96258122D01*
X128136473Y-96305741D01*
X127755520Y-96305741D01*
X127755520Y-95305741D01*
X128088854Y-95305741D01*
X128184092Y-95353360D01*
X128231711Y-95400979D01*
X128279330Y-95496217D01*
X128279330Y-95591455D01*
X128231711Y-95686693D01*
X128184092Y-95734312D01*
X128088854Y-95781931D01*
X127755520Y-95781931D01*
X128755520Y-96305741D02*
X128755520Y-95305741D01*
X129422186Y-95305741D02*
X129612663Y-95305741D01*
X129707901Y-95353360D01*
X129803139Y-95448598D01*
X129850758Y-95639074D01*
X129850758Y-95972408D01*
X129803139Y-96162884D01*
X129707901Y-96258122D01*
X129612663Y-96305741D01*
X129422186Y-96305741D01*
X129326948Y-96258122D01*
X129231710Y-96162884D01*
X129184091Y-95972408D01*
X129184091Y-95639074D01*
X129231710Y-95448598D01*
X129326948Y-95353360D01*
X129422186Y-95305741D01*
X130803139Y-96305741D02*
X130231710Y-96305741D01*
X130517424Y-96305741D02*
X130517424Y-95305741D01*
X130422186Y-95448598D01*
X130326948Y-95543836D01*
X130231710Y-95591455D01*
X137496254Y-89285143D02*
X137448635Y-89332762D01*
X137305778Y-89380381D01*
X137210540Y-89380381D01*
X137067682Y-89332762D01*
X136972444Y-89237524D01*
X136924825Y-89142286D01*
X136877206Y-88951810D01*
X136877206Y-88808952D01*
X136924825Y-88618476D01*
X136972444Y-88523238D01*
X137067682Y-88428000D01*
X137210540Y-88380381D01*
X137305778Y-88380381D01*
X137448635Y-88428000D01*
X137496254Y-88475619D01*
X138448635Y-89380381D02*
X137877206Y-89380381D01*
X138162920Y-89380381D02*
X138162920Y-88380381D01*
X138067682Y-88523238D01*
X137972444Y-88618476D01*
X137877206Y-88666095D01*
X153933334Y-84432143D02*
X153885715Y-84479762D01*
X153742858Y-84527381D01*
X153647620Y-84527381D01*
X153504762Y-84479762D01*
X153409524Y-84384524D01*
X153361905Y-84289286D01*
X153314286Y-84098810D01*
X153314286Y-83955952D01*
X153361905Y-83765476D01*
X153409524Y-83670238D01*
X153504762Y-83575000D01*
X153647620Y-83527381D01*
X153742858Y-83527381D01*
X153885715Y-83575000D01*
X153933334Y-83622619D01*
X154314286Y-83622619D02*
X154361905Y-83575000D01*
X154457143Y-83527381D01*
X154695239Y-83527381D01*
X154790477Y-83575000D01*
X154838096Y-83622619D01*
X154885715Y-83717857D01*
X154885715Y-83813095D01*
X154838096Y-83955952D01*
X154266667Y-84527381D01*
X154885715Y-84527381D01*
X153883334Y-89682143D02*
X153835715Y-89729762D01*
X153692858Y-89777381D01*
X153597620Y-89777381D01*
X153454762Y-89729762D01*
X153359524Y-89634524D01*
X153311905Y-89539286D01*
X153264286Y-89348810D01*
X153264286Y-89205952D01*
X153311905Y-89015476D01*
X153359524Y-88920238D01*
X153454762Y-88825000D01*
X153597620Y-88777381D01*
X153692858Y-88777381D01*
X153835715Y-88825000D01*
X153883334Y-88872619D01*
X154216667Y-88777381D02*
X154835715Y-88777381D01*
X154502381Y-89158333D01*
X154645239Y-89158333D01*
X154740477Y-89205952D01*
X154788096Y-89253571D01*
X154835715Y-89348810D01*
X154835715Y-89586905D01*
X154788096Y-89682143D01*
X154740477Y-89729762D01*
X154645239Y-89777381D01*
X154359524Y-89777381D01*
X154264286Y-89729762D01*
X154216667Y-89682143D01*
X161308334Y-79807143D02*
X161260715Y-79854762D01*
X161117858Y-79902381D01*
X161022620Y-79902381D01*
X160879762Y-79854762D01*
X160784524Y-79759524D01*
X160736905Y-79664286D01*
X160689286Y-79473810D01*
X160689286Y-79330952D01*
X160736905Y-79140476D01*
X160784524Y-79045238D01*
X160879762Y-78950000D01*
X161022620Y-78902381D01*
X161117858Y-78902381D01*
X161260715Y-78950000D01*
X161308334Y-78997619D01*
X162165477Y-79235714D02*
X162165477Y-79902381D01*
X161927381Y-78854762D02*
X161689286Y-79569048D01*
X162308334Y-79569048D01*
X125783334Y-58982143D02*
X125735715Y-59029762D01*
X125592858Y-59077381D01*
X125497620Y-59077381D01*
X125354762Y-59029762D01*
X125259524Y-58934524D01*
X125211905Y-58839286D01*
X125164286Y-58648810D01*
X125164286Y-58505952D01*
X125211905Y-58315476D01*
X125259524Y-58220238D01*
X125354762Y-58125000D01*
X125497620Y-58077381D01*
X125592858Y-58077381D01*
X125735715Y-58125000D01*
X125783334Y-58172619D01*
X126688096Y-58077381D02*
X126211905Y-58077381D01*
X126164286Y-58553571D01*
X126211905Y-58505952D01*
X126307143Y-58458333D01*
X126545239Y-58458333D01*
X126640477Y-58505952D01*
X126688096Y-58553571D01*
X126735715Y-58648810D01*
X126735715Y-58886905D01*
X126688096Y-58982143D01*
X126640477Y-59029762D01*
X126545239Y-59077381D01*
X126307143Y-59077381D01*
X126211905Y-59029762D01*
X126164286Y-58982143D01*
X121183334Y-58907143D02*
X121135715Y-58954762D01*
X120992858Y-59002381D01*
X120897620Y-59002381D01*
X120754762Y-58954762D01*
X120659524Y-58859524D01*
X120611905Y-58764286D01*
X120564286Y-58573810D01*
X120564286Y-58430952D01*
X120611905Y-58240476D01*
X120659524Y-58145238D01*
X120754762Y-58050000D01*
X120897620Y-58002381D01*
X120992858Y-58002381D01*
X121135715Y-58050000D01*
X121183334Y-58097619D01*
X122040477Y-58002381D02*
X121850000Y-58002381D01*
X121754762Y-58050000D01*
X121707143Y-58097619D01*
X121611905Y-58240476D01*
X121564286Y-58430952D01*
X121564286Y-58811905D01*
X121611905Y-58907143D01*
X121659524Y-58954762D01*
X121754762Y-59002381D01*
X121945239Y-59002381D01*
X122040477Y-58954762D01*
X122088096Y-58907143D01*
X122135715Y-58811905D01*
X122135715Y-58573810D01*
X122088096Y-58478571D01*
X122040477Y-58430952D01*
X121945239Y-58383333D01*
X121754762Y-58383333D01*
X121659524Y-58430952D01*
X121611905Y-58478571D01*
X121564286Y-58573810D01*
X128208334Y-69057143D02*
X128160715Y-69104762D01*
X128017858Y-69152381D01*
X127922620Y-69152381D01*
X127779762Y-69104762D01*
X127684524Y-69009524D01*
X127636905Y-68914286D01*
X127589286Y-68723810D01*
X127589286Y-68580952D01*
X127636905Y-68390476D01*
X127684524Y-68295238D01*
X127779762Y-68200000D01*
X127922620Y-68152381D01*
X128017858Y-68152381D01*
X128160715Y-68200000D01*
X128208334Y-68247619D01*
X128541667Y-68152381D02*
X129208334Y-68152381D01*
X128779762Y-69152381D01*
X127933334Y-67107143D02*
X127885715Y-67154762D01*
X127742858Y-67202381D01*
X127647620Y-67202381D01*
X127504762Y-67154762D01*
X127409524Y-67059524D01*
X127361905Y-66964286D01*
X127314286Y-66773810D01*
X127314286Y-66630952D01*
X127361905Y-66440476D01*
X127409524Y-66345238D01*
X127504762Y-66250000D01*
X127647620Y-66202381D01*
X127742858Y-66202381D01*
X127885715Y-66250000D01*
X127933334Y-66297619D01*
X128504762Y-66630952D02*
X128409524Y-66583333D01*
X128361905Y-66535714D01*
X128314286Y-66440476D01*
X128314286Y-66392857D01*
X128361905Y-66297619D01*
X128409524Y-66250000D01*
X128504762Y-66202381D01*
X128695239Y-66202381D01*
X128790477Y-66250000D01*
X128838096Y-66297619D01*
X128885715Y-66392857D01*
X128885715Y-66440476D01*
X128838096Y-66535714D01*
X128790477Y-66583333D01*
X128695239Y-66630952D01*
X128504762Y-66630952D01*
X128409524Y-66678571D01*
X128361905Y-66726190D01*
X128314286Y-66821429D01*
X128314286Y-67011905D01*
X128361905Y-67107143D01*
X128409524Y-67154762D01*
X128504762Y-67202381D01*
X128695239Y-67202381D01*
X128790477Y-67154762D01*
X128838096Y-67107143D01*
X128885715Y-67011905D01*
X128885715Y-66821429D01*
X128838096Y-66726190D01*
X128790477Y-66678571D01*
X128695239Y-66630952D01*
X102624594Y-63976523D02*
X102576975Y-64024142D01*
X102434118Y-64071761D01*
X102338880Y-64071761D01*
X102196022Y-64024142D01*
X102100784Y-63928904D01*
X102053165Y-63833666D01*
X102005546Y-63643190D01*
X102005546Y-63500332D01*
X102053165Y-63309856D01*
X102100784Y-63214618D01*
X102196022Y-63119380D01*
X102338880Y-63071761D01*
X102434118Y-63071761D01*
X102576975Y-63119380D01*
X102624594Y-63166999D01*
X103100784Y-64071761D02*
X103291260Y-64071761D01*
X103386499Y-64024142D01*
X103434118Y-63976523D01*
X103529356Y-63833666D01*
X103576975Y-63643190D01*
X103576975Y-63262237D01*
X103529356Y-63166999D01*
X103481737Y-63119380D01*
X103386499Y-63071761D01*
X103196022Y-63071761D01*
X103100784Y-63119380D01*
X103053165Y-63166999D01*
X103005546Y-63262237D01*
X103005546Y-63500332D01*
X103053165Y-63595570D01*
X103100784Y-63643190D01*
X103196022Y-63690809D01*
X103386499Y-63690809D01*
X103481737Y-63643190D01*
X103529356Y-63595570D01*
X103576975Y-63500332D01*
X103639383Y-93237383D02*
X103591764Y-93285002D01*
X103448907Y-93332621D01*
X103353669Y-93332621D01*
X103210811Y-93285002D01*
X103115573Y-93189764D01*
X103067954Y-93094526D01*
X103020335Y-92904050D01*
X103020335Y-92761192D01*
X103067954Y-92570716D01*
X103115573Y-92475478D01*
X103210811Y-92380240D01*
X103353669Y-92332621D01*
X103448907Y-92332621D01*
X103591764Y-92380240D01*
X103639383Y-92427859D01*
X104591764Y-93332621D02*
X104020335Y-93332621D01*
X104306049Y-93332621D02*
X104306049Y-92332621D01*
X104210811Y-92475478D01*
X104115573Y-92570716D01*
X104020335Y-92618335D01*
X105210811Y-92332621D02*
X105306050Y-92332621D01*
X105401288Y-92380240D01*
X105448907Y-92427859D01*
X105496526Y-92523097D01*
X105544145Y-92713573D01*
X105544145Y-92951669D01*
X105496526Y-93142145D01*
X105448907Y-93237383D01*
X105401288Y-93285002D01*
X105306050Y-93332621D01*
X105210811Y-93332621D01*
X105115573Y-93285002D01*
X105067954Y-93237383D01*
X105020335Y-93142145D01*
X104972716Y-92951669D01*
X104972716Y-92713573D01*
X105020335Y-92523097D01*
X105067954Y-92427859D01*
X105115573Y-92380240D01*
X105210811Y-92332621D01*
X112682143Y-93657143D02*
X112634524Y-93704762D01*
X112491667Y-93752381D01*
X112396429Y-93752381D01*
X112253571Y-93704762D01*
X112158333Y-93609524D01*
X112110714Y-93514286D01*
X112063095Y-93323810D01*
X112063095Y-93180952D01*
X112110714Y-92990476D01*
X112158333Y-92895238D01*
X112253571Y-92800000D01*
X112396429Y-92752381D01*
X112491667Y-92752381D01*
X112634524Y-92800000D01*
X112682143Y-92847619D01*
X113634524Y-93752381D02*
X113063095Y-93752381D01*
X113348809Y-93752381D02*
X113348809Y-92752381D01*
X113253571Y-92895238D01*
X113158333Y-92990476D01*
X113063095Y-93038095D01*
X114586905Y-93752381D02*
X114015476Y-93752381D01*
X114301190Y-93752381D02*
X114301190Y-92752381D01*
X114205952Y-92895238D01*
X114110714Y-92990476D01*
X114015476Y-93038095D01*
X124307143Y-87582143D02*
X124259524Y-87629762D01*
X124116667Y-87677381D01*
X124021429Y-87677381D01*
X123878571Y-87629762D01*
X123783333Y-87534524D01*
X123735714Y-87439286D01*
X123688095Y-87248810D01*
X123688095Y-87105952D01*
X123735714Y-86915476D01*
X123783333Y-86820238D01*
X123878571Y-86725000D01*
X124021429Y-86677381D01*
X124116667Y-86677381D01*
X124259524Y-86725000D01*
X124307143Y-86772619D01*
X125259524Y-87677381D02*
X124688095Y-87677381D01*
X124973809Y-87677381D02*
X124973809Y-86677381D01*
X124878571Y-86820238D01*
X124783333Y-86915476D01*
X124688095Y-86963095D01*
X125640476Y-86772619D02*
X125688095Y-86725000D01*
X125783333Y-86677381D01*
X126021429Y-86677381D01*
X126116667Y-86725000D01*
X126164286Y-86772619D01*
X126211905Y-86867857D01*
X126211905Y-86963095D01*
X126164286Y-87105952D01*
X125592857Y-87677381D01*
X126211905Y-87677381D01*
X105886905Y-109777381D02*
X105886905Y-108777381D01*
X106125000Y-108777381D01*
X106267858Y-108825000D01*
X106363096Y-108920238D01*
X106410715Y-109015476D01*
X106458334Y-109205952D01*
X106458334Y-109348810D01*
X106410715Y-109539286D01*
X106363096Y-109634524D01*
X106267858Y-109729762D01*
X106125000Y-109777381D01*
X105886905Y-109777381D01*
X107410715Y-109777381D02*
X106839286Y-109777381D01*
X107125000Y-109777381D02*
X107125000Y-108777381D01*
X107029762Y-108920238D01*
X106934524Y-109015476D01*
X106839286Y-109063095D01*
X116236905Y-109602381D02*
X116236905Y-108602381D01*
X116475000Y-108602381D01*
X116617858Y-108650000D01*
X116713096Y-108745238D01*
X116760715Y-108840476D01*
X116808334Y-109030952D01*
X116808334Y-109173810D01*
X116760715Y-109364286D01*
X116713096Y-109459524D01*
X116617858Y-109554762D01*
X116475000Y-109602381D01*
X116236905Y-109602381D01*
X117189286Y-108697619D02*
X117236905Y-108650000D01*
X117332143Y-108602381D01*
X117570239Y-108602381D01*
X117665477Y-108650000D01*
X117713096Y-108697619D01*
X117760715Y-108792857D01*
X117760715Y-108888095D01*
X117713096Y-109030952D01*
X117141667Y-109602381D01*
X117760715Y-109602381D01*
X110991667Y-83202381D02*
X110991667Y-83916667D01*
X110944047Y-84059524D01*
X110848809Y-84154762D01*
X110705952Y-84202381D01*
X110610714Y-84202381D01*
X111991667Y-84202381D02*
X111420238Y-84202381D01*
X111705952Y-84202381D02*
X111705952Y-83202381D01*
X111610714Y-83345238D01*
X111515476Y-83440476D01*
X111420238Y-83488095D01*
X115091667Y-83377381D02*
X115091667Y-84091667D01*
X115044047Y-84234524D01*
X114948809Y-84329762D01*
X114805952Y-84377381D01*
X114710714Y-84377381D01*
X115520238Y-83472619D02*
X115567857Y-83425000D01*
X115663095Y-83377381D01*
X115901191Y-83377381D01*
X115996429Y-83425000D01*
X116044048Y-83472619D01*
X116091667Y-83567857D01*
X116091667Y-83663095D01*
X116044048Y-83805952D01*
X115472619Y-84377381D01*
X116091667Y-84377381D01*
X158191667Y-85052381D02*
X158191667Y-85766667D01*
X158144047Y-85909524D01*
X158048809Y-86004762D01*
X157905952Y-86052381D01*
X157810714Y-86052381D01*
X158572619Y-85052381D02*
X159191667Y-85052381D01*
X158858333Y-85433333D01*
X159001191Y-85433333D01*
X159096429Y-85480952D01*
X159144048Y-85528571D01*
X159191667Y-85623810D01*
X159191667Y-85861905D01*
X159144048Y-85957143D01*
X159096429Y-86004762D01*
X159001191Y-86052381D01*
X158715476Y-86052381D01*
X158620238Y-86004762D01*
X158572619Y-85957143D01*
X172061547Y-86740301D02*
X172061547Y-87454587D01*
X172013927Y-87597444D01*
X171918689Y-87692682D01*
X171775832Y-87740301D01*
X171680594Y-87740301D01*
X172966309Y-87073634D02*
X172966309Y-87740301D01*
X172728213Y-86692682D02*
X172490118Y-87406968D01*
X173109166Y-87406968D01*
X132991667Y-68352381D02*
X132991667Y-69066667D01*
X132944047Y-69209524D01*
X132848809Y-69304762D01*
X132705952Y-69352381D01*
X132610714Y-69352381D01*
X133944048Y-68352381D02*
X133467857Y-68352381D01*
X133420238Y-68828571D01*
X133467857Y-68780952D01*
X133563095Y-68733333D01*
X133801191Y-68733333D01*
X133896429Y-68780952D01*
X133944048Y-68828571D01*
X133991667Y-68923810D01*
X133991667Y-69161905D01*
X133944048Y-69257143D01*
X133896429Y-69304762D01*
X133801191Y-69352381D01*
X133563095Y-69352381D01*
X133467857Y-69304762D01*
X133420238Y-69257143D01*
X88381905Y-62552381D02*
X88381905Y-61552381D01*
X88762858Y-61552381D01*
X88858096Y-61600000D01*
X88905715Y-61647619D01*
X88953334Y-61742857D01*
X88953334Y-61885714D01*
X88905715Y-61980952D01*
X88858096Y-62028571D01*
X88762858Y-62076190D01*
X88381905Y-62076190D01*
X89334286Y-61647619D02*
X89381905Y-61600000D01*
X89477143Y-61552381D01*
X89715239Y-61552381D01*
X89810477Y-61600000D01*
X89858096Y-61647619D01*
X89905715Y-61742857D01*
X89905715Y-61838095D01*
X89858096Y-61980952D01*
X89286667Y-62552381D01*
X89905715Y-62552381D01*
X122161905Y-49427381D02*
X122161905Y-48427381D01*
X122542858Y-48427381D01*
X122638096Y-48475000D01*
X122685715Y-48522619D01*
X122733334Y-48617857D01*
X122733334Y-48760714D01*
X122685715Y-48855952D01*
X122638096Y-48903571D01*
X122542858Y-48951190D01*
X122161905Y-48951190D01*
X123638096Y-48427381D02*
X123161905Y-48427381D01*
X123114286Y-48903571D01*
X123161905Y-48855952D01*
X123257143Y-48808333D01*
X123495239Y-48808333D01*
X123590477Y-48855952D01*
X123638096Y-48903571D01*
X123685715Y-48998810D01*
X123685715Y-49236905D01*
X123638096Y-49332143D01*
X123590477Y-49379762D01*
X123495239Y-49427381D01*
X123257143Y-49427381D01*
X123161905Y-49379762D01*
X123114286Y-49332143D01*
X107883334Y-76277381D02*
X107550000Y-75801190D01*
X107311905Y-76277381D02*
X107311905Y-75277381D01*
X107692858Y-75277381D01*
X107788096Y-75325000D01*
X107835715Y-75372619D01*
X107883334Y-75467857D01*
X107883334Y-75610714D01*
X107835715Y-75705952D01*
X107788096Y-75753571D01*
X107692858Y-75801190D01*
X107311905Y-75801190D01*
X108835715Y-76277381D02*
X108264286Y-76277381D01*
X108550000Y-76277381D02*
X108550000Y-75277381D01*
X108454762Y-75420238D01*
X108359524Y-75515476D01*
X108264286Y-75563095D01*
X163958334Y-95452381D02*
X163625000Y-94976190D01*
X163386905Y-95452381D02*
X163386905Y-94452381D01*
X163767858Y-94452381D01*
X163863096Y-94500000D01*
X163910715Y-94547619D01*
X163958334Y-94642857D01*
X163958334Y-94785714D01*
X163910715Y-94880952D01*
X163863096Y-94928571D01*
X163767858Y-94976190D01*
X163386905Y-94976190D01*
X164339286Y-94547619D02*
X164386905Y-94500000D01*
X164482143Y-94452381D01*
X164720239Y-94452381D01*
X164815477Y-94500000D01*
X164863096Y-94547619D01*
X164910715Y-94642857D01*
X164910715Y-94738095D01*
X164863096Y-94880952D01*
X164291667Y-95452381D01*
X164910715Y-95452381D01*
X163883334Y-100177381D02*
X163550000Y-99701190D01*
X163311905Y-100177381D02*
X163311905Y-99177381D01*
X163692858Y-99177381D01*
X163788096Y-99225000D01*
X163835715Y-99272619D01*
X163883334Y-99367857D01*
X163883334Y-99510714D01*
X163835715Y-99605952D01*
X163788096Y-99653571D01*
X163692858Y-99701190D01*
X163311905Y-99701190D01*
X164216667Y-99177381D02*
X164835715Y-99177381D01*
X164502381Y-99558333D01*
X164645239Y-99558333D01*
X164740477Y-99605952D01*
X164788096Y-99653571D01*
X164835715Y-99748810D01*
X164835715Y-99986905D01*
X164788096Y-100082143D01*
X164740477Y-100129762D01*
X164645239Y-100177381D01*
X164359524Y-100177381D01*
X164264286Y-100129762D01*
X164216667Y-100082143D01*
X118258334Y-76352381D02*
X117925000Y-75876190D01*
X117686905Y-76352381D02*
X117686905Y-75352381D01*
X118067858Y-75352381D01*
X118163096Y-75400000D01*
X118210715Y-75447619D01*
X118258334Y-75542857D01*
X118258334Y-75685714D01*
X118210715Y-75780952D01*
X118163096Y-75828571D01*
X118067858Y-75876190D01*
X117686905Y-75876190D01*
X119115477Y-75685714D02*
X119115477Y-76352381D01*
X118877381Y-75304762D02*
X118639286Y-76019048D01*
X119258334Y-76019048D01*
X141858334Y-91477381D02*
X141525000Y-91001190D01*
X141286905Y-91477381D02*
X141286905Y-90477381D01*
X141667858Y-90477381D01*
X141763096Y-90525000D01*
X141810715Y-90572619D01*
X141858334Y-90667857D01*
X141858334Y-90810714D01*
X141810715Y-90905952D01*
X141763096Y-90953571D01*
X141667858Y-91001190D01*
X141286905Y-91001190D01*
X142763096Y-90477381D02*
X142286905Y-90477381D01*
X142239286Y-90953571D01*
X142286905Y-90905952D01*
X142382143Y-90858333D01*
X142620239Y-90858333D01*
X142715477Y-90905952D01*
X142763096Y-90953571D01*
X142810715Y-91048810D01*
X142810715Y-91286905D01*
X142763096Y-91382143D01*
X142715477Y-91429762D01*
X142620239Y-91477381D01*
X142382143Y-91477381D01*
X142286905Y-91429762D01*
X142239286Y-91382143D01*
X141858334Y-84577381D02*
X141525000Y-84101190D01*
X141286905Y-84577381D02*
X141286905Y-83577381D01*
X141667858Y-83577381D01*
X141763096Y-83625000D01*
X141810715Y-83672619D01*
X141858334Y-83767857D01*
X141858334Y-83910714D01*
X141810715Y-84005952D01*
X141763096Y-84053571D01*
X141667858Y-84101190D01*
X141286905Y-84101190D01*
X142715477Y-83577381D02*
X142525000Y-83577381D01*
X142429762Y-83625000D01*
X142382143Y-83672619D01*
X142286905Y-83815476D01*
X142239286Y-84005952D01*
X142239286Y-84386905D01*
X142286905Y-84482143D01*
X142334524Y-84529762D01*
X142429762Y-84577381D01*
X142620239Y-84577381D01*
X142715477Y-84529762D01*
X142763096Y-84482143D01*
X142810715Y-84386905D01*
X142810715Y-84148810D01*
X142763096Y-84053571D01*
X142715477Y-84005952D01*
X142620239Y-83958333D01*
X142429762Y-83958333D01*
X142334524Y-84005952D01*
X142286905Y-84053571D01*
X142239286Y-84148810D01*
X159158334Y-93077381D02*
X158825000Y-92601190D01*
X158586905Y-93077381D02*
X158586905Y-92077381D01*
X158967858Y-92077381D01*
X159063096Y-92125000D01*
X159110715Y-92172619D01*
X159158334Y-92267857D01*
X159158334Y-92410714D01*
X159110715Y-92505952D01*
X159063096Y-92553571D01*
X158967858Y-92601190D01*
X158586905Y-92601190D01*
X159491667Y-92077381D02*
X160158334Y-92077381D01*
X159729762Y-93077381D01*
X136108334Y-92852381D02*
X135775000Y-92376190D01*
X135536905Y-92852381D02*
X135536905Y-91852381D01*
X135917858Y-91852381D01*
X136013096Y-91900000D01*
X136060715Y-91947619D01*
X136108334Y-92042857D01*
X136108334Y-92185714D01*
X136060715Y-92280952D01*
X136013096Y-92328571D01*
X135917858Y-92376190D01*
X135536905Y-92376190D01*
X136679762Y-92280952D02*
X136584524Y-92233333D01*
X136536905Y-92185714D01*
X136489286Y-92090476D01*
X136489286Y-92042857D01*
X136536905Y-91947619D01*
X136584524Y-91900000D01*
X136679762Y-91852381D01*
X136870239Y-91852381D01*
X136965477Y-91900000D01*
X137013096Y-91947619D01*
X137060715Y-92042857D01*
X137060715Y-92090476D01*
X137013096Y-92185714D01*
X136965477Y-92233333D01*
X136870239Y-92280952D01*
X136679762Y-92280952D01*
X136584524Y-92328571D01*
X136536905Y-92376190D01*
X136489286Y-92471429D01*
X136489286Y-92661905D01*
X136536905Y-92757143D01*
X136584524Y-92804762D01*
X136679762Y-92852381D01*
X136870239Y-92852381D01*
X136965477Y-92804762D01*
X137013096Y-92757143D01*
X137060715Y-92661905D01*
X137060715Y-92471429D01*
X137013096Y-92376190D01*
X136965477Y-92328571D01*
X136870239Y-92280952D01*
X137808334Y-98327381D02*
X137475000Y-97851190D01*
X137236905Y-98327381D02*
X137236905Y-97327381D01*
X137617858Y-97327381D01*
X137713096Y-97375000D01*
X137760715Y-97422619D01*
X137808334Y-97517857D01*
X137808334Y-97660714D01*
X137760715Y-97755952D01*
X137713096Y-97803571D01*
X137617858Y-97851190D01*
X137236905Y-97851190D01*
X138284524Y-98327381D02*
X138475000Y-98327381D01*
X138570239Y-98279762D01*
X138617858Y-98232143D01*
X138713096Y-98089286D01*
X138760715Y-97898810D01*
X138760715Y-97517857D01*
X138713096Y-97422619D01*
X138665477Y-97375000D01*
X138570239Y-97327381D01*
X138379762Y-97327381D01*
X138284524Y-97375000D01*
X138236905Y-97422619D01*
X138189286Y-97517857D01*
X138189286Y-97755952D01*
X138236905Y-97851190D01*
X138284524Y-97898810D01*
X138379762Y-97946429D01*
X138570239Y-97946429D01*
X138665477Y-97898810D01*
X138713096Y-97851190D01*
X138760715Y-97755952D01*
X168622743Y-90422461D02*
X168289409Y-89946270D01*
X168051314Y-90422461D02*
X168051314Y-89422461D01*
X168432267Y-89422461D01*
X168527505Y-89470080D01*
X168575124Y-89517699D01*
X168622743Y-89612937D01*
X168622743Y-89755794D01*
X168575124Y-89851032D01*
X168527505Y-89898651D01*
X168432267Y-89946270D01*
X168051314Y-89946270D01*
X169575124Y-90422461D02*
X169003695Y-90422461D01*
X169289409Y-90422461D02*
X169289409Y-89422461D01*
X169194171Y-89565318D01*
X169098933Y-89660556D01*
X169003695Y-89708175D01*
X170194171Y-89422461D02*
X170289410Y-89422461D01*
X170384648Y-89470080D01*
X170432267Y-89517699D01*
X170479886Y-89612937D01*
X170527505Y-89803413D01*
X170527505Y-90041509D01*
X170479886Y-90231985D01*
X170432267Y-90327223D01*
X170384648Y-90374842D01*
X170289410Y-90422461D01*
X170194171Y-90422461D01*
X170098933Y-90374842D01*
X170051314Y-90327223D01*
X170003695Y-90231985D01*
X169956076Y-90041509D01*
X169956076Y-89803413D01*
X170003695Y-89612937D01*
X170051314Y-89517699D01*
X170098933Y-89470080D01*
X170194171Y-89422461D01*
X121213401Y-80020397D02*
X120737210Y-80353731D01*
X121213401Y-80591826D02*
X120213401Y-80591826D01*
X120213401Y-80210873D01*
X120261020Y-80115635D01*
X120308639Y-80068016D01*
X120403877Y-80020397D01*
X120546734Y-80020397D01*
X120641972Y-80068016D01*
X120689591Y-80115635D01*
X120737210Y-80210873D01*
X120737210Y-80591826D01*
X121213401Y-79068016D02*
X121213401Y-79639445D01*
X121213401Y-79353731D02*
X120213401Y-79353731D01*
X120356258Y-79448969D01*
X120451496Y-79544207D01*
X120499115Y-79639445D01*
X121213401Y-78115635D02*
X121213401Y-78687064D01*
X121213401Y-78401350D02*
X120213401Y-78401350D01*
X120356258Y-78496588D01*
X120451496Y-78591826D01*
X120499115Y-78687064D01*
X104882143Y-98677381D02*
X104548809Y-98201190D01*
X104310714Y-98677381D02*
X104310714Y-97677381D01*
X104691667Y-97677381D01*
X104786905Y-97725000D01*
X104834524Y-97772619D01*
X104882143Y-97867857D01*
X104882143Y-98010714D01*
X104834524Y-98105952D01*
X104786905Y-98153571D01*
X104691667Y-98201190D01*
X104310714Y-98201190D01*
X105834524Y-98677381D02*
X105263095Y-98677381D01*
X105548809Y-98677381D02*
X105548809Y-97677381D01*
X105453571Y-97820238D01*
X105358333Y-97915476D01*
X105263095Y-97963095D01*
X106215476Y-97772619D02*
X106263095Y-97725000D01*
X106358333Y-97677381D01*
X106596429Y-97677381D01*
X106691667Y-97725000D01*
X106739286Y-97772619D01*
X106786905Y-97867857D01*
X106786905Y-97963095D01*
X106739286Y-98105952D01*
X106167857Y-98677381D01*
X106786905Y-98677381D01*
X117407143Y-100877381D02*
X117073809Y-100401190D01*
X116835714Y-100877381D02*
X116835714Y-99877381D01*
X117216667Y-99877381D01*
X117311905Y-99925000D01*
X117359524Y-99972619D01*
X117407143Y-100067857D01*
X117407143Y-100210714D01*
X117359524Y-100305952D01*
X117311905Y-100353571D01*
X117216667Y-100401190D01*
X116835714Y-100401190D01*
X118359524Y-100877381D02*
X117788095Y-100877381D01*
X118073809Y-100877381D02*
X118073809Y-99877381D01*
X117978571Y-100020238D01*
X117883333Y-100115476D01*
X117788095Y-100163095D01*
X118692857Y-99877381D02*
X119311905Y-99877381D01*
X118978571Y-100258333D01*
X119121429Y-100258333D01*
X119216667Y-100305952D01*
X119264286Y-100353571D01*
X119311905Y-100448810D01*
X119311905Y-100686905D01*
X119264286Y-100782143D01*
X119216667Y-100829762D01*
X119121429Y-100877381D01*
X118835714Y-100877381D01*
X118740476Y-100829762D01*
X118692857Y-100782143D01*
X127426887Y-76049942D02*
X127569744Y-76097561D01*
X127807840Y-76097561D01*
X127903078Y-76049942D01*
X127950697Y-76002323D01*
X127998316Y-75907085D01*
X127998316Y-75811847D01*
X127950697Y-75716609D01*
X127903078Y-75668990D01*
X127807840Y-75621370D01*
X127617363Y-75573751D01*
X127522125Y-75526132D01*
X127474506Y-75478513D01*
X127426887Y-75383275D01*
X127426887Y-75288037D01*
X127474506Y-75192799D01*
X127522125Y-75145180D01*
X127617363Y-75097561D01*
X127855459Y-75097561D01*
X127998316Y-75145180D01*
X128331649Y-75097561D02*
X128569744Y-76097561D01*
X128760221Y-75383275D01*
X128950697Y-76097561D01*
X129188792Y-75097561D01*
X130093554Y-76097561D02*
X129522125Y-76097561D01*
X129807839Y-76097561D02*
X129807839Y-75097561D01*
X129712601Y-75240418D01*
X129617363Y-75335656D01*
X129522125Y-75383275D01*
X148224335Y-87819101D02*
X148224335Y-88628625D01*
X148271954Y-88723863D01*
X148319573Y-88771482D01*
X148414811Y-88819101D01*
X148605288Y-88819101D01*
X148700526Y-88771482D01*
X148748145Y-88723863D01*
X148795764Y-88628625D01*
X148795764Y-87819101D01*
X149795764Y-88819101D02*
X149224335Y-88819101D01*
X149510049Y-88819101D02*
X149510049Y-87819101D01*
X149414811Y-87961958D01*
X149319573Y-88057196D01*
X149224335Y-88104815D01*
X166613095Y-84352381D02*
X166613095Y-85161905D01*
X166660714Y-85257143D01*
X166708333Y-85304762D01*
X166803571Y-85352381D01*
X166994048Y-85352381D01*
X167089286Y-85304762D01*
X167136905Y-85257143D01*
X167184524Y-85161905D01*
X167184524Y-84352381D01*
X167613095Y-84447619D02*
X167660714Y-84400000D01*
X167755952Y-84352381D01*
X167994048Y-84352381D01*
X168089286Y-84400000D01*
X168136905Y-84447619D01*
X168184524Y-84542857D01*
X168184524Y-84638095D01*
X168136905Y-84780952D01*
X167565476Y-85352381D01*
X168184524Y-85352381D01*
X113538095Y-60227381D02*
X113538095Y-61036905D01*
X113585714Y-61132143D01*
X113633333Y-61179762D01*
X113728571Y-61227381D01*
X113919048Y-61227381D01*
X114014286Y-61179762D01*
X114061905Y-61132143D01*
X114109524Y-61036905D01*
X114109524Y-60227381D01*
X114490476Y-60227381D02*
X115109524Y-60227381D01*
X114776190Y-60608333D01*
X114919048Y-60608333D01*
X115014286Y-60655952D01*
X115061905Y-60703571D01*
X115109524Y-60798810D01*
X115109524Y-61036905D01*
X115061905Y-61132143D01*
X115014286Y-61179762D01*
X114919048Y-61227381D01*
X114633333Y-61227381D01*
X114538095Y-61179762D01*
X114490476Y-61132143D01*
X166623478Y-78534261D02*
X166861573Y-79534261D01*
X167052050Y-78819975D01*
X167242526Y-79534261D01*
X167480621Y-78534261D01*
X168385383Y-79534261D02*
X167813954Y-79534261D01*
X168099668Y-79534261D02*
X168099668Y-78534261D01*
X168004430Y-78677118D01*
X167909192Y-78772356D01*
X167813954Y-78819975D01*
X135503398Y-84564221D02*
X135741493Y-85564221D01*
X135931970Y-84849935D01*
X136122446Y-85564221D01*
X136360541Y-84564221D01*
X136693874Y-84659459D02*
X136741493Y-84611840D01*
X136836731Y-84564221D01*
X137074827Y-84564221D01*
X137170065Y-84611840D01*
X137217684Y-84659459D01*
X137265303Y-84754697D01*
X137265303Y-84849935D01*
X137217684Y-84992792D01*
X136646255Y-85564221D01*
X137265303Y-85564221D01*
X167195238Y-91352381D02*
X167433333Y-92352381D01*
X167623810Y-91638095D01*
X167814286Y-92352381D01*
X168052381Y-91352381D01*
X168338095Y-91352381D02*
X168957143Y-91352381D01*
X168623809Y-91733333D01*
X168766667Y-91733333D01*
X168861905Y-91780952D01*
X168909524Y-91828571D01*
X168957143Y-91923810D01*
X168957143Y-92161905D01*
X168909524Y-92257143D01*
X168861905Y-92304762D01*
X168766667Y-92352381D01*
X168480952Y-92352381D01*
X168385714Y-92304762D01*
X168338095Y-92257143D01*
X139195238Y-94927381D02*
X139433333Y-95927381D01*
X139623810Y-95213095D01*
X139814286Y-95927381D01*
X140052381Y-94927381D01*
X140861905Y-95260714D02*
X140861905Y-95927381D01*
X140623809Y-94879762D02*
X140385714Y-95594048D01*
X141004762Y-95594048D01*
X120320238Y-98327381D02*
X120558333Y-99327381D01*
X120748810Y-98613095D01*
X120939286Y-99327381D01*
X121177381Y-98327381D01*
X122034524Y-98327381D02*
X121558333Y-98327381D01*
X121510714Y-98803571D01*
X121558333Y-98755952D01*
X121653571Y-98708333D01*
X121891667Y-98708333D01*
X121986905Y-98755952D01*
X122034524Y-98803571D01*
X122082143Y-98898810D01*
X122082143Y-99136905D01*
X122034524Y-99232143D01*
X121986905Y-99279762D01*
X121891667Y-99327381D01*
X121653571Y-99327381D01*
X121558333Y-99279762D01*
X121510714Y-99232143D01*
X125836667Y-99142381D02*
X125836667Y-99856667D01*
X125789047Y-99999524D01*
X125693809Y-100094762D01*
X125550952Y-100142381D01*
X125455714Y-100142381D01*
X126741429Y-99142381D02*
X126550952Y-99142381D01*
X126455714Y-99190000D01*
X126408095Y-99237619D01*
X126312857Y-99380476D01*
X126265238Y-99570952D01*
X126265238Y-99951905D01*
X126312857Y-100047143D01*
X126360476Y-100094762D01*
X126455714Y-100142381D01*
X126646191Y-100142381D01*
X126741429Y-100094762D01*
X126789048Y-100047143D01*
X126836667Y-99951905D01*
X126836667Y-99713810D01*
X126789048Y-99618571D01*
X126741429Y-99570952D01*
X126646191Y-99523333D01*
X126455714Y-99523333D01*
X126360476Y-99570952D01*
X126312857Y-99618571D01*
X126265238Y-99713810D01*
X135891905Y-49402381D02*
X135891905Y-48402381D01*
X136272858Y-48402381D01*
X136368096Y-48450000D01*
X136415715Y-48497619D01*
X136463334Y-48592857D01*
X136463334Y-48735714D01*
X136415715Y-48830952D01*
X136368096Y-48878571D01*
X136272858Y-48926190D01*
X135891905Y-48926190D01*
X137320477Y-48735714D02*
X137320477Y-49402381D01*
X137082381Y-48354762D02*
X136844286Y-49069048D01*
X137463334Y-49069048D01*
X169470714Y-46744141D02*
X169470714Y-45744141D01*
X169851667Y-45744141D01*
X169946905Y-45791760D01*
X169994524Y-45839379D01*
X170042143Y-45934617D01*
X170042143Y-46077474D01*
X169994524Y-46172712D01*
X169946905Y-46220331D01*
X169851667Y-46267950D01*
X169470714Y-46267950D01*
X170994524Y-46744141D02*
X170423095Y-46744141D01*
X170708809Y-46744141D02*
X170708809Y-45744141D01*
X170613571Y-45886998D01*
X170518333Y-45982236D01*
X170423095Y-46029855D01*
X171375476Y-45839379D02*
X171423095Y-45791760D01*
X171518333Y-45744141D01*
X171756429Y-45744141D01*
X171851667Y-45791760D01*
X171899286Y-45839379D01*
X171946905Y-45934617D01*
X171946905Y-46029855D01*
X171899286Y-46172712D01*
X171327857Y-46744141D01*
X171946905Y-46744141D01*
X125910714Y-108927381D02*
X125910714Y-107927381D01*
X126291667Y-107927381D01*
X126386905Y-107975000D01*
X126434524Y-108022619D01*
X126482143Y-108117857D01*
X126482143Y-108260714D01*
X126434524Y-108355952D01*
X126386905Y-108403571D01*
X126291667Y-108451190D01*
X125910714Y-108451190D01*
X127434524Y-108927381D02*
X126863095Y-108927381D01*
X127148809Y-108927381D02*
X127148809Y-107927381D01*
X127053571Y-108070238D01*
X126958333Y-108165476D01*
X126863095Y-108213095D01*
X128339286Y-107927381D02*
X127863095Y-107927381D01*
X127815476Y-108403571D01*
X127863095Y-108355952D01*
X127958333Y-108308333D01*
X128196429Y-108308333D01*
X128291667Y-108355952D01*
X128339286Y-108403571D01*
X128386905Y-108498810D01*
X128386905Y-108736905D01*
X128339286Y-108832143D01*
X128291667Y-108879762D01*
X128196429Y-108927381D01*
X127958333Y-108927381D01*
X127863095Y-108879762D01*
X127815476Y-108832143D01*
X108111905Y-49402381D02*
X108111905Y-48402381D01*
X108492858Y-48402381D01*
X108588096Y-48450000D01*
X108635715Y-48497619D01*
X108683334Y-48592857D01*
X108683334Y-48735714D01*
X108635715Y-48830952D01*
X108588096Y-48878571D01*
X108492858Y-48926190D01*
X108111905Y-48926190D01*
X109159524Y-49402381D02*
X109350000Y-49402381D01*
X109445239Y-49354762D01*
X109492858Y-49307143D01*
X109588096Y-49164286D01*
X109635715Y-48973810D01*
X109635715Y-48592857D01*
X109588096Y-48497619D01*
X109540477Y-48450000D01*
X109445239Y-48402381D01*
X109254762Y-48402381D01*
X109159524Y-48450000D01*
X109111905Y-48497619D01*
X109064286Y-48592857D01*
X109064286Y-48830952D01*
X109111905Y-48926190D01*
X109159524Y-48973810D01*
X109254762Y-49021429D01*
X109445239Y-49021429D01*
X109540477Y-48973810D01*
X109588096Y-48926190D01*
X109635715Y-48830952D01*
X174931905Y-103262381D02*
X174931905Y-102262381D01*
X175312858Y-102262381D01*
X175408096Y-102310000D01*
X175455715Y-102357619D01*
X175503334Y-102452857D01*
X175503334Y-102595714D01*
X175455715Y-102690952D01*
X175408096Y-102738571D01*
X175312858Y-102786190D01*
X174931905Y-102786190D01*
X175836667Y-102262381D02*
X176455715Y-102262381D01*
X176122381Y-102643333D01*
X176265239Y-102643333D01*
X176360477Y-102690952D01*
X176408096Y-102738571D01*
X176455715Y-102833810D01*
X176455715Y-103071905D01*
X176408096Y-103167143D01*
X176360477Y-103214762D01*
X176265239Y-103262381D01*
X175979524Y-103262381D01*
X175884286Y-103214762D01*
X175836667Y-103167143D01*
X174641905Y-56162381D02*
X174641905Y-55162381D01*
X175022858Y-55162381D01*
X175118096Y-55210000D01*
X175165715Y-55257619D01*
X175213334Y-55352857D01*
X175213334Y-55495714D01*
X175165715Y-55590952D01*
X175118096Y-55638571D01*
X175022858Y-55686190D01*
X174641905Y-55686190D01*
X175784762Y-55590952D02*
X175689524Y-55543333D01*
X175641905Y-55495714D01*
X175594286Y-55400476D01*
X175594286Y-55352857D01*
X175641905Y-55257619D01*
X175689524Y-55210000D01*
X175784762Y-55162381D01*
X175975239Y-55162381D01*
X176070477Y-55210000D01*
X176118096Y-55257619D01*
X176165715Y-55352857D01*
X176165715Y-55400476D01*
X176118096Y-55495714D01*
X176070477Y-55543333D01*
X175975239Y-55590952D01*
X175784762Y-55590952D01*
X175689524Y-55638571D01*
X175641905Y-55686190D01*
X175594286Y-55781429D01*
X175594286Y-55971905D01*
X175641905Y-56067143D01*
X175689524Y-56114762D01*
X175784762Y-56162381D01*
X175975239Y-56162381D01*
X176070477Y-56114762D01*
X176118096Y-56067143D01*
X176165715Y-55971905D01*
X176165715Y-55781429D01*
X176118096Y-55686190D01*
X176070477Y-55638571D01*
X175975239Y-55590952D01*
X175115714Y-90592381D02*
X175115714Y-89592381D01*
X175496667Y-89592381D01*
X175591905Y-89640000D01*
X175639524Y-89687619D01*
X175687143Y-89782857D01*
X175687143Y-89925714D01*
X175639524Y-90020952D01*
X175591905Y-90068571D01*
X175496667Y-90116190D01*
X175115714Y-90116190D01*
X176639524Y-90592381D02*
X176068095Y-90592381D01*
X176353809Y-90592381D02*
X176353809Y-89592381D01*
X176258571Y-89735238D01*
X176163333Y-89830476D01*
X176068095Y-89878095D01*
X177591905Y-90592381D02*
X177020476Y-90592381D01*
X177306190Y-90592381D02*
X177306190Y-89592381D01*
X177210952Y-89735238D01*
X177115714Y-89830476D01*
X177020476Y-89878095D01*
X99110714Y-100302381D02*
X99110714Y-99302381D01*
X99491667Y-99302381D01*
X99586905Y-99350000D01*
X99634524Y-99397619D01*
X99682143Y-99492857D01*
X99682143Y-99635714D01*
X99634524Y-99730952D01*
X99586905Y-99778571D01*
X99491667Y-99826190D01*
X99110714Y-99826190D01*
X100634524Y-100302381D02*
X100063095Y-100302381D01*
X100348809Y-100302381D02*
X100348809Y-99302381D01*
X100253571Y-99445238D01*
X100158333Y-99540476D01*
X100063095Y-99588095D01*
X100967857Y-99302381D02*
X101586905Y-99302381D01*
X101253571Y-99683333D01*
X101396429Y-99683333D01*
X101491667Y-99730952D01*
X101539286Y-99778571D01*
X101586905Y-99873810D01*
X101586905Y-100111905D01*
X101539286Y-100207143D01*
X101491667Y-100254762D01*
X101396429Y-100302381D01*
X101110714Y-100302381D01*
X101015476Y-100254762D01*
X100967857Y-100207143D01*
X116632143Y-87632143D02*
X116584524Y-87679762D01*
X116441667Y-87727381D01*
X116346429Y-87727381D01*
X116203571Y-87679762D01*
X116108333Y-87584524D01*
X116060714Y-87489286D01*
X116013095Y-87298810D01*
X116013095Y-87155952D01*
X116060714Y-86965476D01*
X116108333Y-86870238D01*
X116203571Y-86775000D01*
X116346429Y-86727381D01*
X116441667Y-86727381D01*
X116584524Y-86775000D01*
X116632143Y-86822619D01*
X117584524Y-87727381D02*
X117013095Y-87727381D01*
X117298809Y-87727381D02*
X117298809Y-86727381D01*
X117203571Y-86870238D01*
X117108333Y-86965476D01*
X117013095Y-87013095D01*
X117917857Y-86727381D02*
X118536905Y-86727381D01*
X118203571Y-87108333D01*
X118346429Y-87108333D01*
X118441667Y-87155952D01*
X118489286Y-87203571D01*
X118536905Y-87298810D01*
X118536905Y-87536905D01*
X118489286Y-87632143D01*
X118441667Y-87679762D01*
X118346429Y-87727381D01*
X118060714Y-87727381D01*
X117965476Y-87679762D01*
X117917857Y-87632143D01*
X116088095Y-98177381D02*
X116088095Y-98986905D01*
X116135714Y-99082143D01*
X116183333Y-99129762D01*
X116278571Y-99177381D01*
X116469048Y-99177381D01*
X116564286Y-99129762D01*
X116611905Y-99082143D01*
X116659524Y-98986905D01*
X116659524Y-98177381D01*
X117564286Y-98510714D02*
X117564286Y-99177381D01*
X117326190Y-98129762D02*
X117088095Y-98844048D01*
X117707143Y-98844048D01*
X99455718Y-102181661D02*
X99693813Y-103181661D01*
X99884290Y-102467375D01*
X100074766Y-103181661D01*
X100312861Y-102181661D01*
X101122385Y-102181661D02*
X100931908Y-102181661D01*
X100836670Y-102229280D01*
X100789051Y-102276899D01*
X100693813Y-102419756D01*
X100646194Y-102610232D01*
X100646194Y-102991185D01*
X100693813Y-103086423D01*
X100741432Y-103134042D01*
X100836670Y-103181661D01*
X101027147Y-103181661D01*
X101122385Y-103134042D01*
X101170004Y-103086423D01*
X101217623Y-102991185D01*
X101217623Y-102753090D01*
X101170004Y-102657851D01*
X101122385Y-102610232D01*
X101027147Y-102562613D01*
X100836670Y-102562613D01*
X100741432Y-102610232D01*
X100693813Y-102657851D01*
X100646194Y-102753090D01*
X141081905Y-49572381D02*
X141081905Y-48572381D01*
X141462858Y-48572381D01*
X141558096Y-48620000D01*
X141605715Y-48667619D01*
X141653334Y-48762857D01*
X141653334Y-48905714D01*
X141605715Y-49000952D01*
X141558096Y-49048571D01*
X141462858Y-49096190D01*
X141081905Y-49096190D01*
X142605715Y-49572381D02*
X142034286Y-49572381D01*
X142320000Y-49572381D02*
X142320000Y-48572381D01*
X142224762Y-48715238D01*
X142129524Y-48810476D01*
X142034286Y-48858095D01*
X141982143Y-75627381D02*
X141648809Y-75151190D01*
X141410714Y-75627381D02*
X141410714Y-74627381D01*
X141791667Y-74627381D01*
X141886905Y-74675000D01*
X141934524Y-74722619D01*
X141982143Y-74817857D01*
X141982143Y-74960714D01*
X141934524Y-75055952D01*
X141886905Y-75103571D01*
X141791667Y-75151190D01*
X141410714Y-75151190D01*
X142934524Y-75627381D02*
X142363095Y-75627381D01*
X142648809Y-75627381D02*
X142648809Y-74627381D01*
X142553571Y-74770238D01*
X142458333Y-74865476D01*
X142363095Y-74913095D01*
X143791667Y-74627381D02*
X143601190Y-74627381D01*
X143505952Y-74675000D01*
X143458333Y-74722619D01*
X143363095Y-74865476D01*
X143315476Y-75055952D01*
X143315476Y-75436905D01*
X143363095Y-75532143D01*
X143410714Y-75579762D01*
X143505952Y-75627381D01*
X143696429Y-75627381D01*
X143791667Y-75579762D01*
X143839286Y-75532143D01*
X143886905Y-75436905D01*
X143886905Y-75198810D01*
X143839286Y-75103571D01*
X143791667Y-75055952D01*
X143696429Y-75008333D01*
X143505952Y-75008333D01*
X143410714Y-75055952D01*
X143363095Y-75103571D01*
X143315476Y-75198810D01*
X130482143Y-64102381D02*
X130148809Y-63626190D01*
X129910714Y-64102381D02*
X129910714Y-63102381D01*
X130291667Y-63102381D01*
X130386905Y-63150000D01*
X130434524Y-63197619D01*
X130482143Y-63292857D01*
X130482143Y-63435714D01*
X130434524Y-63530952D01*
X130386905Y-63578571D01*
X130291667Y-63626190D01*
X129910714Y-63626190D01*
X131434524Y-64102381D02*
X130863095Y-64102381D01*
X131148809Y-64102381D02*
X131148809Y-63102381D01*
X131053571Y-63245238D01*
X130958333Y-63340476D01*
X130863095Y-63388095D01*
X131767857Y-63102381D02*
X132434524Y-63102381D01*
X132005952Y-64102381D01*
X138011905Y-71102381D02*
X138011905Y-70102381D01*
X138250000Y-70102381D01*
X138392858Y-70150000D01*
X138488096Y-70245238D01*
X138535715Y-70340476D01*
X138583334Y-70530952D01*
X138583334Y-70673810D01*
X138535715Y-70864286D01*
X138488096Y-70959524D01*
X138392858Y-71054762D01*
X138250000Y-71102381D01*
X138011905Y-71102381D01*
X138916667Y-70102381D02*
X139535715Y-70102381D01*
X139202381Y-70483333D01*
X139345239Y-70483333D01*
X139440477Y-70530952D01*
X139488096Y-70578571D01*
X139535715Y-70673810D01*
X139535715Y-70911905D01*
X139488096Y-71007143D01*
X139440477Y-71054762D01*
X139345239Y-71102381D01*
X139059524Y-71102381D01*
X138964286Y-71054762D01*
X138916667Y-71007143D01*
X133161905Y-58827381D02*
X133161905Y-57827381D01*
X133400000Y-57827381D01*
X133542858Y-57875000D01*
X133638096Y-57970238D01*
X133685715Y-58065476D01*
X133733334Y-58255952D01*
X133733334Y-58398810D01*
X133685715Y-58589286D01*
X133638096Y-58684524D01*
X133542858Y-58779762D01*
X133400000Y-58827381D01*
X133161905Y-58827381D01*
X134590477Y-58160714D02*
X134590477Y-58827381D01*
X134352381Y-57779762D02*
X134114286Y-58494048D01*
X134733334Y-58494048D01*
X155782143Y-57452381D02*
X155448809Y-56976190D01*
X155210714Y-57452381D02*
X155210714Y-56452381D01*
X155591667Y-56452381D01*
X155686905Y-56500000D01*
X155734524Y-56547619D01*
X155782143Y-56642857D01*
X155782143Y-56785714D01*
X155734524Y-56880952D01*
X155686905Y-56928571D01*
X155591667Y-56976190D01*
X155210714Y-56976190D01*
X156734524Y-57452381D02*
X156163095Y-57452381D01*
X156448809Y-57452381D02*
X156448809Y-56452381D01*
X156353571Y-56595238D01*
X156258333Y-56690476D01*
X156163095Y-56738095D01*
X157591667Y-56785714D02*
X157591667Y-57452381D01*
X157353571Y-56404762D02*
X157115476Y-57119048D01*
X157734524Y-57119048D01*
X155832143Y-70052381D02*
X155498809Y-69576190D01*
X155260714Y-70052381D02*
X155260714Y-69052381D01*
X155641667Y-69052381D01*
X155736905Y-69100000D01*
X155784524Y-69147619D01*
X155832143Y-69242857D01*
X155832143Y-69385714D01*
X155784524Y-69480952D01*
X155736905Y-69528571D01*
X155641667Y-69576190D01*
X155260714Y-69576190D01*
X156784524Y-70052381D02*
X156213095Y-70052381D01*
X156498809Y-70052381D02*
X156498809Y-69052381D01*
X156403571Y-69195238D01*
X156308333Y-69290476D01*
X156213095Y-69338095D01*
X157689286Y-69052381D02*
X157213095Y-69052381D01*
X157165476Y-69528571D01*
X157213095Y-69480952D01*
X157308333Y-69433333D01*
X157546429Y-69433333D01*
X157641667Y-69480952D01*
X157689286Y-69528571D01*
X157736905Y-69623810D01*
X157736905Y-69861905D01*
X157689286Y-69957143D01*
X157641667Y-70004762D01*
X157546429Y-70052381D01*
X157308333Y-70052381D01*
X157213095Y-70004762D01*
X157165476Y-69957143D01*
D10*
X126136906Y-62763095D02*
X126136906Y-63001190D01*
X125970239Y-62501190D02*
X126136906Y-62763095D01*
X126303572Y-62501190D01*
X126732143Y-63001190D02*
X126446429Y-63001190D01*
X126589286Y-63001190D02*
X126589286Y-62501190D01*
X126541667Y-62572619D01*
X126494048Y-62620238D01*
X126446429Y-62644048D01*
D12*
X179185714Y-68577381D02*
X179185714Y-67577381D01*
X179566667Y-67577381D01*
X179661905Y-67625000D01*
X179709524Y-67672619D01*
X179757143Y-67767857D01*
X179757143Y-67910714D01*
X179709524Y-68005952D01*
X179661905Y-68053571D01*
X179566667Y-68101190D01*
X179185714Y-68101190D01*
X180709524Y-68577381D02*
X180138095Y-68577381D01*
X180423809Y-68577381D02*
X180423809Y-67577381D01*
X180328571Y-67720238D01*
X180233333Y-67815476D01*
X180138095Y-67863095D01*
X181566667Y-67910714D02*
X181566667Y-68577381D01*
X181328571Y-67529762D02*
X181090476Y-68244048D01*
X181709524Y-68244048D01*
X179185714Y-78877381D02*
X179185714Y-77877381D01*
X179566667Y-77877381D01*
X179661905Y-77925000D01*
X179709524Y-77972619D01*
X179757143Y-78067857D01*
X179757143Y-78210714D01*
X179709524Y-78305952D01*
X179661905Y-78353571D01*
X179566667Y-78401190D01*
X179185714Y-78401190D01*
X180709524Y-78877381D02*
X180138095Y-78877381D01*
X180423809Y-78877381D02*
X180423809Y-77877381D01*
X180328571Y-78020238D01*
X180233333Y-78115476D01*
X180138095Y-78163095D01*
X181566667Y-77877381D02*
X181376190Y-77877381D01*
X181280952Y-77925000D01*
X181233333Y-77972619D01*
X181138095Y-78115476D01*
X181090476Y-78305952D01*
X181090476Y-78686905D01*
X181138095Y-78782143D01*
X181185714Y-78829762D01*
X181280952Y-78877381D01*
X181471429Y-78877381D01*
X181566667Y-78829762D01*
X181614286Y-78782143D01*
X181661905Y-78686905D01*
X181661905Y-78448810D01*
X181614286Y-78353571D01*
X181566667Y-78305952D01*
X181471429Y-78258333D01*
X181280952Y-78258333D01*
X181185714Y-78305952D01*
X181138095Y-78353571D01*
X181090476Y-78448810D01*
X167732143Y-53717857D02*
X167779762Y-53765476D01*
X167827381Y-53908333D01*
X167827381Y-54003571D01*
X167779762Y-54146429D01*
X167684524Y-54241667D01*
X167589286Y-54289286D01*
X167398810Y-54336905D01*
X167255952Y-54336905D01*
X167065476Y-54289286D01*
X166970238Y-54241667D01*
X166875000Y-54146429D01*
X166827381Y-54003571D01*
X166827381Y-53908333D01*
X166875000Y-53765476D01*
X166922619Y-53717857D01*
X167827381Y-52765476D02*
X167827381Y-53336905D01*
X167827381Y-53051191D02*
X166827381Y-53051191D01*
X166970238Y-53146429D01*
X167065476Y-53241667D01*
X167113095Y-53336905D01*
X167160714Y-51908333D02*
X167827381Y-51908333D01*
X166779762Y-52146429D02*
X167494048Y-52384524D01*
X167494048Y-51765476D01*
X88561905Y-84477381D02*
X88561905Y-83477381D01*
X88942858Y-83477381D01*
X89038096Y-83525000D01*
X89085715Y-83572619D01*
X89133334Y-83667857D01*
X89133334Y-83810714D01*
X89085715Y-83905952D01*
X89038096Y-83953571D01*
X88942858Y-84001190D01*
X88561905Y-84001190D01*
X89990477Y-83477381D02*
X89800000Y-83477381D01*
X89704762Y-83525000D01*
X89657143Y-83572619D01*
X89561905Y-83715476D01*
X89514286Y-83905952D01*
X89514286Y-84286905D01*
X89561905Y-84382143D01*
X89609524Y-84429762D01*
X89704762Y-84477381D01*
X89895239Y-84477381D01*
X89990477Y-84429762D01*
X90038096Y-84382143D01*
X90085715Y-84286905D01*
X90085715Y-84048810D01*
X90038096Y-83953571D01*
X89990477Y-83905952D01*
X89895239Y-83858333D01*
X89704762Y-83858333D01*
X89609524Y-83905952D01*
X89561905Y-83953571D01*
X89514286Y-84048810D01*
X154691905Y-49182381D02*
X154691905Y-48182381D01*
X155072858Y-48182381D01*
X155168096Y-48230000D01*
X155215715Y-48277619D01*
X155263334Y-48372857D01*
X155263334Y-48515714D01*
X155215715Y-48610952D01*
X155168096Y-48658571D01*
X155072858Y-48706190D01*
X154691905Y-48706190D01*
X155596667Y-48182381D02*
X156263334Y-48182381D01*
X155834762Y-49182381D01*
X99445714Y-116992381D02*
X99445714Y-115992381D01*
X99826667Y-115992381D01*
X99921905Y-116040000D01*
X99969524Y-116087619D01*
X100017143Y-116182857D01*
X100017143Y-116325714D01*
X99969524Y-116420952D01*
X99921905Y-116468571D01*
X99826667Y-116516190D01*
X99445714Y-116516190D01*
X100969524Y-116992381D02*
X100398095Y-116992381D01*
X100683809Y-116992381D02*
X100683809Y-115992381D01*
X100588571Y-116135238D01*
X100493333Y-116230476D01*
X100398095Y-116278095D01*
X101588571Y-115992381D02*
X101683810Y-115992381D01*
X101779048Y-116040000D01*
X101826667Y-116087619D01*
X101874286Y-116182857D01*
X101921905Y-116373333D01*
X101921905Y-116611429D01*
X101874286Y-116801905D01*
X101826667Y-116897143D01*
X101779048Y-116944762D01*
X101683810Y-116992381D01*
X101588571Y-116992381D01*
X101493333Y-116944762D01*
X101445714Y-116897143D01*
X101398095Y-116801905D01*
X101350476Y-116611429D01*
X101350476Y-116373333D01*
X101398095Y-116182857D01*
X101445714Y-116087619D01*
X101493333Y-116040000D01*
X101588571Y-115992381D01*
M02*
