G04 #@! TF.FileFunction,Paste,Top*
%FSLAX46Y46*%
G04 Gerber Fmt 4.6, Leading zero omitted, Abs format (unit mm)*
G04 Created by KiCad (PCBNEW 4.0.2-stable) date 05/10/2017 9:36:09*
%MOMM*%
G01*
G04 APERTURE LIST*
%ADD10C,0.100000*%
%ADD11R,1.200000X0.400000*%
%ADD12R,1.500000X1.250000*%
%ADD13R,1.250000X1.500000*%
%ADD14R,1.200000X1.200000*%
%ADD15R,1.300000X1.500000*%
%ADD16R,1.500000X1.300000*%
%ADD17R,1.800000X1.100000*%
%ADD18R,1.550000X0.600000*%
%ADD19R,0.450000X1.450000*%
%ADD20R,1.600000X0.550000*%
%ADD21R,0.550000X1.600000*%
%ADD22R,3.800000X2.000000*%
%ADD23R,1.500000X2.000000*%
%ADD24R,1.200000X2.300000*%
G04 APERTURE END LIST*
D10*
D11*
X132705520Y-93928360D03*
X132705520Y-93278360D03*
X132705520Y-92628360D03*
X132705520Y-91978360D03*
X132705520Y-91328360D03*
X132705520Y-90678360D03*
X132705520Y-90028360D03*
X132705520Y-89378360D03*
X125805520Y-89378360D03*
X125805520Y-90028360D03*
X125805520Y-90678360D03*
X125805520Y-91328360D03*
X125805520Y-91978360D03*
X125805520Y-92628360D03*
X125805520Y-93278360D03*
X125805520Y-93928360D03*
D12*
X136412920Y-90678000D03*
X138912920Y-90678000D03*
X154442480Y-85694520D03*
X151942480Y-85694520D03*
X154442480Y-87619840D03*
X151942480Y-87619840D03*
D13*
X161474150Y-81189510D03*
X161474150Y-83689510D03*
D12*
X124700000Y-60375000D03*
X127200000Y-60375000D03*
X122600000Y-60375000D03*
X120100000Y-60375000D03*
X125049600Y-68707000D03*
X122549600Y-68707000D03*
X122549600Y-66741040D03*
X125049600Y-66741040D03*
X105263000Y-66586100D03*
X102763000Y-66586100D03*
X103032240Y-94630240D03*
X105532240Y-94630240D03*
X114488280Y-95133160D03*
X111988280Y-95133160D03*
D13*
X122377200Y-87533160D03*
X122377200Y-90033160D03*
D14*
X105549520Y-107320080D03*
X107749520Y-107320080D03*
X118061920Y-107309920D03*
X115861920Y-107309920D03*
D15*
X108041440Y-80740240D03*
X108041440Y-78040240D03*
X161996120Y-93666320D03*
X161996120Y-96366320D03*
X161998660Y-98388180D03*
X161998660Y-101088180D03*
X118430040Y-80719920D03*
X118430040Y-78019920D03*
X142036800Y-95411280D03*
X142036800Y-92711280D03*
X142036800Y-88665040D03*
X142036800Y-85965040D03*
X157261560Y-91233000D03*
X157261560Y-93933000D03*
X138165840Y-95533200D03*
X138165840Y-92833200D03*
X135900160Y-94743280D03*
X135900160Y-97443280D03*
D16*
X170615600Y-88270080D03*
X167915600Y-88270080D03*
D15*
X122461020Y-80727540D03*
X122461020Y-78027540D03*
X105552240Y-100148400D03*
X105552240Y-102848400D03*
X118059200Y-102261680D03*
X118059200Y-104961680D03*
D17*
X131860220Y-77695180D03*
X125660220Y-77695180D03*
X125660220Y-81395180D03*
X131860220Y-81395180D03*
D18*
X146286240Y-89961720D03*
X146286240Y-91231720D03*
X146286240Y-92501720D03*
X146286240Y-93771720D03*
X151686240Y-93771720D03*
X151686240Y-92501720D03*
X151686240Y-91231720D03*
X151686240Y-89961720D03*
D19*
X165527630Y-82723630D03*
X164877630Y-82723630D03*
X164227630Y-82723630D03*
X163577630Y-82723630D03*
X163577630Y-87123630D03*
X164227630Y-87123630D03*
X164877630Y-87123630D03*
X165527630Y-87123630D03*
D20*
X118575400Y-69792500D03*
X118575400Y-68992500D03*
X118575400Y-68192500D03*
X118575400Y-67392500D03*
X118575400Y-66592500D03*
X118575400Y-65792500D03*
X118575400Y-64992500D03*
X118575400Y-64192500D03*
D21*
X117125400Y-62742500D03*
X116325400Y-62742500D03*
X115525400Y-62742500D03*
X114725400Y-62742500D03*
X113925400Y-62742500D03*
X113125400Y-62742500D03*
X112325400Y-62742500D03*
X111525400Y-62742500D03*
D20*
X110075400Y-64192500D03*
X110075400Y-64992500D03*
X110075400Y-65792500D03*
X110075400Y-66592500D03*
X110075400Y-67392500D03*
X110075400Y-68192500D03*
X110075400Y-68992500D03*
X110075400Y-69792500D03*
D21*
X111525400Y-71242500D03*
X112325400Y-71242500D03*
X113125400Y-71242500D03*
X113925400Y-71242500D03*
X114725400Y-71242500D03*
X115525400Y-71242500D03*
X116325400Y-71242500D03*
X117125400Y-71242500D03*
D13*
X119893080Y-90038240D03*
X119893080Y-87538240D03*
D22*
X111998760Y-104998920D03*
D23*
X111998760Y-98698920D03*
X109698760Y-98698920D03*
X114298760Y-98698920D03*
D16*
X141243060Y-73502520D03*
X143943060Y-73502520D03*
D15*
X133852920Y-62287160D03*
X133852920Y-64987160D03*
D24*
X124500000Y-62775000D03*
X122900000Y-62775000D03*
D13*
X165625000Y-51825000D03*
X165625000Y-54325000D03*
D14*
X100310000Y-59350000D03*
X100310000Y-57150000D03*
D16*
X100320000Y-61190000D03*
X103020000Y-61190000D03*
M02*
