M48
;DRILL file {KiCad 4.0.2-stable} date 05/10/2017 10:01:21
;FORMAT={-:-/ absolute / inch / decimal}
FMAT,2
INCH,TZ
T1C0.016
T2C0.020
T3C0.031
T4C0.039
T5C0.043
T6C0.047
T7C0.059
T8C0.067
T9C0.071
T10C0.126
%
G90
G05
M72
T1
X3.4894Y-4.1382
X3.4937Y-2.8555
X3.4937Y-3.885
X3.4949Y-2.6642
X3.4949Y-3.1051
X3.4949Y-3.5949
X3.4957Y-2.4177
X3.498Y-2.2307
X3.5Y-3.335
X3.552Y-3.6598
X3.5894Y-4.2433
X3.6118Y-3.6016
X3.7031Y-2.472
X3.7031Y-2.5807
X3.7031Y-2.6783
X3.7031Y-2.7689
X3.7169Y-3.6
X3.7224Y-3.0713
X3.7336Y-2.2224
X3.7386Y-2.5799
X3.7819Y-2.6783
X3.7976Y-2.7713
X3.8024Y-4.2449
X3.8059Y-2.2933
X3.8579Y-2.3386
X3.8642Y-2.1528
X3.8685Y-3.5012
X3.8846Y-3.3201
X3.8909Y-3.6
X3.9059Y-4.437
X3.9689Y-3.4016
X3.972Y-4.3382
X3.976Y-2.6215
X3.9929Y-4.2496
X3.9929Y-4.5307
X4.0051Y-3.498
X4.0138Y-2.25
X4.0173Y-2.1492
X4.0248Y-3.324
X4.0634Y-3.6
X4.0634Y-4.437
X4.0846Y-4.3394
X4.1087Y-3.4024
X4.1197Y-2.2417
X4.1295Y-3.5012
X4.133Y-2.5618
X4.1339Y-2.3717
X4.1614Y-4.5319
X4.1713Y-3.3303
X4.1776Y-3.5984
X4.1921Y-2.3681
X4.1933Y-2.3134
X4.194Y-2.5008
X4.2252Y-3.0028
X4.2285Y-2.6535
X4.2417Y-4.2961
X4.2433Y-3.4
X4.2673Y-2.8039
X4.2673Y-3.5012
X4.3114Y-3.0248
X4.3264Y-2.8063
X4.3283Y-2.3736
X4.3283Y-2.4839
X4.3307Y-2.4299
X4.3331Y-4.5287
X4.3441Y-3.0043
X4.4016Y-2.5933
X4.4091Y-2.7177
X4.4096Y-2.6211
X4.4163Y-2.6797
X4.4417Y-2.6531
X4.4457Y-2.5634
X4.4531Y-2.9654
X4.4575Y-2.7413
X4.4622Y-3.0744
X4.4776Y-2.5953
X4.4783Y-2.7138
X4.4929Y-2.6217
X4.4992Y-2.6843
X4.4992Y-3.0043
X4.5091Y-2.7492
X4.5114Y-2.5563
X4.5504Y-4.5319
X4.555Y-2.5692
X4.555Y-2.6218
X4.5583Y-2.6843
X4.5583Y-2.7209
X4.561Y-2.1055
X4.561Y-2.1472
X4.5618Y-4.2878
X4.5902Y-2.6847
X4.5913Y-2.6218
X4.611Y-3.9169
X4.6626Y-3.2498
X4.6689Y-2.8016
X4.6713Y-3.5446
X4.674Y-4.4504
X4.7112Y-2.0232
X4.7193Y-3.0535
X4.7316Y-2.6214
X4.7318Y-2.6854
X4.7453Y-2.378
X4.7583Y-3.0543
X4.8031Y-4.452
X4.8177Y-3.3848
X4.8213Y-3.2499
X4.8246Y-2.7612
X4.8323Y-2.2461
X4.863Y-2.2846
X4.871Y-3.6212
X4.8987Y-3.5958
X4.899Y-3.647
X4.9339Y-2.2425
X4.9473Y-3.2825
X4.9575Y-4.452
X4.9649Y-2.0228
X4.976Y-3.4232
X4.9764Y-3.461
X4.9836Y-2.7054
X4.9843Y-2.5303
X4.9866Y-2.6278
X4.9909Y-2.3783
X5.0138Y-3.0047
X5.0378Y-2.0929
X5.0413Y-2.2398
X5.0551Y-2.5291
X5.0579Y-2.4587
X5.0634Y-2.5972
X5.074Y-3.0047
X5.102Y-2.2925
X5.1043Y-4.4535
X5.1209Y-2.4642
X5.126Y-3.0047
X5.1272Y-2.3472
X5.1295Y-2.598
X5.1323Y-2.5307
X5.1689Y-2.2043
X5.172Y-2.276
X5.1862Y-2.4035
X5.1915Y-3.2825
X5.1984Y-2.5961
X5.2031Y-2.3429
X5.2413Y-2.1976
X5.2606Y-4.452
X5.2689Y-2.2724
X5.3106Y-2.6618
X5.3514Y-2.8224
X5.3547Y-2.6618
X5.3697Y-3.1543
X5.4043Y-2.6618
X5.411Y-4.4508
X5.4138Y-2.8465
X5.4287Y-3.337
X5.4528Y-3.2689
X5.4756Y-3.3846
X5.5154Y-3.7417
X5.5201Y-3.3386
X5.5296Y-3.3844
X5.5469Y-3.2705
X5.5504Y-3.152
X5.6291Y-3.2713
X5.6354Y-2.463
X5.6354Y-4.4496
X5.6614Y-3.152
X5.6636Y-3.7564
X5.6928Y-3.692
X5.7075Y-2.5874
X5.7106Y-2.3819
X5.7134Y-3.2701
X5.7744Y-3.2154
X5.7776Y-3.1504
X5.8185Y-2.4827
X5.8382Y-4.1173
X5.8634Y-2.5874
X5.8728Y-4.4496
X5.8815Y-3.2138
X5.8858Y-2.3882
X5.8906Y-3.1528
X5.9087Y-4.185
X5.9205Y-3.4496
X5.922Y-3.3738
X5.922Y-3.9
X5.9429Y-4.0185
X5.9701Y-2.4827
X5.9791Y-2.5874
X6.Y-3.2118
X6.0224Y-3.7996
X6.0465Y-4.1882
X6.0575Y-3.1512
X6.0961Y-4.4508
X6.0976Y-4.0154
X6.0984Y-3.5516
X6.1126Y-3.9118
X6.1354Y-3.5516
X6.1996Y-3.7618
X6.2008Y-3.0744
X6.2114Y-2.4976
X6.2146Y-4.1882
X6.2311Y-4.0228
X6.2504Y-3.5835
X6.252Y-2.9394
X6.2748Y-2.4976
X6.276Y-3.8303
X6.278Y-3.5839
X6.2958Y-3.2952
X6.3039Y-3.8303
X6.3063Y-3.0768
X6.3157Y-2.8764
X6.3188Y-3.98
X6.3339Y-2.939
X6.3496Y-2.4972
X6.3512Y-4.1882
X6.3669Y-4.4484
X6.3713Y-2.0071
X6.3713Y-2.037
X6.3839Y-3.4673
X6.3846Y-2.8799
X6.4114Y-2.9382
X6.4394Y-3.0768
X6.4422Y-3.6874
X6.4551Y-3.1902
X6.4559Y-2.8811
X6.4638Y-2.0012
X6.4638Y-2.037
X6.4657Y-3.4919
X6.4913Y-2.9398
X6.5189Y-4.1835
X6.5264Y-2.2319
X6.5264Y-2.2835
X6.5311Y-2.8831
X6.6016Y-2.478
X6.6024Y-4.4461
X6.6031Y-2.3909
X6.6311Y-3.2969
X6.6406Y-2.5921
X6.648Y-4.2
X6.6839Y-2.3685
X6.7409Y-3.8906
X6.7937Y-3.1512
X6.8134Y-3.9567
X6.8398Y-4.4508
X6.8575Y-1.9933
X6.8618Y-2.1165
X6.8906Y-4.037
X6.8969Y-2.4433
X6.9358Y-2.1764
X6.9827Y-3.9567
X7.0382Y-5.1539
X7.0402Y-4.9701
X7.0425Y-4.5512
X7.0445Y-4.798
X7.0752Y-4.0303
X7.161Y-3.9579
X7.1752Y-4.8201
X7.176Y-4.9724
X7.176Y-5.2906
X7.1799Y-4.5949
X7.2382Y-4.0303
T2
X3.5104Y-1.9769
X3.5104Y-5.5202
X3.538Y-1.91
X3.538Y-2.0437
X3.538Y-5.4533
X3.538Y-5.587
X3.6049Y-1.8824
X3.6049Y-2.0713
X3.6049Y-5.4257
X3.6049Y-5.6146
X3.6717Y-1.91
X3.6717Y-2.0437
X3.6717Y-5.4533
X3.6717Y-5.587
X3.6993Y-1.9769
X3.6993Y-5.5202
X3.7536Y-2.922
X3.8356Y-3.7421
X3.9678Y-3.7257
X4.2534Y-3.2517
X4.4118Y-2.106
X4.5857Y-3.7454
X4.5858Y-3.8175
X4.6319Y-4.3327
X4.7303Y-4.3327
X4.8425Y-4.3327
X4.935Y-4.3327
X5.0042Y-4.297
X5.0505Y-3.924
X5.1102Y-3.9552
X5.1122Y-4.3346
X5.1905Y-3.9552
X5.2372Y-4.3346
X5.2613Y-4.026
X5.2646Y-2.1586
X5.2698Y-2.3349
X5.3144Y-4.026
X5.376Y-4.3346
X5.3862Y-1.926
X5.389Y-4.0262
X5.4562Y-4.0262
X5.5192Y-4.0034
X5.5374Y-4.3346
X5.5777Y-3.9449
X5.7303Y-4.3346
X5.7756Y-2.8938
X5.9045Y-4.3346
X6.0492Y-4.3346
X6.0831Y-2.7792
X6.1473Y-3.3735
X6.2116Y-4.3346
X6.2205Y-2.0374
X6.2973Y-3.1968
X6.3661Y-4.3346
X6.5256Y-4.3346
X6.6132Y-3.688
X6.6713Y-4.3346
X6.767Y-2.322
X6.8184Y-3.8064
X6.84Y-3.6495
X6.8415Y-4.3346
X6.9291Y-2.5876
X7.0537Y-1.9769
X7.0537Y-5.5202
X7.0813Y-1.91
X7.0813Y-2.0437
X7.0813Y-5.4533
X7.0813Y-5.587
X7.1482Y-1.8824
X7.1482Y-2.0713
X7.1482Y-5.4257
X7.1482Y-5.6146
X7.215Y-1.91
X7.215Y-2.0437
X7.215Y-5.4533
X7.215Y-5.587
X7.2426Y-1.9769
X7.2426Y-5.5202
T3
X3.9512Y-4.1232
X3.963Y-4.6799
X3.963Y-4.7799
X3.963Y-4.8799
X3.963Y-4.9799
X3.963Y-5.0799
X3.963Y-5.1799
X3.963Y-5.2799
X3.963Y-5.3799
X3.963Y-5.4799
X3.963Y-5.5799
X4.063Y-4.6799
X4.063Y-4.7799
X4.063Y-4.8799
X4.063Y-4.9799
X4.063Y-5.0799
X4.063Y-5.1799
X4.063Y-5.2799
X4.063Y-5.3799
X4.063Y-5.4799
X4.063Y-5.5799
X4.163Y-4.6799
X4.163Y-4.7799
X4.163Y-4.8799
X4.163Y-4.9799
X4.163Y-5.0799
X4.163Y-5.1799
X4.163Y-5.2799
X4.163Y-5.3799
X4.163Y-5.4799
X4.163Y-5.5799
X4.263Y-4.6799
X4.263Y-4.7799
X4.263Y-4.8799
X4.263Y-4.9799
X4.263Y-5.0799
X4.263Y-5.1799
X4.263Y-5.2799
X4.263Y-5.3799
X4.263Y-5.4799
X4.263Y-5.5799
X4.363Y-4.6799
X4.363Y-4.7799
X4.363Y-4.8799
X4.363Y-4.9799
X4.363Y-5.0799
X4.363Y-5.1799
X4.363Y-5.2799
X4.363Y-5.3799
X4.363Y-5.4799
X4.363Y-5.5799
X4.463Y-4.6799
X4.463Y-4.7799
X4.463Y-4.8799
X4.463Y-4.9799
X4.463Y-5.0799
X4.463Y-5.1799
X4.463Y-5.2799
X4.463Y-5.3799
X4.463Y-5.4799
X4.463Y-5.5799
X4.563Y-4.6799
X4.563Y-4.7799
X4.563Y-4.8799
X4.563Y-4.9799
X4.563Y-5.0799
X4.563Y-5.1799
X4.563Y-5.2799
X4.563Y-5.3799
X4.563Y-5.4799
X4.563Y-5.5799
X4.663Y-4.6799
X4.663Y-4.7799
X4.663Y-4.8799
X4.663Y-4.9799
X4.663Y-5.0799
X4.663Y-5.1799
X4.663Y-5.2799
X4.663Y-5.3799
X4.663Y-5.4799
X4.663Y-5.5799
X4.763Y-4.6799
X4.763Y-4.7799
X4.763Y-4.8799
X4.763Y-4.9799
X4.763Y-5.0799
X4.763Y-5.1799
X4.763Y-5.2799
X4.763Y-5.3799
X4.763Y-5.4799
X4.763Y-5.5799
X4.863Y-4.6799
X4.863Y-4.7799
X4.863Y-4.8799
X4.863Y-4.9799
X4.863Y-5.0799
X4.863Y-5.1799
X4.863Y-5.2799
X4.863Y-5.3799
X4.863Y-5.4799
X4.863Y-5.5799
X4.8714Y-3.8928
X4.963Y-4.6799
X4.963Y-4.7799
X4.963Y-4.8799
X4.963Y-4.9799
X4.963Y-5.0799
X4.963Y-5.1799
X4.963Y-5.2799
X4.963Y-5.3799
X4.963Y-5.4799
X4.963Y-5.5799
X5.063Y-4.6799
X5.063Y-4.7799
X5.063Y-4.8799
X5.063Y-4.9799
X5.063Y-5.0799
X5.063Y-5.1799
X5.063Y-5.2799
X5.063Y-5.3799
X5.063Y-5.4799
X5.063Y-5.5799
X5.163Y-4.6799
X5.163Y-4.7799
X5.163Y-4.8799
X5.163Y-4.9799
X5.163Y-5.0799
X5.163Y-5.1799
X5.163Y-5.2799
X5.163Y-5.3799
X5.163Y-5.4799
X5.163Y-5.5799
X5.263Y-4.6799
X5.263Y-4.7799
X5.263Y-4.8799
X5.263Y-4.9799
X5.263Y-5.0799
X5.263Y-5.1799
X5.263Y-5.2799
X5.263Y-5.3799
X5.263Y-5.4799
X5.263Y-5.5799
X5.363Y-4.6799
X5.363Y-4.7799
X5.363Y-4.8799
X5.363Y-4.9799
X5.363Y-5.0799
X5.363Y-5.1799
X5.363Y-5.2799
X5.363Y-5.3799
X5.363Y-5.4799
X5.363Y-5.5799
X5.3704Y-3.4296
X5.463Y-4.6799
X5.463Y-4.7799
X5.463Y-4.8799
X5.463Y-4.9799
X5.463Y-5.0799
X5.463Y-5.1799
X5.463Y-5.2799
X5.463Y-5.3799
X5.463Y-5.4799
X5.463Y-5.5799
X5.5161Y-3.6549
X5.563Y-4.6799
X5.563Y-4.7799
X5.563Y-4.8799
X5.563Y-4.9799
X5.563Y-5.0799
X5.563Y-5.1799
X5.563Y-5.2799
X5.563Y-5.3799
X5.563Y-5.4799
X5.563Y-5.5799
X5.663Y-4.6799
X5.663Y-4.7799
X5.663Y-4.8799
X5.663Y-4.9799
X5.663Y-5.0799
X5.663Y-5.1799
X5.663Y-5.2799
X5.663Y-5.3799
X5.663Y-5.4799
X5.663Y-5.5799
X5.763Y-4.6799
X5.763Y-4.7799
X5.763Y-4.8799
X5.763Y-4.9799
X5.763Y-5.0799
X5.763Y-5.1799
X5.763Y-5.2799
X5.763Y-5.3799
X5.763Y-5.4799
X5.763Y-5.5799
X5.863Y-4.6799
X5.863Y-4.7799
X5.863Y-4.8799
X5.863Y-4.9799
X5.863Y-5.0799
X5.863Y-5.1799
X5.863Y-5.2799
X5.863Y-5.3799
X5.863Y-5.4799
X5.863Y-5.5799
X5.963Y-4.6799
X5.963Y-4.7799
X5.963Y-4.8799
X5.963Y-4.9799
X5.963Y-5.0799
X5.963Y-5.1799
X5.963Y-5.2799
X5.963Y-5.3799
X5.963Y-5.4799
X5.963Y-5.5799
X6.063Y-4.6799
X6.063Y-4.7799
X6.063Y-4.8799
X6.063Y-4.9799
X6.063Y-5.0799
X6.063Y-5.1799
X6.063Y-5.2799
X6.063Y-5.3799
X6.063Y-5.4799
X6.063Y-5.5799
X6.163Y-4.6799
X6.163Y-4.7799
X6.163Y-4.8799
X6.163Y-4.9799
X6.163Y-5.0799
X6.163Y-5.1799
X6.163Y-5.2799
X6.163Y-5.3799
X6.163Y-5.4799
X6.163Y-5.5799
X6.263Y-4.6799
X6.263Y-4.7799
X6.263Y-4.8799
X6.263Y-4.9799
X6.263Y-5.0799
X6.263Y-5.1799
X6.263Y-5.2799
X6.263Y-5.3799
X6.263Y-5.4799
X6.263Y-5.5799
X6.363Y-4.6799
X6.363Y-4.7799
X6.363Y-4.8799
X6.363Y-4.9799
X6.363Y-5.0799
X6.363Y-5.1799
X6.363Y-5.2799
X6.363Y-5.3799
X6.363Y-5.4799
X6.363Y-5.5799
X6.463Y-4.6799
X6.463Y-4.7799
X6.463Y-4.8799
X6.463Y-4.9799
X6.463Y-5.0799
X6.463Y-5.1799
X6.463Y-5.2799
X6.463Y-5.3799
X6.463Y-5.4799
X6.463Y-5.5799
X6.563Y-4.6799
X6.563Y-4.7799
X6.563Y-4.8799
X6.563Y-4.9799
X6.563Y-5.0799
X6.563Y-5.1799
X6.563Y-5.2799
X6.563Y-5.3799
X6.563Y-5.4799
X6.563Y-5.5799
X6.5956Y-3.1922
X6.663Y-4.6799
X6.663Y-4.7799
X6.663Y-4.8799
X6.663Y-4.9799
X6.663Y-5.0799
X6.663Y-5.1799
X6.663Y-5.2799
X6.663Y-5.3799
X6.663Y-5.4799
X6.663Y-5.5799
X6.717Y-3.618
X6.763Y-4.6799
X6.763Y-4.7799
X6.763Y-4.8799
X6.763Y-4.9799
X6.763Y-5.0799
X6.763Y-5.1799
X6.763Y-5.2799
X6.763Y-5.3799
X6.763Y-5.4799
X6.763Y-5.5799
X6.863Y-4.6799
X6.863Y-4.7799
X6.863Y-4.8799
X6.863Y-4.9799
X6.863Y-5.0799
X6.863Y-5.1799
X6.863Y-5.2799
X6.863Y-5.3799
X6.863Y-5.4799
X6.863Y-5.5799
T4
X3.6345Y-2.222
X3.6345Y-2.322
X3.6345Y-2.422
X3.6345Y-2.522
X3.6345Y-2.622
X3.6345Y-2.722
X3.6345Y-2.822
X3.6345Y-2.922
X3.6358Y-3.1409
X3.6358Y-3.2409
X3.6358Y-3.3409
X3.6358Y-3.4409
X3.7358Y-3.1409
X3.7358Y-3.2409
X3.7358Y-3.3409
X3.7358Y-3.4409
X3.8635Y-1.9265
X3.9635Y-1.9265
X4.0635Y-1.9265
X4.1635Y-1.9265
X4.3835Y-3.0725
X4.3835Y-3.1725
X4.4115Y-1.926
X4.5115Y-1.926
X4.544Y-3.0715
X4.544Y-3.1715
X4.6115Y-1.926
X4.7115Y-1.926
X4.9039Y-4.026
X4.9644Y-1.926
X5.0039Y-4.026
X5.0043Y-4.17
X5.0644Y-1.926
X5.1493Y-2.8224
X5.1644Y-1.926
X5.2493Y-2.8224
X5.2644Y-1.926
X6.198Y-3.4728
X6.2205Y-1.9213
X6.298Y-3.4728
X6.3205Y-1.9213
X6.4205Y-1.9213
X6.5205Y-1.9213
X6.7224Y-1.9173
X6.7872Y-3.2448
X6.7872Y-3.3448
T5
X5.3867Y-2.1586
X5.3867Y-2.5586
X5.5608Y-2.7792
X5.9608Y-2.7792
T6
X5.5605Y-2.596
X5.5613Y-2.3859
X6.3605Y-2.596
X6.3613Y-2.3859
T7
X7.1024Y-2.8839
X7.1033Y-3.2953
T8
X7.0024Y-2.7839
X7.0024Y-2.9839
X7.0033Y-3.1953
X7.0033Y-3.3953
X7.2024Y-2.7839
X7.2024Y-2.9839
X7.2033Y-3.1953
X7.2033Y-3.3953
T9
X3.6742Y-3.8531
X3.6742Y-4.0091
X5.7005Y-2.0746
X5.8564Y-2.0746
X6.0123Y-2.0746
X7.0728Y-2.3
X7.0728Y-2.456
X7.0797Y-4.1444
X7.0797Y-4.3004
X7.0806Y-3.6504
X7.0806Y-3.8064
T10
X3.6049Y-1.9769
X3.6049Y-5.5202
X7.1482Y-1.9769
X7.1482Y-5.5202
T0
M30
