G04 #@! TF.FileFunction,Legend,Bot*
%FSLAX46Y46*%
G04 Gerber Fmt 4.6, Leading zero omitted, Abs format (unit mm)*
G04 Created by KiCad (PCBNEW 4.0.2-stable) date 05/10/2017 9:36:09*
%MOMM*%
G01*
G04 APERTURE LIST*
%ADD10C,0.100000*%
%ADD11C,0.300000*%
G04 APERTURE END LIST*
D10*
D11*
X173793334Y-56574762D02*
X173602858Y-56574762D01*
X173412382Y-56670000D01*
X173317144Y-56765238D01*
X173221906Y-56955714D01*
X173126667Y-57336667D01*
X173126667Y-57812857D01*
X173221906Y-58193810D01*
X173317144Y-58384286D01*
X173412382Y-58479524D01*
X173602858Y-58574762D01*
X173793334Y-58574762D01*
X173983810Y-58479524D01*
X174079048Y-58384286D01*
X174174287Y-58193810D01*
X174269525Y-57812857D01*
X174269525Y-57336667D01*
X174174287Y-56955714D01*
X174079048Y-56765238D01*
X173983810Y-56670000D01*
X173793334Y-56574762D01*
X171888572Y-56574762D02*
X171698096Y-56574762D01*
X171507620Y-56670000D01*
X171412382Y-56765238D01*
X171317144Y-56955714D01*
X171221905Y-57336667D01*
X171221905Y-57812857D01*
X171317144Y-58193810D01*
X171412382Y-58384286D01*
X171507620Y-58479524D01*
X171698096Y-58574762D01*
X171888572Y-58574762D01*
X172079048Y-58479524D01*
X172174286Y-58384286D01*
X172269525Y-58193810D01*
X172364763Y-57812857D01*
X172364763Y-57336667D01*
X172269525Y-56955714D01*
X172174286Y-56765238D01*
X172079048Y-56670000D01*
X171888572Y-56574762D01*
X169317143Y-58574762D02*
X170460001Y-58574762D01*
X169888572Y-58574762D02*
X169888572Y-56574762D01*
X170079048Y-56860476D01*
X170269524Y-57050952D01*
X170460001Y-57146190D01*
X166269524Y-57527143D02*
X165983810Y-57622381D01*
X165888571Y-57717619D01*
X165793333Y-57908095D01*
X165793333Y-58193810D01*
X165888571Y-58384286D01*
X165983810Y-58479524D01*
X166174286Y-58574762D01*
X166936191Y-58574762D01*
X166936191Y-56574762D01*
X166269524Y-56574762D01*
X166079048Y-56670000D01*
X165983810Y-56765238D01*
X165888571Y-56955714D01*
X165888571Y-57146190D01*
X165983810Y-57336667D01*
X166079048Y-57431905D01*
X166269524Y-57527143D01*
X166936191Y-57527143D01*
X164936191Y-58574762D02*
X164936191Y-56574762D01*
X163602857Y-56574762D02*
X163221905Y-56574762D01*
X163031429Y-56670000D01*
X162840952Y-56860476D01*
X162745714Y-57241429D01*
X162745714Y-57908095D01*
X162840952Y-58289048D01*
X163031429Y-58479524D01*
X163221905Y-58574762D01*
X163602857Y-58574762D01*
X163793333Y-58479524D01*
X163983810Y-58289048D01*
X164079048Y-57908095D01*
X164079048Y-57241429D01*
X163983810Y-56860476D01*
X163793333Y-56670000D01*
X163602857Y-56574762D01*
X161888572Y-58574762D02*
X161888572Y-56574762D01*
X160936191Y-58574762D02*
X160936191Y-56574762D01*
X160269524Y-58003333D01*
X159602857Y-56574762D01*
X159602857Y-58574762D01*
X158650477Y-58574762D02*
X158650477Y-56574762D01*
X157888572Y-56574762D01*
X157698096Y-56670000D01*
X157602857Y-56765238D01*
X157507619Y-56955714D01*
X157507619Y-57241429D01*
X157602857Y-57431905D01*
X157698096Y-57527143D01*
X157888572Y-57622381D01*
X158650477Y-57622381D01*
X156650477Y-57527143D02*
X155983810Y-57527143D01*
X155698096Y-58574762D02*
X156650477Y-58574762D01*
X156650477Y-56574762D01*
X155698096Y-56574762D01*
X154840953Y-58574762D02*
X154840953Y-56574762D01*
X154364762Y-56574762D01*
X154079048Y-56670000D01*
X153888572Y-56860476D01*
X153793333Y-57050952D01*
X153698095Y-57431905D01*
X153698095Y-57717619D01*
X153793333Y-58098571D01*
X153888572Y-58289048D01*
X154079048Y-58479524D01*
X154364762Y-58574762D01*
X154840953Y-58574762D01*
X152936191Y-58003333D02*
X151983810Y-58003333D01*
X153126667Y-58574762D02*
X152460000Y-56574762D01*
X151793333Y-58574762D01*
X151126667Y-58574762D02*
X151126667Y-56574762D01*
X149983809Y-58574762D01*
X149983809Y-56574762D01*
X147888571Y-58384286D02*
X147983809Y-58479524D01*
X148269524Y-58574762D01*
X148460000Y-58574762D01*
X148745714Y-58479524D01*
X148936190Y-58289048D01*
X149031429Y-58098571D01*
X149126667Y-57717619D01*
X149126667Y-57431905D01*
X149031429Y-57050952D01*
X148936190Y-56860476D01*
X148745714Y-56670000D01*
X148460000Y-56574762D01*
X148269524Y-56574762D01*
X147983809Y-56670000D01*
X147888571Y-56765238D01*
X147031429Y-57527143D02*
X146364762Y-57527143D01*
X146079048Y-58574762D02*
X147031429Y-58574762D01*
X147031429Y-56574762D01*
X146079048Y-56574762D01*
X145221905Y-58574762D02*
X145221905Y-56574762D01*
X144555238Y-58003333D01*
X143888571Y-56574762D01*
X143888571Y-58574762D01*
X142936191Y-57527143D02*
X142269524Y-57527143D01*
X141983810Y-58574762D02*
X142936191Y-58574762D01*
X142936191Y-56574762D01*
X141983810Y-56574762D01*
X141412381Y-56574762D02*
X140269524Y-56574762D01*
X140840952Y-58574762D02*
X140840952Y-56574762D01*
X139602857Y-57527143D02*
X138936190Y-57527143D01*
X138650476Y-58574762D02*
X139602857Y-58574762D01*
X139602857Y-56574762D01*
X138650476Y-56574762D01*
X136650475Y-58574762D02*
X137317142Y-57622381D01*
X137793333Y-58574762D02*
X137793333Y-56574762D01*
X137031428Y-56574762D01*
X136840952Y-56670000D01*
X136745713Y-56765238D01*
X136650475Y-56955714D01*
X136650475Y-57241429D01*
X136745713Y-57431905D01*
X136840952Y-57527143D01*
X137031428Y-57622381D01*
X137793333Y-57622381D01*
M02*
